<svg width="18" height="18" viewBox="0 0 18 18" fill="none" xmlns="http://www.w3.org/2000/svg">
<path d="M16.7075 16.1639L10.6767 7.60069L9.99481 6.63228L5.67929 0.507897L5.32169 0H0.0212402L1.31377 1.83613L7.05062 9.98174L7.7325 10.9487L12.342 17.4936L12.6996 18H18.0015L16.7075 16.1639ZM13.3284 16.8272L8.54014 10.0276L7.85826 9.05923L2.30174 1.17127H4.69133L9.18565 7.55183L9.86752 8.52024L15.7195 16.8287H13.3284V16.8272Z" fill="black"/>
<path d="M7.85824 9.06055L8.54011 10.029L7.73247 10.9485L1.52892 17.9998H0L7.05059 9.98157L7.85824 9.06055Z" fill="black"/>
<path d="M17.362 0L10.6766 7.60069L9.86742 8.52024L9.18555 7.55183L9.99471 6.63228L14.5239 1.48075L15.8331 0H17.362Z" fill="black"/>
</svg>
