<svg width="16" height="16" viewBox="0 0 16 16" fill="none" xmlns="http://www.w3.org/2000/svg">
<g clip-path="url(#clip0_83_152)">
<path d="M14.851 14.3679L9.4903 6.75617L8.88419 5.89536L5.04818 0.451464L4.73031 0H0.0187988L1.16772 1.63212L6.26714 8.87265L6.87325 9.73215L10.9706 15.5499L11.2884 16H16.0013L14.851 14.3679ZM11.8474 14.9576L7.59115 8.91346L6.98504 8.05265L2.04591 1.04113H4.16999L8.16494 6.71273L8.77105 7.57354L13.9728 14.9589H11.8474V14.9576Z" fill="#FFFBFB"/>
<path d="M6.9851 8.0542L7.59121 8.91501L6.87331 9.73238L1.35904 16.0002H0L6.26719 8.87289L6.9851 8.0542Z" fill="#FFFBFB"/>
<path d="M15.433 0L9.4904 6.75617L8.77115 7.57354L8.16504 6.71273L8.88429 5.89536L12.9102 1.31622L14.074 0H15.433Z" fill="#FFFBFB"/>
</g>
<defs>
<clipPath id="clip0_83_152">
<rect width="16" height="16" fill="white"/>
</clipPath>
</defs>
</svg>
