<svg width="51" height="51" viewBox="0 0 51 51" fill="none" xmlns="http://www.w3.org/2000/svg">
<path d="M31.875 36.125V38.25C31.875 41.7708 29.0208 44.625 25.5 44.625C21.9792 44.625 19.125 41.7708 19.125 38.25V36.1252M31.875 36.125L19.125 36.1252M31.875 36.125H40.375C41.5486 36.125 42.5 35.1736 42.5 34V32.7549C42.5 32.1913 42.2759 31.6511 41.8774 31.2524L40.7921 30.1671C40.525 29.9 40.375 29.5374 40.375 29.1596V21.25C40.375 20.8751 40.3615 20.5032 40.3335 20.1367M19.125 36.1252L10.625 36.1253C9.4514 36.1253 8.5 35.1732 8.5 33.9996V32.7549C8.5 32.1914 8.72406 31.6517 9.12256 31.253L10.2079 30.1662C10.475 29.899 10.625 29.538 10.625 29.1601V21.25C10.625 13.0348 17.2847 6.375 25.5 6.375C27.0122 6.375 28.4716 6.60064 29.8465 7.02008M40.3335 20.1367C42.897 18.673 44.625 15.9133 44.625 12.75C44.625 8.05558 40.8194 4.25 36.125 4.25C33.6382 4.25 31.4009 5.31788 29.8465 7.02008M40.3335 20.1367C39.0927 20.8452 37.6561 21.25 36.125 21.25C31.4306 21.25 27.625 17.4444 27.625 12.75C27.625 10.5423 28.4666 8.53125 29.8465 7.02008M40.3335 20.1367C40.3335 20.1367 40.3335 20.1367 40.3335 20.1367ZM29.8465 7.02008C29.8475 7.02039 29.8485 7.02069 29.8495 7.02099" stroke="black" stroke-width="2" stroke-linecap="round" stroke-linejoin="round"/>
</svg>
