<svg width="71" height="71" viewBox="0 0 71 71" fill="none" xmlns="http://www.w3.org/2000/svg">
<path d="M17.7497 32.5417C17.1646 32.5417 16.5926 32.7152 16.1061 33.0402C15.6196 33.3653 15.2404 33.8273 15.0165 34.3679C14.7926 34.9084 14.734 35.5033 14.8482 36.0771C14.9623 36.651 15.2441 37.1781 15.6578 37.5918C16.0715 38.0056 16.5987 38.2873 17.1725 38.4015C17.7464 38.5156 18.3412 38.457 18.8818 38.2331C19.4223 38.0092 19.8844 37.63 20.2094 37.1436C20.5345 36.6571 20.708 36.0851 20.708 35.5C20.708 34.7154 20.3963 33.9629 19.8415 33.4081C19.2867 32.8533 18.5343 32.5417 17.7497 32.5417ZM53.2497 32.5417C52.6646 32.5417 52.0926 32.7152 51.6061 33.0402C51.1196 33.3653 50.7404 33.8273 50.5165 34.3679C50.2926 34.9084 50.234 35.5033 50.3482 36.0771C50.4623 36.651 50.7441 37.1781 51.1578 37.5918C51.5715 38.0056 52.0987 38.2873 52.6725 38.4015C53.2464 38.5156 53.8412 38.457 54.3818 38.2331C54.9223 38.0092 55.3844 37.63 55.7094 37.1436C56.0345 36.6571 56.208 36.0851 56.208 35.5C56.208 34.7154 55.8963 33.9629 55.3415 33.4081C54.7867 32.8533 54.0343 32.5417 53.2497 32.5417ZM59.1663 14.7917H11.833C9.47921 14.7917 7.22182 15.7267 5.55743 17.3911C3.89305 19.0555 2.95801 21.3129 2.95801 23.6667V47.3333C2.95801 49.6871 3.89305 51.9445 5.55743 53.6089C7.22182 55.2733 9.47921 56.2083 11.833 56.2083H59.1663C61.5201 56.2083 63.7775 55.2733 65.4419 53.6089C67.1063 51.9445 68.0413 49.6871 68.0413 47.3333V23.6667C68.0413 21.3129 67.1063 19.0555 65.4419 17.3911C63.7775 15.7267 61.5201 14.7917 59.1663 14.7917ZM62.1247 47.3333C62.1247 48.1179 61.813 48.8704 61.2582 49.4252C60.7034 49.98 59.9509 50.2917 59.1663 50.2917H11.833C11.0484 50.2917 10.2959 49.98 9.74115 49.4252C9.18635 48.8704 8.87467 48.1179 8.87467 47.3333V23.6667C8.87467 22.8821 9.18635 22.1296 9.74115 21.5748C10.2959 21.02 11.0484 20.7083 11.833 20.7083H59.1663C59.9509 20.7083 60.7034 21.02 61.2582 21.5748C61.813 22.1296 62.1247 22.8821 62.1247 23.6667V47.3333ZM35.4997 26.625C33.7444 26.625 32.0285 27.1455 30.569 28.1207C29.1095 29.0959 27.972 30.482 27.3002 32.1037C26.6285 33.7254 26.4528 35.5098 26.7952 37.2314C27.1376 38.953 27.9829 40.5344 29.2241 41.7756C30.4653 43.0168 32.0467 43.862 33.7682 44.2045C35.4898 44.5469 37.2743 44.3711 38.896 43.6994C40.5177 43.0277 41.9038 41.8902 42.879 40.4307C43.8542 38.9712 44.3747 37.2553 44.3747 35.5C44.3747 33.1462 43.4396 30.8888 41.7752 29.2244C40.1109 27.56 37.8535 26.625 35.4997 26.625ZM35.4997 38.4583C34.9146 38.4583 34.3426 38.2848 33.8561 37.9598C33.3696 37.6347 32.9904 37.1727 32.7665 36.6321C32.5426 36.0915 32.484 35.4967 32.5982 34.9228C32.7123 34.349 32.9941 33.8219 33.4078 33.4081C33.8215 32.9944 34.3487 32.7126 34.9225 32.5985C35.4964 32.4844 36.0912 32.5429 36.6318 32.7668C37.1723 32.9908 37.6344 33.3699 37.9594 33.8564C38.2845 34.3429 38.458 34.9149 38.458 35.5C38.458 36.2846 38.1463 37.0371 37.5915 37.5918C37.0367 38.1466 36.2843 38.4583 35.4997 38.4583Z" fill="black"/>
</svg>
