<svg width="50" height="50" viewBox="0 0 50 50" fill="none" xmlns="http://www.w3.org/2000/svg">
<g clip-path="url(#clip0_91_205)">
<path d="M29.167 6.25V14.5833C29.167 15.1359 29.3865 15.6658 29.7772 16.0565C30.1679 16.4472 30.6978 16.6667 31.2503 16.6667H39.5837" stroke="#0F172A" stroke-width="2" stroke-linecap="round" stroke-linejoin="round"/>
<path d="M35.417 43.75H14.5837C13.4786 43.75 12.4188 43.311 11.6374 42.5296C10.856 41.7482 10.417 40.6884 10.417 39.5833V10.4167C10.417 9.3116 10.856 8.25179 11.6374 7.47039C12.4188 6.68899 13.4786 6.25 14.5837 6.25H29.167L39.5837 16.6667V39.5833C39.5837 40.6884 39.1447 41.7482 38.3633 42.5296C37.5819 43.311 36.5221 43.75 35.417 43.75Z" stroke="#0F172A" stroke-width="2" stroke-linecap="round" stroke-linejoin="round"/>
<path d="M18.75 14.5834H20.8333" stroke="#0F172A" stroke-width="2" stroke-linecap="round" stroke-linejoin="round"/>
<path d="M18.75 27.0834H31.25" stroke="#0F172A" stroke-width="2" stroke-linecap="round" stroke-linejoin="round"/>
<path d="M27.083 35.4166H31.2497" stroke="#0F172A" stroke-width="2" stroke-linecap="round" stroke-linejoin="round"/>
</g>
<defs>
<clipPath id="clip0_91_205">
<rect width="50" height="50" fill="white"/>
</clipPath>
</defs>
</svg>
