<svg width="70" height="70" viewBox="0 0 70 70" fill="none" xmlns="http://www.w3.org/2000/svg">
<g clip-path="url(#clip0_91_178)">
<path d="M26.2497 14.5833H20.4163C18.8692 14.5833 17.3855 15.1979 16.2916 16.2919C15.1976 17.3858 14.583 18.8696 14.583 20.4167V55.4167C14.583 56.9638 15.1976 58.4475 16.2916 59.5415C17.3855 60.6354 18.8692 61.25 20.4163 61.25H49.583C51.1301 61.25 52.6138 60.6354 53.7078 59.5415C54.8018 58.4475 55.4163 56.9638 55.4163 55.4167V20.4167C55.4163 18.8696 54.8018 17.3858 53.7078 16.2919C52.6138 15.1979 51.1301 14.5833 49.583 14.5833H43.7497" stroke="#0F172A" stroke-width="2" stroke-linecap="round" stroke-linejoin="round"/>
<path d="M37.9167 8.75H32.0833C28.8617 8.75 26.25 11.3617 26.25 14.5833C26.25 17.805 28.8617 20.4167 32.0833 20.4167H37.9167C41.1383 20.4167 43.75 17.805 43.75 14.5833C43.75 11.3617 41.1383 8.75 37.9167 8.75Z" stroke="#0F172A" stroke-width="2" stroke-linecap="round" stroke-linejoin="round"/>
<path d="M40.8337 32.0833H33.542C32.3817 32.0833 31.2689 32.5443 30.4484 33.3648C29.6279 34.1852 29.167 35.298 29.167 36.4583C29.167 37.6187 29.6279 38.7315 30.4484 39.5519C31.2689 40.3724 32.3817 40.8333 33.542 40.8333H36.4587C37.619 40.8333 38.7318 41.2943 39.5523 42.1148C40.3727 42.9352 40.8337 44.048 40.8337 45.2083C40.8337 46.3687 40.3727 47.4815 39.5523 48.3019C38.7318 49.1224 37.619 49.5833 36.4587 49.5833H29.167" stroke="#0F172A" stroke-width="2" stroke-linecap="round" stroke-linejoin="round"/>
<path d="M35 49.5833V52.5M35 29.1667V32.0833" stroke="#0F172A" stroke-width="2" stroke-linecap="round" stroke-linejoin="round"/>
</g>
<defs>
<clipPath id="clip0_91_178">
<rect width="70" height="70" fill="white"/>
</clipPath>
</defs>
</svg>
