<svg width="56" height="42" viewBox="0 0 56 42" fill="none" xmlns="http://www.w3.org/2000/svg">
<path d="M40.25 31.5C39.2836 31.5 38.5 32.2836 38.5 33.25C38.5 34.2164 39.2836 35 40.25 35H47.25C48.2163 35 49 34.2164 49 33.25C49 32.2836 48.2163 31.5 47.25 31.5H40.25ZM0 9.625C0 4.30927 4.30927 0 9.625 0H46.375C51.6908 0 56 4.30927 56 9.625V32.375C56 37.6908 51.6908 42 46.375 42H9.625C4.30927 42 0 37.6908 0 32.375V9.625ZM9.625 3.5C6.24225 3.5 3.5 6.24225 3.5 9.625V14H52.5V9.625C52.5 6.24225 49.7577 3.5 46.375 3.5H9.625ZM52.5 17.5H3.5V32.375C3.5 35.7578 6.24225 38.5 9.625 38.5H46.375C49.7577 38.5 52.5 35.7578 52.5 32.375V17.5Z" fill="#212121"/>
</svg>
