<svg width="35" height="47" viewBox="0 0 35 47" fill="none" xmlns="http://www.w3.org/2000/svg">
<path d="M11.8004 26.35C11.8004 27.9241 10.5244 29.2 8.95039 29.2C7.37639 29.2 6.10039 27.9241 6.10039 26.35C6.10039 24.776 7.37639 23.5 8.95039 23.5C10.5244 23.5 11.8004 24.776 11.8004 26.35ZM11.8004 34.9C11.8004 36.4741 10.5244 37.75 8.95039 37.75C7.37639 37.75 6.10039 36.4741 6.10039 34.9C6.10039 33.326 7.37639 32.05 8.95039 32.05C10.5244 32.05 11.8004 33.326 11.8004 34.9ZM26.0504 29.2C27.6244 29.2 28.9004 27.9241 28.9004 26.35C28.9004 24.776 27.6244 23.5 26.0504 23.5C24.4763 23.5 23.2004 24.776 23.2004 26.35C23.2004 27.9241 24.4763 29.2 26.0504 29.2ZM28.9004 34.9C28.9004 36.4741 27.6244 37.75 26.0504 37.75C24.4763 37.75 23.2004 36.4741 23.2004 34.9C23.2004 33.326 24.4763 32.05 26.0504 32.05C27.6244 32.05 28.9004 33.326 28.9004 34.9ZM17.5004 29.2C19.0744 29.2 20.3504 27.9241 20.3504 26.35C20.3504 24.776 19.0744 23.5 17.5004 23.5C15.9264 23.5 14.6504 24.776 14.6504 26.35C14.6504 27.9241 15.9264 29.2 17.5004 29.2ZM20.3504 34.9C20.3504 36.4741 19.0744 37.75 17.5004 37.75C15.9264 37.75 14.6504 36.4741 14.6504 34.9C14.6504 33.326 15.9264 32.05 17.5004 32.05C19.0744 32.05 20.3504 33.326 20.3504 34.9ZM10.3754 6.40001C8.01436 6.40001 6.10039 8.31399 6.10039 10.675V13.525C6.10039 15.886 8.01436 17.8 10.3754 17.8H24.6254C26.9863 17.8 28.9004 15.886 28.9004 13.525V10.675C28.9004 8.31399 26.9863 6.40001 24.6254 6.40001H10.3754ZM8.95039 10.675C8.95039 9.88801 9.58839 9.25001 10.3754 9.25001H24.6254C25.4123 9.25001 26.0504 9.88801 26.0504 10.675V13.525C26.0504 14.312 25.4123 14.95 24.6254 14.95H10.3754C9.58839 14.95 8.95039 14.312 8.95039 13.525V10.675ZM34.6004 39.175C34.6004 43.11 31.4104 46.3 27.4754 46.3H7.52539C3.59037 46.3 0.400391 43.11 0.400391 39.175V7.82501C0.400391 3.88999 3.59037 0.700012 7.52539 0.700012H27.4754C31.4104 0.700012 34.6004 3.88999 34.6004 7.82501V39.175ZM31.7504 7.82501C31.7504 5.46399 29.8363 3.55001 27.4754 3.55001H7.52539C5.16436 3.55001 3.25039 5.46399 3.25039 7.82501V39.175C3.25039 41.5359 5.16436 43.45 7.52539 43.45H27.4754C29.8363 43.45 31.7504 41.5359 31.7504 39.175V7.82501Z" fill="#212121"/>
</svg>
