<svg width="1920" height="58" viewBox="0 0 1920 58" fill="none" xmlns="http://www.w3.org/2000/svg">
<path d="M427.582 0.274414H336.061V57.6597H427.582V0.274414Z" fill="#DB2E2E"/>
<path d="M427.582 29.1047H336.061V57.3855H427.582V29.1047Z" fill="#39B742"/>
<path d="M427.582 18.9456H336.061V38.1655H427.582V18.9456Z" fill="white"/>
<path d="M7.8214 0.274414H-83.9756V57.6597H7.8214V0.274414Z" fill="#28292B"/>
<path d="M7.54562 0.274658H-36.561V57.66H7.54562V0.274658Z" fill="#D33131"/>
<path d="M147.834 0.274902H56.0366V57.6602H147.834V0.274902Z" fill="#FF3B45"/>
<path d="M124.953 0.275146H79.1926V57.6605H124.953V0.275146Z" fill="white"/>
<path d="M100.419 38.7149V48.874H102.348V38.4403L111.721 40.6369L110.618 37.3421L119.715 28.8304L117.234 28.2812L118.888 22.2407L113.651 23.0644L112.272 20.3187L107.586 24.9864L108.964 13.729L105.656 15.1018L101.521 8.23755L97.662 15.3764L93.8027 13.1798L95.7324 24.9864L90.7704 19.7695L90.2191 23.0644L84.7057 21.9661L86.6354 27.7321L83.603 28.8304L92.4243 36.7929L91.3217 39.8132L100.419 38.7149Z" fill="#FF3B45"/>
<path d="M707.882 0.274414H616.085V57.6597H707.882V0.274414Z" fill="#2E4593"/>
<path d="M707.882 0.274658H663.775V57.66H707.882V0.274658Z" fill="#F42525"/>
<path d="M677.559 0.274658H646.684V57.1108H677.559V0.274658Z" fill="white"/>
<path d="M567.87 0.274902H476.073V57.6602H567.87V0.274902Z" fill="#43AF50"/>
<path d="M567.87 0.274902H523.763V57.6602H567.87V0.274902Z" fill="#FFA92C"/>
<path d="M537.547 0.274902H506.672V57.1111H537.547V0.274902Z" fill="white"/>
<path d="M287.846 0.274414H196.049V57.6597H287.846V0.274414Z" fill="#43AF50"/>
<path d="M206.248 29.1047L241.809 6.58984L277.646 28.8301L242.361 51.0703L206.248 29.1047Z" fill="#FFF915"/>
<path d="M257.246 28.83C257.246 29.9283 257.246 31.0266 256.971 31.8503C256.695 32.9485 256.419 34.0468 255.868 35.1451C253.387 40.362 248.149 43.9314 242.085 43.9314C233.539 43.9314 226.647 37.0671 226.647 28.5554C226.647 27.1826 226.923 25.5351 227.199 24.1623C227.474 23.064 228.026 21.9657 228.577 20.8674C231.334 16.1997 236.296 13.1794 241.809 13.1794C250.355 13.454 257.246 20.3183 257.246 28.83Z" fill="#39ACC6"/>
<path d="M256.971 31.8503C256.695 32.9486 256.419 34.0469 255.868 35.1452C252.56 31.3012 247.598 28.0063 241.809 26.0843C236.571 24.1624 228.301 24.4369 227.199 24.4369C227.474 23.3386 228.026 22.2404 228.577 21.1421C228.577 21.1421 233.815 20.5929 242.636 22.7895C251.182 25.2606 255.868 30.7521 256.971 31.8503Z" fill="white"/>
<path d="M229.68 21.9658C229.129 21.9658 228.853 22.515 228.853 23.0641C228.853 23.6132 229.129 24.1624 229.68 24.1624C230.231 24.1624 230.507 23.8878 230.507 23.0641C230.507 22.515 230.231 21.9658 229.68 21.9658ZM229.68 23.8878C229.129 23.8878 229.128 23.6132 229.128 23.0641C229.128 22.515 229.404 22.2404 229.68 22.2404C230.231 22.2404 230.231 22.515 230.231 23.0641C230.231 23.6132 229.956 23.8878 229.68 23.8878Z" fill="#43AF50"/>
<path d="M232.161 23.6131C232.161 23.3385 232.161 23.3385 231.885 23.3385C232.161 23.3385 232.161 23.0639 232.161 22.7894C232.161 22.5148 232.161 22.5148 231.885 22.5148C231.885 22.5148 231.609 22.2402 231.334 22.2402C231.058 22.2402 231.058 22.2402 230.782 22.2402V24.1622H231.058V23.3385H231.334C231.609 23.0639 231.609 23.3385 232.161 23.6131C231.885 23.8877 231.885 24.1622 232.161 24.1622H232.436C232.161 23.8877 232.161 23.8877 232.161 23.6131ZM231.334 23.0639L231.058 22.2402C231.058 22.2402 231.058 22.2402 231.334 22.2402C231.609 22.2402 231.885 22.2402 231.885 22.5148C231.885 22.7894 231.609 23.0639 231.334 23.0639Z" fill="#43AF50"/>
<path d="M233.815 22.2404C233.539 21.9658 233.263 21.9658 232.988 21.9658C232.712 21.9658 232.712 21.9658 232.436 21.9658V23.8878C232.436 23.8878 232.712 23.8878 232.988 23.8878C233.263 23.8878 233.815 23.8878 233.815 23.6132C234.09 23.3387 234.09 23.0641 234.09 22.7895C234.09 22.7895 234.09 22.515 233.815 22.2404ZM232.988 23.8878L232.712 22.2404H232.988C233.539 22.2404 233.815 22.515 233.815 23.0641C233.815 23.6132 233.539 23.8878 232.988 23.8878Z" fill="#43AF50"/>
<path d="M234.642 22.2402L234.366 24.1622H235.469V23.8877H234.642V23.0639H235.469V22.7894H234.642V22.2402Z" fill="#43AF50"/>
<path d="M237.674 22.515L237.123 23.3387C237.123 23.6132 236.847 23.8878 236.847 23.8878C236.847 23.6132 236.847 23.3387 236.847 23.0641L236.571 21.9658H236.296L235.744 23.8878H236.02L236.296 23.0641C236.296 22.7895 236.296 22.515 236.571 22.2404C236.571 22.515 236.571 22.7895 236.571 23.0641L236.847 24.1624H237.123L237.674 23.3387C237.674 23.3387 237.674 23.0641 237.674 22.515C237.674 23.0641 237.674 23.3387 237.674 23.6132V24.437H237.95L238.225 22.515H237.674Z" fill="#43AF50"/>
<path d="M241.257 24.1623C240.982 24.4368 240.706 24.4368 240.706 24.7114C240.706 24.4368 240.43 24.1623 240.43 24.1623C240.706 24.1623 240.982 23.8877 240.982 23.6131C240.982 23.3385 240.982 23.064 240.706 23.064C240.43 23.064 240.155 23.064 240.155 23.3385C240.155 23.6131 240.155 23.6131 240.155 23.8877C239.879 23.8877 239.604 24.1622 239.604 24.4368C239.604 24.7114 239.603 24.986 240.155 25.2605C240.43 25.2605 240.706 25.2605 240.706 25.2605V25.5351H240.982C240.982 25.2605 240.706 25.2605 240.706 24.986C240.982 24.7114 240.982 24.4368 241.257 24.1623ZM240.155 23.3385C240.155 23.064 240.43 23.064 240.43 23.064C240.706 23.064 240.706 23.3385 240.706 23.3385C240.706 23.6131 240.43 23.6131 240.155 23.6131C240.155 23.6131 240.155 23.6131 240.155 23.3385ZM240.155 24.986C239.879 24.986 239.879 24.7114 239.879 24.4368C239.879 24.1622 240.155 24.1623 240.155 24.1623C240.155 24.4368 240.43 24.7114 240.43 24.7114C240.43 24.986 240.155 24.986 240.155 24.986Z" fill="#43AF50"/>
<path d="M244.015 24.1623C244.015 24.1623 243.739 23.8877 243.463 23.8877C243.188 23.8877 243.188 23.8877 242.912 23.8877L242.361 25.8097H242.636L242.912 24.986C242.912 24.986 242.912 24.986 243.188 24.986C243.463 24.986 243.739 24.986 243.739 24.986L244.015 24.7114C244.015 24.7114 244.015 24.4368 244.015 24.1623ZM243.739 24.7114C243.739 24.986 243.463 24.986 243.188 24.986H242.912L243.188 24.1623C243.188 24.1623 243.188 24.1623 243.463 24.1623C243.739 24.1623 244.015 24.4368 243.739 24.7114Z" fill="#43AF50"/>
<path d="M245.668 24.986C245.668 24.7114 245.393 24.7114 245.117 24.7114C244.841 24.7114 244.841 24.7114 244.566 24.7114L243.739 26.6334H244.014L244.29 25.8097H244.566C244.841 25.8097 244.841 26.0843 244.841 26.3589C244.841 26.6334 244.841 26.908 244.841 26.908H245.117C245.117 26.908 245.117 26.6334 245.117 26.3589C245.117 26.0843 245.117 26.0843 244.841 25.8097C245.117 25.8097 245.393 25.8097 245.393 25.5351C245.668 25.2606 245.668 24.986 245.668 24.986ZM245.393 25.2606C245.393 25.5351 245.117 25.5351 244.841 25.5351H244.566L244.841 24.7114C244.841 24.7114 244.841 24.7114 245.117 24.7114C245.393 24.7114 245.393 24.986 245.393 25.2606Z" fill="#43AF50"/>
<path d="M247.047 25.2605C246.495 24.986 245.944 25.2605 245.668 25.8097C245.393 26.3588 245.668 26.908 246.22 27.1825C246.771 27.4571 247.322 27.1825 247.598 26.6334C247.598 26.0843 247.598 25.5351 247.047 25.2605ZM247.047 26.3588C246.771 26.908 246.495 26.908 246.22 26.908C245.944 26.6334 245.668 26.3588 245.944 25.8097C246.22 25.5351 246.495 25.2605 246.771 25.2605C247.322 25.5351 247.322 26.0843 247.047 26.3588Z" fill="#43AF50"/>
<path d="M248.976 26.3591C248.425 26.0845 247.874 26.0845 247.598 26.6336C247.322 26.9082 247.322 27.1828 247.598 27.4573C247.598 27.7319 247.874 28.0065 248.149 28.0065C248.425 28.0065 248.701 28.2811 248.701 28.2811L249.252 27.4573L248.701 27.1828V27.4573L248.425 28.0065H248.149C247.598 27.7319 247.598 27.4573 247.874 26.9082C248.149 26.3591 248.425 26.3591 248.976 26.3591C248.976 26.6336 249.252 26.6336 249.252 26.9082L249.528 26.6336C249.528 26.6336 249.252 26.3591 248.976 26.3591Z" fill="#43AF50"/>
<path d="M250.63 28.0065V27.7319C250.63 27.4573 250.355 27.4573 250.355 27.1828C250.079 27.1828 250.079 26.9082 249.803 26.9082L248.701 28.5556H248.976L249.528 27.7319H249.803C250.079 27.7319 250.079 28.0065 249.803 28.2811C249.803 28.5556 249.528 28.5556 249.528 28.8302L249.803 29.1048C249.803 29.1048 249.803 28.8302 250.079 28.5556C250.079 28.2811 250.079 28.2811 250.079 28.0065C250.355 28.2811 250.63 28.2811 250.63 28.0065ZM249.803 28.0065L250.079 27.1828C250.079 27.1828 250.079 27.1828 250.355 27.1828C250.63 27.4573 250.63 27.4573 250.63 27.7319C250.355 28.0065 250.079 28.0065 249.803 28.0065Z" fill="#43AF50"/>
<path d="M251.457 27.7317L250.355 29.3791L251.182 29.9283V29.6537L250.63 29.1045L251.182 28.5554L251.733 29.1045V28.83L251.182 28.2808L251.457 27.7317Z" fill="#43AF50"/>
<path d="M253.112 29.1046C252.836 28.83 252.56 28.83 252.285 29.1046C252.009 29.3792 252.009 29.6537 252.285 29.9283C252.56 30.2029 252.56 30.4775 252.285 30.4775C252.285 30.752 252.009 30.752 251.733 30.4775L251.458 30.2029H251.182C251.182 30.2029 251.458 30.4775 251.458 30.752C251.733 31.0266 252.285 31.0266 252.285 30.752C252.56 30.4775 252.56 30.2029 252.285 29.9283C252.285 29.6537 252.009 29.3792 252.285 29.3792C252.56 29.1046 252.836 29.1046 253.112 29.1046C253.112 29.3792 253.112 29.6538 253.112 29.6538H253.387C253.387 29.3792 253.387 29.3792 253.112 29.1046Z" fill="#43AF50"/>
<path d="M254.214 30.2028C253.938 29.9282 253.663 29.9282 253.387 30.2028C253.111 30.4773 253.111 30.7519 253.387 31.0265C253.387 31.301 253.663 31.5756 253.387 31.5756C253.111 31.8502 253.111 31.8502 252.836 31.5756C252.836 31.5756 252.56 31.301 252.56 31.0265H252.284C252.284 31.0265 252.56 31.301 252.56 31.5756C252.836 31.8502 253.387 31.8502 253.387 31.5756C253.663 31.301 253.663 31.0265 253.387 30.7519C253.387 30.4773 253.111 30.2028 253.387 30.2028C253.663 30.2028 253.938 30.2028 254.214 30.2028C254.214 30.4773 254.214 30.7519 254.214 30.7519H254.49C254.49 30.4773 254.49 30.2028 254.214 30.2028Z" fill="#43AF50"/>
<path d="M255.592 31.3014C255.317 31.0268 254.765 31.0268 254.214 31.3014C253.663 31.8505 253.663 32.3997 254.214 32.6742C254.49 32.9488 255.041 32.9488 255.592 32.6742C255.868 32.3997 255.868 31.8505 255.592 31.3014ZM255.317 32.6742C255.041 32.9488 254.49 33.2234 254.214 32.9488C253.938 32.6742 253.938 32.1251 254.214 31.8505C254.49 31.576 255.041 31.3014 255.317 31.576C255.592 31.8505 255.592 32.1251 255.317 32.6742Z" fill="#43AF50"/>
<path d="M251.457 34.3215C251.182 34.5961 251.457 34.5961 251.457 34.3215C251.182 34.5961 251.182 34.3215 251.182 34.3215C250.906 34.3215 251.182 34.3215 251.457 34.3215Z" fill="white"/>
<path d="M250.079 34.5958C249.803 34.8704 249.803 34.5958 249.803 34.5958C249.528 34.3212 249.803 34.3212 250.079 34.5958C250.079 34.3212 249.803 34.3212 250.079 34.5958Z" fill="white"/>
<path d="M249.804 35.4202C249.528 35.6947 249.528 35.4202 249.528 35.4202C249.528 35.4202 249.528 35.4202 249.804 35.4202Z" fill="white"/>
<path d="M249.528 35.9688C249.528 36.2433 249.528 36.2433 249.528 35.9688C249.252 36.2433 249.252 35.9688 249.252 35.9688C249.252 35.9688 249.252 35.9688 249.528 35.9688Z" fill="white"/>
<path d="M248.976 36.2434C248.976 36.518 248.976 36.518 248.976 36.2434C248.701 36.518 248.701 36.2434 248.701 36.2434C248.701 36.2434 248.701 36.2434 248.976 36.2434Z" fill="white"/>
<path d="M248.149 36.5181C247.874 36.7926 247.874 36.5181 247.874 36.5181C247.874 36.5181 247.874 36.5181 248.149 36.5181Z" fill="white"/>
<path d="M248.701 37.6164C248.425 37.891 248.425 37.6164 248.425 37.6164C248.425 37.6164 248.425 37.3418 248.701 37.6164Z" fill="white"/>
<path d="M248.701 38.4402C248.701 38.7148 248.701 38.7148 248.701 38.4402C248.425 38.7148 248.425 38.4402 248.425 38.4402C248.425 38.4402 248.425 38.4402 248.701 38.4402Z" fill="white"/>
<path d="M245.669 36.5181C245.392 36.5181 245.392 36.7937 245.669 36.5181C245.392 36.5181 245.392 36.5181 245.669 36.5181Z" fill="white"/>
<path d="M244.842 36.5181C244.566 36.5181 244.566 36.7937 244.842 36.5181C244.566 36.5181 244.566 36.5181 244.842 36.5181Z" fill="white"/>
<path d="M245.118 37.6162C244.841 37.8919 245.118 37.8919 245.118 37.6162C244.841 37.8919 244.841 37.8919 245.118 37.6162C244.841 37.6162 244.841 37.6162 245.118 37.6162Z" fill="white"/>
<path d="M241.258 39.2639C240.982 39.5384 240.982 39.2639 240.982 39.2639C240.982 39.2639 240.982 38.9893 241.258 39.2639Z" fill="white"/>
<path d="M241.258 34.8707C240.982 35.1453 240.982 34.8707 240.982 34.8707C240.706 34.5962 240.982 34.5962 241.258 34.8707C241.258 34.5962 240.982 34.5962 241.258 34.8707Z" fill="white"/>
<path d="M242.36 33.4977C242.085 33.7722 242.085 33.4977 242.085 33.4977C242.085 33.2231 242.085 33.2231 242.36 33.4977C242.36 33.2231 242.36 33.2231 242.36 33.4977Z" fill="white"/>
<path d="M240.982 32.1251C240.706 32.3997 240.706 32.1251 240.706 32.1251C240.431 31.8505 240.706 31.8505 240.982 32.1251C240.982 31.8505 240.982 31.8505 240.982 32.1251Z" fill="white"/>
<path d="M239.604 32.9487C239.604 33.2233 239.604 33.2233 239.604 32.9487C239.328 33.2233 239.328 32.9487 239.328 32.9487C239.328 32.9487 239.328 32.6741 239.604 32.9487Z" fill="white"/>
<path d="M244.566 28.5556C244.566 28.8302 244.566 28.8302 244.566 28.5556C244.29 28.8302 244.29 28.5556 244.29 28.5556C244.29 28.5556 244.29 28.2811 244.566 28.5556Z" fill="white"/>
<path d="M245.944 23.064C245.944 23.3385 245.944 23.3385 245.944 23.064C245.668 23.3385 245.668 23.064 245.668 23.064C245.668 23.064 245.668 23.064 245.944 23.064Z" fill="white"/>
<path d="M236.296 29.654C236.02 29.9286 236.02 29.654 236.02 29.654C236.02 29.654 236.02 29.3794 236.296 29.654Z" fill="white"/>
<path d="M234.917 36.5178C234.642 36.7924 234.642 36.5178 234.642 36.5178C234.366 36.5178 234.642 36.2432 234.917 36.5178Z" fill="white"/>
<path d="M232.161 35.4202C232.161 35.6947 232.161 35.6947 232.161 35.4202C231.885 35.6947 231.885 35.4202 231.885 35.4202C231.885 35.4202 231.885 35.4202 232.161 35.4202Z" fill="white"/>
<path d="M232.436 34.3215C232.161 34.5961 232.161 34.3215 232.161 34.3215C231.885 34.3215 232.161 34.3215 232.436 34.3215Z" fill="white"/>
<path d="M231.61 33.2231C231.61 33.4988 231.61 33.4988 231.61 33.2231C231.333 33.4988 231.333 33.4988 231.61 33.2231C231.333 33.2231 231.333 33.2231 231.61 33.2231Z" fill="white"/>
<path d="M229.955 33.4978C229.68 33.7723 229.68 33.4978 229.68 33.4978C229.68 33.4978 229.68 33.2232 229.955 33.4978Z" fill="white"/>
<path d="M228.578 34.322C228.301 34.322 228.301 34.322 228.578 34.322C228.301 34.0463 228.301 34.0463 228.578 34.322C228.578 34.0463 228.578 34.0463 228.578 34.322Z" fill="white"/>
<path d="M228.853 26.3594C228.577 26.6339 228.853 26.6339 228.853 26.3594C228.577 26.6339 228.577 26.3594 228.577 26.3594C228.301 26.3594 228.301 26.3594 228.853 26.3594Z" fill="white"/>
<path d="M987.907 0.274902H896.11V57.6602H987.907V0.274902Z" fill="white"/>
<path d="M987.907 23.6133H896.11V33.4978H987.907V23.6133Z" fill="#2E4593"/>
<path d="M928.914 0.274902H918.99V57.6602H928.914V0.274902Z" fill="#2E4593"/>
<path d="M847.895 0.000244141H756.098V6.31537H847.895V0.000244141Z" fill="#17B3DD"/>
<path d="M847.894 6.31519H756.097V12.6303H847.894V6.31519Z" fill="white"/>
<path d="M847.894 12.905H756.097V19.2202H847.894V12.905Z" fill="#17B3DD"/>
<path d="M847.894 19.2202H756.097V25.5353H847.894V19.2202Z" fill="white"/>
<path d="M847.894 25.5354H756.097V31.8505H847.894V25.5354Z" fill="#17B3DD"/>
<path d="M847.894 32.1252H756.097V38.4404H847.894V32.1252Z" fill="white"/>
<path d="M847.894 38.4402H756.097V44.7553H847.894V38.4402Z" fill="#17B3DD"/>
<path d="M847.894 44.7554H756.097V51.0705H847.894V44.7554Z" fill="white"/>
<path d="M847.894 51.345H756.097V57.6601H847.894V51.345Z" fill="#17B3DD"/>
<path d="M787.524 0.000244141H756.098V32.125H787.524V0.000244141Z" fill="#17B3DD"/>
<path d="M787.523 12.905H756.097V19.2202H787.523V12.905Z" fill="white"/>
<path d="M774.843 0.000244141H768.502V32.125H774.843V0.000244141Z" fill="white"/>
<path d="M1127.64 0.274414H1036.12V57.6597H1127.64V0.274414Z" fill="white"/>
<path d="M1103.11 28.8299C1103.11 40.6365 1093.46 49.9719 1081.88 49.9719C1070.03 49.9719 1060.66 40.6365 1060.66 28.8299C1060.66 17.0234 1070.3 7.68799 1081.88 7.68799C1093.46 7.68799 1103.11 17.298 1103.11 28.8299Z" fill="#DB2E2E"/>
<path d="M1267.66 0.274414H1176.13V57.6597H1267.66V0.274414Z" fill="white"/>
<path d="M1197.55 3.98427L1188.03 13.5259L1190.18 15.6552L1199.7 6.11357L1197.55 3.98427Z" fill="#28292B"/>
<path d="M1201.04 7.18532L1191.51 16.7283L1193.66 18.8573L1203.19 9.31432L1201.04 7.18532Z" fill="#28292B"/>
<path d="M1203.57 10.0545L1194.05 19.5974L1196.2 21.7264L1205.72 12.1835L1203.57 10.0545Z" fill="#28292B"/>
<path d="M1246.89 36.7983L1243.2 40.5002L1245.35 42.6283L1249.04 38.9264L1246.89 36.7983Z" fill="#28292B"/>
<path d="M1240.93 42.4605L1237.24 46.1633L1239.39 48.2908L1243.08 44.588L1240.93 42.4605Z" fill="#28292B"/>
<path d="M1249.93 39.7431L1246.24 43.4456L1248.39 45.5736L1252.08 41.8712L1249.93 39.7431Z" fill="#28292B"/>
<path d="M1244.01 45.6497L1240.32 49.3501L1242.47 51.4791L1246.16 47.7787L1244.01 45.6497Z" fill="#28292B"/>
<path d="M1252.93 42.8864L1249.23 46.5762L1251.37 48.7112L1255.07 45.0214L1252.93 42.8864Z" fill="#28292B"/>
<path d="M1247 48.5846L1243.31 52.2839L1245.46 54.4135L1249.15 50.7142L1247 48.5846Z" fill="#28292B"/>
<path d="M1251.56 9.43425L1249.42 11.5774L1253.14 15.2532L1255.27 13.11L1251.56 9.43425Z" fill="#28292B"/>
<path d="M1245.69 3.47677L1243.55 5.61792L1247.26 9.29736L1249.4 7.15621L1245.69 3.47677Z" fill="#28292B"/>
<path d="M1240.36 8.78641L1242.57 6.58984L1246.43 10.4338L1248.36 12.3558L1252.22 16.1998L1250.01 18.3964L1246.43 14.5524L1244.22 12.3558L1240.36 8.78641Z" fill="#28292B"/>
<path d="M1245.39 15.381L1243.24 17.5154L1246.95 21.2063L1249.09 19.0719L1245.39 15.381Z" fill="#28292B"/>
<path d="M1239.55 9.45622L1237.42 11.5994L1241.13 15.2752L1243.27 13.132L1239.55 9.45622Z" fill="#28292B"/>
<path d="M1194.33 38.7146L1196.53 36.5181L1200.39 40.0875L1202.32 42.2841L1206.18 46.128L1203.98 48.05L1200.39 44.4806L1198.19 42.2841L1194.33 38.7146Z" fill="#28292B"/>
<path d="M1199.22 45.3214L1197.09 47.4648L1200.8 51.1406L1202.94 48.9972L1199.22 45.3214Z" fill="#28292B"/>
<path d="M1193.38 39.5814L1191.25 41.7244L1194.96 45.4007L1197.1 43.2577L1193.38 39.5814Z" fill="#28292B"/>
<path d="M1188.26 44.7554L1190.47 42.5588L1194.05 46.4028L1196.26 48.3248L1200.12 52.1688L1197.91 54.3654L1194.05 50.5214L1192.12 48.3248L1188.26 44.7554Z" fill="#28292B"/>
<path d="M1238.43 28.2807C1238.43 37.3416 1231.27 44.4804 1222.17 44.4804C1213.07 44.4804 1205.91 37.3416 1205.91 28.2807C1205.91 19.2199 1213.07 12.0811 1222.17 12.0811C1231.27 12.0811 1238.43 19.4945 1238.43 28.2807Z" fill="#2E4593"/>
<path d="M1238.43 28.2807C1238.43 29.1044 1238.43 29.9282 1238.16 30.4773C1237.61 27.1825 1235.95 21.4165 1229.34 21.4165C1224.38 21.4165 1222.72 23.613 1221.62 26.0842C1220.24 29.6536 1219.96 34.3213 1213.35 34.3213C1208.66 34.3213 1206.46 31.5756 1205.63 28.5553V28.2807C1205.63 25.535 1206.18 23.0639 1207.56 20.5928C1210.32 15.3759 1215.83 12.0811 1221.89 12.0811C1230.99 12.0811 1238.43 19.4945 1238.43 28.2807Z" fill="#DB2E2E"/>
<path d="M1407.67 0.274414H1316.15V57.6597H1407.67V0.274414Z" fill="#F7EB1C"/>
<path d="M1407.67 28.0063H1316.15V57.66H1407.67V28.0063Z" fill="#DB2E2E"/>
<path d="M1407.67 18.9453H1316.15V38.1653H1407.67V18.9453Z" fill="#218F36"/>
<path d="M1547.68 0.274414H1456.16V57.6597H1547.68V0.274414Z" fill="#E83434"/>
<path d="M1547.68 28.0063H1456.16V57.66H1547.68V28.0063Z" fill="#6BB8ED"/>
<path d="M1547.68 18.9453H1456.16V38.1653H1547.68V18.9453Z" fill="white"/>
<path d="M1967.99 0.274414H1876.2V57.6597H1967.99V0.274414Z" fill="white"/>
<path d="M1968.27 0.274414H1876.47V28.8298H1968.27V0.274414Z" fill="#E22B2B"/>
<path d="M1687.69 0.274414H1596.17V57.6597H1687.69V0.274414Z" fill="#E83434"/>
<path d="M1687.69 28.0063H1596.17V57.66H1687.69V28.0063Z" fill="#43AF50"/>
<path d="M1687.69 18.9453H1596.17V38.1653H1687.69V18.9453Z" fill="#28292B"/>
<path d="M1648.82 25.8098L1652.68 31.5758L1646.34 29.1047L1652.96 27.4572L1648.55 32.6741L1648.82 25.8098Z" fill="white"/>
<path d="M1647.17 32.6741C1646.07 34.8707 1644.14 35.6944 1641.66 35.6944C1637.8 35.6944 1634.76 32.6741 1634.76 28.8301C1634.76 24.9861 1637.8 21.9658 1641.66 21.9658C1644.69 21.9658 1646.89 23.3387 1647.72 25.8098C1646.62 24.1624 1645.24 23.3387 1643.03 23.3387C1640 23.3387 1637.25 25.8098 1637.25 29.1047C1637.25 32.1249 1639.73 34.8707 1643.03 34.8707C1644.96 34.3215 1646.07 34.0469 1647.17 32.6741Z" fill="white"/>
<path d="M1827.98 0.274414H1736.18V57.6597H1827.98V0.274414Z" fill="#FFF915"/>
<path d="M1827.98 0.274414H1736.18V28.8298H1827.98V0.274414Z" fill="#25BBEF"/>
</svg>
