<svg width="1920" height="600" viewBox="0 0 1920 600" fill="none" xmlns="http://www.w3.org/2000/svg">
<rect width="1920" height="600" fill="#3563E9"/>
<path d="M923.323 309.745H831.802V377.816H923.323V309.745Z" fill="#28292B"/>
<path d="M923.323 342.315H831.802V377.49H923.323V342.315Z" fill="#FFF915"/>
<path d="M923.323 331.892H831.802V354.691H923.323V331.892Z" fill="#DD3131"/>
<path d="M783.586 309.745H691.79V377.816H783.586V309.745Z" fill="#F42525"/>
<path d="M710.534 328.961L713.015 337.104L706.951 331.892L701.162 337.104L703.643 328.961L697.302 324.076H704.745L706.951 315.607L709.156 324.076H716.599L710.534 328.961Z" fill="white"/>
<path d="M727.075 337.429L727.35 335.801L727.902 337.429L727.35 339.058L727.075 337.429Z" fill="white"/>
<path d="M727.902 337.429H729.28L728.177 338.406H726.799L727.902 337.429Z" fill="white"/>
<path d="M728.177 338.406L728.729 340.035L727.35 339.057L727.075 337.429L728.177 338.406Z" fill="white"/>
<path d="M727.075 337.429H725.421L726.799 338.406H728.177L727.075 337.429Z" fill="white"/>
<path d="M726.799 338.406L726.248 340.035L727.35 339.057L727.902 337.429L726.799 338.406Z" fill="white"/>
<path d="M720.183 345.897L720.735 344.594L721.011 346.223L720.183 347.526V345.897Z" fill="white"/>
<path d="M721.01 346.223L722.388 346.875L721.01 347.2L719.632 346.875L721.01 346.223Z" fill="white"/>
<path d="M721.011 347.2V349.154L720.183 347.526V345.897L721.011 347.2Z" fill="white"/>
<path d="M720.183 345.897L718.529 345.572L719.632 346.875L721.01 347.2L720.183 345.897Z" fill="white"/>
<path d="M719.632 346.875L718.805 348.177L720.183 347.526L721.01 346.223L719.632 346.875Z" fill="white"/>
<path d="M728.729 326.681L729.831 325.704L729.556 327.333L728.453 328.31L728.729 326.681Z" fill="white"/>
<path d="M729.556 327.333L730.658 328.31H729.28L728.177 327.333H729.556Z" fill="white"/>
<path d="M729.28 328.31L729.004 330.264L728.453 328.635L728.729 327.007L729.28 328.31Z" fill="white"/>
<path d="M728.728 326.681L727.625 325.704L728.177 327.333L729.279 328.31L728.728 326.681Z" fill="white"/>
<path d="M728.177 327.333L726.799 328.636H728.453L729.555 327.333H728.177Z" fill="white"/>
<path d="M724.318 316.91L725.145 315.282L725.421 317.236L724.594 318.539L724.318 316.91Z" fill="white"/>
<path d="M725.42 317.236L726.799 317.562L725.42 318.213L724.042 317.562L725.42 317.236Z" fill="white"/>
<path d="M725.421 318.213V320.167L724.594 318.539L724.318 316.91L725.421 318.213Z" fill="white"/>
<path d="M724.593 316.91L722.939 316.259L724.042 317.887L725.42 318.213L724.593 316.91Z" fill="white"/>
<path d="M724.042 317.887L722.939 319.19L724.593 318.539L725.42 317.236L724.042 317.887Z" fill="white"/>
<path d="M1063.61 309.745H971.814V377.816H1063.61V309.745Z" fill="#DD3131"/>
<path d="M1063.61 338.406H971.814V348.503H1063.61V338.406Z" fill="white"/>
<path d="M1003.52 309.745H994.97V377.816H1003.52V309.745Z" fill="white"/>
<path d="M1903.68 309.745V377.816H1811.89V309.745H1903.68Z" fill="#2E4593"/>
<path d="M1903.68 370.65V377.816H1894.04L1865.92 356.971L1863.16 354.691L1859.85 352.411L1858.75 351.434L1855.17 348.829L1854.06 347.852L1852.96 347.2L1850.76 345.572L1850.2 345.246L1849.1 344.269L1839.18 337.103L1834.49 333.521L1811.89 316.91V309.745H1812.16H1821.54L1850.2 330.915L1852.96 333.195L1853.79 333.521L1858.2 337.103L1858.75 337.429L1860.4 338.732L1863.16 340.686L1863.44 341.012L1865.92 342.64L1868.12 344.269L1874.46 348.829L1878.87 352.411L1903.68 370.65Z" fill="#FCF5FF"/>
<path d="M1903.68 377.49V377.816H1897.34L1865.92 354.366L1863.16 352.411V352.086L1860.4 350.131L1858.75 348.829L1855.72 346.874L1852.96 344.595L1852.41 344.269L1850.76 342.966L1850.2 342.64L1842.49 337.103L1838.08 333.521L1811.89 314.304V309.745H1812.16L1844.42 333.521L1848.83 337.103L1850.2 337.755L1852.96 340.035L1854.06 340.686L1855.72 341.989L1858.75 344.269L1863.16 347.526L1863.44 347.852L1865.09 348.829L1865.92 349.48L1869.5 352.411L1903.68 377.49Z" fill="#F42525"/>
<path d="M1903.68 311.047V318.213L1882.73 333.521L1878.05 337.103L1868.12 344.269L1865.92 346.223L1863.44 347.852L1863.16 348.177L1862.06 348.829L1860.4 350.131L1858.75 351.434L1857.37 352.411L1852.96 355.668L1850.2 357.623L1823.19 377.816H1811.89V371.953L1838.35 352.411L1842.76 348.829L1849.1 344.269L1850.2 343.617L1850.76 342.966L1852.96 341.663L1854.06 340.686L1858.75 337.429L1859.03 337.103L1863.16 333.846L1863.44 333.521L1865.92 331.892L1895.97 309.745H1902.86L1903.68 311.047Z" fill="#FCF5FF"/>
<path d="M1903.41 311.373L1873.36 333.521L1868.95 337.103L1865.92 339.058L1863.44 341.012L1863.16 341.338L1858.75 344.269L1855.72 346.874L1854.06 347.852L1852.96 348.829H1852.69L1850.2 350.783L1848.27 352.411L1813.82 377.816H1811.89V374.559L1841.93 352.411L1846.35 348.829L1850.2 346.223L1850.76 345.572L1852.41 344.269L1852.96 343.943L1855.72 341.989L1860.4 338.732L1862.61 337.103L1863.16 336.452L1865.92 334.498L1867.02 333.521L1899.27 309.745H1902.58H1903.68V311.373H1903.41Z" fill="#F42525"/>
<path d="M1903.68 333.521H1811.89V352.086H1903.68V333.521Z" fill="white"/>
<path d="M1903.68 337.103H1811.89V349.154H1903.68V337.103Z" fill="#F42525"/>
<path d="M1863.16 309.745H1852.96V377.816H1863.16V309.745Z" fill="#CD002A"/>
<path d="M1863.16 352.411H1865.92V377.816H1850.2V352.411H1852.96V333.521H1850.2V309.745H1865.92V333.521H1863.16V352.411Z" fill="white"/>
<path d="M1863.16 309.745H1852.96V377.816H1863.16V309.745Z" fill="#F42525"/>
<path d="M1623.38 309.745H1531.86V377.816H1623.38V309.745Z" fill="#2E4593"/>
<path d="M1623.38 342.64H1531.86V377.816H1623.38V342.64Z" fill="#2E4593"/>
<path d="M1623.38 331.892H1531.86V354.691H1623.38V331.892Z" fill="white"/>
<path d="M1579.83 343.943L1580.66 346.549L1578.73 344.92L1577.07 346.549L1577.9 343.943L1575.97 342.641H1578.18L1578.73 340.035L1579.55 342.641H1581.76L1579.83 343.943Z" fill="#2E4593"/>
<path d="M1568.25 337.429L1568.8 340.035L1567.15 338.406L1565.49 340.035L1566.05 337.429L1564.39 335.801H1566.6L1567.15 333.521L1567.7 335.801H1569.91L1568.25 337.429Z" fill="#2E4593"/>
<path d="M1568.25 350.783L1568.8 353.063L1567.15 351.76L1565.49 353.063L1566.05 350.783L1564.39 349.154H1566.6L1567.15 346.874L1567.7 349.154H1569.9L1568.25 350.783Z" fill="#2E4593"/>
<path d="M1590.86 337.429L1591.68 340.035L1589.75 338.406L1588.1 340.035L1588.93 337.429L1587 335.801H1589.2L1589.75 333.521L1590.58 335.801H1592.79L1590.86 337.429Z" fill="#2E4593"/>
<path d="M1590.86 350.783L1591.68 353.063L1589.75 351.76L1588.1 353.063L1588.93 350.783L1587 349.154H1589.2L1589.75 346.875L1590.58 349.154H1592.79L1590.86 350.783Z" fill="#2E4593"/>
<path d="M360.832 309.745H269.311V377.816H360.832V309.745Z" fill="#FF9A15"/>
<path d="M360.832 342.641H269.311V377.816H360.832V342.641Z" fill="#37AA41"/>
<path d="M360.832 331.892H269.311V354.691H360.832V331.892Z" fill="white"/>
<path d="M318.103 344.269L323.065 347.2L317.828 344.92C317.828 344.92 317.828 344.92 317.828 345.246L322.238 349.155L317.552 345.898C317.552 345.898 317.552 345.898 317.552 346.223L321.411 351.109L317.276 346.875L320.309 352.412L317.001 347.2C317.001 347.2 317.001 347.2 316.725 347.2L318.655 353.389L316.449 347.526C316.449 347.526 316.449 347.526 316.174 347.526L317.001 354.04L315.622 347.852C315.622 347.852 315.622 347.852 315.347 347.852L315.071 354.366L314.795 347.852L313.417 354.366L314.244 347.852C314.244 347.852 314.244 347.852 313.968 347.852L311.487 353.714L313.417 347.526L310.109 352.737L312.866 347.2C312.866 347.2 312.866 347.2 312.59 347.2L308.455 351.76L312.314 346.875L307.628 350.457L312.039 346.549C312.039 346.549 312.039 346.549 312.039 346.223L306.801 348.503L311.763 345.572L306.25 346.549L311.487 344.92V344.595L305.974 344.269L311.487 343.943C311.487 343.943 311.487 343.943 311.487 343.618L306.25 342.315L311.763 343.292C311.763 343.292 311.763 343.292 311.763 342.966L306.801 340.361L312.039 342.641L307.628 338.732L312.314 341.989C312.314 341.989 312.314 341.989 312.314 341.663L308.455 336.778L312.59 341.338L309.558 335.801L312.866 341.012C312.866 341.012 312.866 341.012 313.141 341.012L311.212 334.824L313.417 340.686C313.417 340.686 313.417 340.686 313.693 340.686L312.866 334.172L314.244 340.361H314.52L314.795 333.847L315.071 340.361C315.071 340.361 315.071 340.361 315.347 340.361L316.725 334.172L315.898 340.686H316.174L318.379 334.824L316.449 341.012L319.757 335.801L317.001 341.338C317.001 341.338 317.001 341.338 317.276 341.338L321.411 336.778L317.552 341.663L322.238 338.081L317.828 341.989C317.828 341.989 317.828 341.989 317.828 342.315L323.065 340.035L318.103 342.966L323.617 341.989L318.379 343.618C318.379 343.618 318.379 343.618 318.379 343.943L323.892 344.269L318.379 344.595L323.892 346.223L318.103 344.269Z" fill="#2D3A8E"/>
<path d="M315.071 354.04C310.109 354.04 305.974 349.155 305.974 343.292C305.974 337.429 310.109 332.544 315.071 332.544C320.033 332.544 324.168 337.429 324.168 343.292C323.892 349.155 320.033 354.04 315.071 354.04ZM315.071 333.521C310.385 333.521 306.525 338.081 306.525 343.618C306.525 349.155 310.385 353.714 315.071 353.714C319.758 353.714 323.617 349.155 323.617 343.618C323.617 338.081 319.482 333.521 315.071 333.521Z" fill="#2D3A8E"/>
<path d="M1763.67 309.745H1671.88V377.816H1763.67V309.745Z" fill="#218F36"/>
<path d="M1716.81 343.292L1714.33 345.246L1673.53 377.49H1671.88V309.745L1714.6 341.989L1716.81 343.292Z" fill="#28292B"/>
<path d="M1763.4 309.745V377.49H1760.92L1755.4 371.953L1720.39 345.572L1717.64 343.617L1718.74 343.292L1720.67 341.989L1763.4 309.745Z" fill="#28292B"/>
<path d="M1763.4 373.908V377.49H1758.16L1717.64 347.526L1714.33 345.246L1712.4 343.618L1671.88 313.653V309.745H1677.11L1717.64 339.709L1720.67 341.989L1722.87 343.618L1763.4 373.908Z" fill="#FFF800"/>
<path d="M1763.67 309.745H1763.4V313.653L1722.87 343.618L1720.39 345.572L1717.64 347.526L1677.11 377.49H1671.88V373.582L1712.4 343.618L1714.6 341.989L1717.64 339.709L1758.16 309.745H1763.4H1763.67Z" fill="#FFF800"/>
<path d="M1203.62 309.745H1111.83V377.816H1203.62V309.745Z" fill="#43AF50"/>
<path d="M1203.35 309.745H1159.24V377.816H1203.35V309.745Z" fill="#DD2F2F"/>
<path d="M1173.02 309.745H1142.15V377.164H1173.02V309.745Z" fill="#FFF915"/>
<path d="M1343.36 309.745H1251.84V377.816H1343.36V309.745Z" fill="#DD2F2F"/>
<path d="M1343.36 343.943H1251.84V377.49H1343.36V343.943Z" fill="#2E4593"/>
<path d="M1343.36 331.892H1251.84V354.691H1343.36V331.892Z" fill="white"/>
<path d="M1483.65 309.745H1391.85V377.816H1483.65V309.745Z" fill="#DD2F2F"/>
<path d="M1483.65 337.429H1391.85V349.154H1483.65V337.429Z" fill="white"/>
<path d="M1424.65 309.744H1414.73V377.816H1424.65V309.744Z" fill="white"/>
<path d="M1422.73 309.744H1416.66V377.816H1422.73V309.744Z" fill="#2E4593"/>
<path d="M1483.65 339.383H1391.85V347.2H1483.65V339.383Z" fill="#2E4593"/>
<path d="M220.82 309.745H129.299V377.816H220.82V309.745Z" fill="#E53030"/>
<path d="M173.405 336.126L181.951 351.109L167.892 344.92L182.227 340.361L172.854 354.04L173.405 336.126Z" fill="white"/>
<path d="M169.821 353.714C167.065 358.926 163.481 361.205 157.968 361.205C149.422 361.205 142.806 353.063 142.806 343.292C142.806 333.521 149.698 325.378 157.968 325.378C164.308 325.378 168.994 328.961 171.475 335.475C169.27 330.915 165.962 328.961 161.276 328.961C154.384 328.961 148.871 335.475 148.871 343.618C148.871 351.76 154.384 358.274 161.276 358.274C165.135 358.274 167.616 357.297 169.821 353.714Z" fill="white"/>
<path d="M81.0836 309.745H-10.7134V377.816H81.0836V309.745Z" fill="#65C3FC"/>
<path d="M40.5606 345.246L44.1442 357.623L35.3229 349.806L26.5016 357.623L30.0852 345.246H30.3609L21.2639 338.081H32.0149L35.0472 325.704L38.3552 338.081H49.3819L40.2849 345.246H40.5606Z" fill="white"/>
<path d="M503.877 330.667H409.323V335.878H503.877V330.667Z" fill="#DB2E2E"/>
<path d="M503.877 319.919H409.323V325.13H503.877V319.919Z" fill="#DB2E2E"/>
<path d="M503.877 309.496H409.323V314.708H503.877V309.496Z" fill="#DB2E2E"/>
<path d="M503.877 341.089H409.323V346.3H503.877V341.089Z" fill="#DB2E2E"/>
<path d="M503.877 351.837H409.323V357.048H503.877V351.837Z" fill="#DB2E2E"/>
<path d="M503.877 362.585H409.323V367.797H503.877V362.585Z" fill="#DB2E2E"/>
<path d="M503.877 373.008H409.323V378.219H503.877V373.008Z" fill="#DB2E2E"/>
<path d="M503.877 325.13H409.323V330.341H503.877V325.13Z" fill="white"/>
<path d="M503.877 314.707H409.323V319.918H503.877V314.707Z" fill="white"/>
<path d="M503.877 335.878H409.323V341.089H503.877V335.878Z" fill="white"/>
<path d="M503.877 346.626H409.323V351.837H503.877V346.626Z" fill="white"/>
<path d="M503.877 357.048H409.323V362.26H503.877V357.048Z" fill="white"/>
<path d="M503.877 367.796H409.323V373.007H503.877V367.796Z" fill="white"/>
<path d="M444.609 309.496H409.323V341.741H444.609V309.496Z" fill="#2E4593"/>
<path d="M438.82 316.01L439.095 316.987L438.268 316.336L437.441 316.987L437.717 316.01L436.89 315.033H437.993L438.268 314.056L438.544 315.033H439.647L438.82 316.01Z" fill="white"/>
<path d="M438.82 322.524L439.095 323.501L438.268 322.85L437.441 323.501L437.717 322.524L436.89 321.547H437.993L438.268 320.244L438.544 321.547H439.647L438.82 322.524Z" fill="white"/>
<path d="M438.82 329.038L439.095 330.015L438.268 329.364L437.441 330.015L437.717 329.038V328.712L436.89 328.061H437.993L438.268 326.758L438.544 328.061H439.647L438.82 328.712V329.038Z" fill="white"/>
<path d="M438.82 335.226L439.095 336.529L438.268 335.878L437.441 336.529L437.717 335.226L436.89 334.575H437.993L438.268 333.272L438.544 334.575H439.647L438.82 335.226Z" fill="white"/>
<path d="M433.031 316.01L433.306 316.987L432.479 316.336L431.652 316.987L431.928 316.01L431.101 315.033H432.204L432.479 314.056L432.755 315.033H433.858L433.031 316.01Z" fill="white"/>
<path d="M433.031 322.524L433.306 323.501L432.479 322.85L431.652 323.501L431.928 322.524L431.101 321.547H432.204L432.479 320.244L432.755 321.547H433.858L433.031 322.524Z" fill="white"/>
<path d="M433.031 329.038L433.306 330.015L432.479 329.364L431.652 330.015L431.928 329.038V328.712L431.101 328.061H432.204L432.479 326.758L432.755 328.061H433.858L433.031 328.712V329.038Z" fill="white"/>
<path d="M433.031 335.226L433.306 336.529L432.479 335.878L431.652 336.529L431.928 335.226L431.101 334.575H432.204L432.479 333.272L432.755 334.575H433.858L433.031 335.226Z" fill="white"/>
<path d="M427.242 316.01L427.517 316.987L426.69 316.336L425.587 316.987L426.139 316.01L425.036 315.033H426.414L426.69 314.056L426.966 315.033H428.068L427.242 316.01Z" fill="white"/>
<path d="M427.242 322.524L427.517 323.501L426.69 322.85L425.587 323.501L426.139 322.524L425.036 321.547H426.414L426.69 320.244L426.966 321.547H428.068L427.242 322.524Z" fill="white"/>
<path d="M427.242 329.038L427.517 330.015L426.69 329.364L425.587 330.015L426.139 329.038V328.712L425.036 328.061H426.414L426.69 326.758L426.966 328.061H428.068L427.242 328.712V329.038Z" fill="white"/>
<path d="M427.242 335.226L427.517 336.529L426.69 335.878L425.587 336.529L426.139 335.226L425.036 334.575H426.414L426.69 333.272L426.966 334.575H428.068L427.242 335.226Z" fill="white"/>
<path d="M421.453 316.01L421.728 316.987L420.901 316.336L420.074 316.987L420.35 316.01L419.523 315.033H420.626L420.901 314.056L421.177 315.033H422.28L421.453 316.01Z" fill="white"/>
<path d="M421.452 322.524L421.728 323.501L420.901 322.85L420.074 323.501L420.35 322.524L419.523 321.547H420.625L420.901 320.244L421.177 321.547H422.279L421.452 322.524Z" fill="white"/>
<path d="M421.452 329.038L421.728 330.015L420.901 329.363L420.074 330.015L420.35 329.038V328.712L419.523 328.061H420.625L420.901 326.758L421.177 328.061H422.279L421.452 328.712V329.038Z" fill="white"/>
<path d="M421.452 335.226L421.728 336.529L420.901 335.878L420.074 336.529L420.35 335.226L419.523 334.575H420.625L420.901 333.272L421.177 334.575H422.279L421.452 335.226Z" fill="white"/>
<path d="M415.664 316.01L415.939 316.987L415.112 316.336L414.285 316.987L414.561 316.01L413.734 315.033H414.837L415.112 314.056L415.388 315.033H416.491L415.664 316.01Z" fill="white"/>
<path d="M415.663 322.524L415.939 323.501L415.112 322.85L414.285 323.501L414.561 322.524L413.734 321.547H414.836L415.112 320.244L415.388 321.547H416.49L415.663 322.524Z" fill="white"/>
<path d="M415.663 329.038L415.939 330.015L415.112 329.363L414.285 330.015L414.561 329.038V328.712L413.734 328.061H414.836L415.112 326.758L415.388 328.061H416.49L415.663 328.712V329.038Z" fill="white"/>
<path d="M415.663 335.226L415.939 336.529L415.112 335.878L414.285 336.529L414.561 335.226L413.734 334.575H414.836L415.112 333.272L415.388 334.575H416.49L415.663 335.226Z" fill="white"/>
<path d="M441.577 319.267L442.128 320.244L441.025 319.593L440.198 320.244L440.474 319.267H440.75L439.647 318.29H440.75L441.025 316.987L441.577 318.29H442.679L441.577 319.267Z" fill="white"/>
<path d="M441.577 325.781L442.128 326.758L441.025 326.107L440.198 326.758L440.474 325.781H440.75L439.647 324.804H440.75L441.025 323.501L441.577 324.804H442.679L441.577 325.781Z" fill="white"/>
<path d="M441.577 331.969L442.128 333.272L441.025 332.621L440.198 333.272L440.474 331.969H440.75L439.647 331.318H440.75L441.025 330.015L441.577 331.318H442.679L441.577 331.969Z" fill="white"/>
<path d="M441.577 338.483L442.128 339.786L441.025 339.135L440.198 339.786L440.474 338.483H440.75L439.647 337.832H440.75L441.025 336.529L441.577 337.832H442.679L441.577 338.483Z" fill="white"/>
<path d="M441.576 312.753L442.128 314.056L441.025 313.079L440.198 314.056L440.474 312.753H440.749L439.647 311.776H440.749L441.025 310.799L441.576 311.776V312.102V311.776H442.679L441.576 312.753Z" fill="white"/>
<path d="M436.063 319.267L436.339 320.244L435.512 319.593L434.409 320.244L434.961 319.267L433.858 318.29H434.961L435.512 316.987L435.788 318.29H436.89L436.063 319.267Z" fill="white"/>
<path d="M436.063 325.781L436.339 326.758L435.512 326.107L434.409 326.758L434.961 325.781L433.858 324.804H434.961L435.512 323.501L435.788 324.804H436.89L436.063 325.781Z" fill="white"/>
<path d="M436.063 331.969L436.339 333.272L435.512 332.621L434.409 333.272L434.961 331.969L433.858 331.318H434.961L435.512 330.015L435.788 331.318H436.89L436.063 331.969Z" fill="white"/>
<path d="M436.063 338.483L436.339 339.786L435.512 339.135L434.409 339.786L434.961 338.483L433.858 337.832H434.961L435.512 336.529L435.788 337.832H436.89L436.063 338.483Z" fill="white"/>
<path d="M436.063 312.753L436.339 314.056L435.512 313.079L434.409 314.056L434.96 312.753L433.858 311.776H434.96L435.512 310.799L435.787 311.776V312.102V311.776H436.89L436.063 312.753Z" fill="white"/>
<path d="M429.998 319.267L430.274 320.244L429.447 319.593L428.62 320.244L428.896 319.267L428.069 318.29H429.171L429.447 316.987L429.723 318.29H430.825L429.998 319.267Z" fill="white"/>
<path d="M429.998 325.781L430.274 326.758L429.447 326.107L428.62 326.758L428.896 325.781L428.069 324.804H429.171L429.447 323.501L429.723 324.804H430.825L429.998 325.781Z" fill="white"/>
<path d="M429.998 331.969L430.274 333.272L429.447 332.621L428.62 333.272L428.896 331.969L428.069 331.318H429.171L429.447 330.015L429.723 331.318H430.825L429.998 331.969Z" fill="white"/>
<path d="M429.998 338.483L430.274 339.786L429.447 339.135L428.62 339.786L428.896 338.483L428.069 337.832H429.171L429.447 336.529L429.723 337.832H430.825L429.998 338.483Z" fill="white"/>
<path d="M429.998 312.753L430.274 314.056L429.447 313.079L428.62 314.056L428.896 312.753L428.069 311.776H429.171L429.447 310.799L429.723 311.776V312.102V311.776H430.825L429.998 312.753Z" fill="white"/>
<path d="M424.209 319.267L424.485 320.244L423.658 319.593L422.831 320.244L423.107 319.267L422.28 318.29H423.382L423.658 316.987L423.934 318.29H425.036L424.209 319.267Z" fill="white"/>
<path d="M424.209 325.781L424.485 326.758L423.658 326.107L422.831 326.758L423.107 325.781L422.28 324.804H423.382L423.658 323.501L423.934 324.804H425.036L424.209 325.781Z" fill="white"/>
<path d="M424.209 331.969L424.485 333.272L423.658 332.621L422.831 333.272L423.107 331.969L422.28 331.318H423.382L423.658 330.015L423.934 331.318H425.036L424.209 331.969Z" fill="white"/>
<path d="M424.209 338.483L424.485 339.786L423.658 339.135L422.831 339.786L423.107 338.483L422.28 337.832H423.382L423.658 336.529L423.934 337.832H425.036L424.209 338.483Z" fill="white"/>
<path d="M424.209 312.753L424.485 314.056L423.658 313.079L422.831 314.056L423.107 312.753L422.28 311.776H423.382L423.658 310.799L423.934 311.776V312.102V311.776H425.036L424.209 312.753Z" fill="white"/>
<path d="M418.421 319.267L418.972 320.244L417.869 319.593L417.042 320.244L417.318 319.267H417.594L416.491 318.29H417.594L417.869 316.987L418.421 318.29H419.523L418.421 319.267Z" fill="white"/>
<path d="M418.421 325.781L418.972 326.758L417.869 326.107L417.042 326.758L417.318 325.781H417.594L416.491 324.804H417.594L417.869 323.501L418.421 324.804H419.523L418.421 325.781Z" fill="white"/>
<path d="M418.421 331.969L418.972 333.272L417.869 332.621L417.042 333.272L417.318 331.969H417.594L416.491 331.318H417.594L417.869 330.015L418.421 331.318H419.523L418.421 331.969Z" fill="white"/>
<path d="M418.421 338.483L418.972 339.786L417.869 339.135L417.042 339.786L417.318 338.483H417.594L416.491 337.832H417.594L417.869 336.529L418.421 337.832H419.523L418.421 338.483Z" fill="white"/>
<path d="M418.421 312.753L418.972 314.056L417.869 313.079L417.042 314.056L417.318 312.753H417.594L416.491 311.776H417.594L417.869 310.799L418.421 311.776V312.102V311.776H419.523L418.421 312.753Z" fill="white"/>
<path d="M412.632 319.267L413.183 320.244L412.08 319.593L411.253 320.244L411.805 319.267L410.702 318.29H411.805L412.08 316.987L412.632 318.29H413.734L412.632 319.267Z" fill="white"/>
<path d="M412.632 325.781L413.183 326.758L412.08 326.107L411.253 326.758L411.805 325.781L410.702 324.804H411.805L412.08 323.501L412.632 324.804H413.734L412.632 325.781Z" fill="white"/>
<path d="M412.632 331.969L413.183 333.272L412.08 332.621L411.253 333.272L411.805 331.969L410.702 331.318H411.805L412.08 330.015L412.632 331.318H413.734L412.632 331.969Z" fill="white"/>
<path d="M412.632 338.483L413.183 339.786L412.08 339.135L411.253 339.786L411.805 338.483L410.702 337.832H411.805L412.08 336.529L412.632 337.832H413.734L412.632 338.483Z" fill="white"/>
<path d="M412.631 312.753L413.183 314.056L412.08 313.079L411.253 314.056L411.804 312.753L410.702 311.776H411.804L412.08 310.799L412.631 311.776V312.102V311.776H413.734L412.631 312.753Z" fill="white"/>
<path d="M643.299 309.745H551.777V377.816H643.299V309.745Z" fill="#FDFFFF"/>
<path d="M643.299 342.641H551.777V377.816H643.299V342.641Z" fill="#DB2E2E"/>
<path d="M643.299 332.218H551.777V355.017H643.299V332.218Z" fill="#3C5EBF"/>
<path d="M427.582 415.274H336.061V472.66H427.582V415.274Z" fill="#DB2E2E"/>
<path d="M427.582 444.105H336.061V472.386H427.582V444.105Z" fill="#39B742"/>
<path d="M427.582 433.946H336.061V453.166H427.582V433.946Z" fill="white"/>
<path d="M7.8214 415.274H-83.9756V472.66H7.8214V415.274Z" fill="#28292B"/>
<path d="M7.54562 415.275H-36.561V472.66H7.54562V415.275Z" fill="#D33131"/>
<path d="M147.834 415.275H56.0366V472.66H147.834V415.275Z" fill="#FF3B45"/>
<path d="M124.953 415.275H79.1926V472.66H124.953V415.275Z" fill="white"/>
<path d="M100.419 453.715V463.874H102.348V453.44L111.721 455.637L110.618 452.342L119.715 443.83L117.234 443.281L118.888 437.241L113.651 438.064L112.272 435.319L107.586 439.986L108.964 428.729L105.656 430.102L101.521 423.238L97.662 430.376L93.8027 428.18L95.7324 439.986L90.7704 434.77L90.2191 438.064L84.7057 436.966L86.6354 442.732L83.603 443.83L92.4243 451.793L91.3217 454.813L100.419 453.715Z" fill="#FF3B45"/>
<path d="M707.882 415.274H616.085V472.66H707.882V415.274Z" fill="#2E4593"/>
<path d="M707.882 415.275H663.775V472.66H707.882V415.275Z" fill="#F42525"/>
<path d="M677.559 415.275H646.684V472.111H677.559V415.275Z" fill="white"/>
<path d="M567.87 415.275H476.073V472.66H567.87V415.275Z" fill="#43AF50"/>
<path d="M567.87 415.275H523.763V472.66H567.87V415.275Z" fill="#FFA92C"/>
<path d="M537.547 415.275H506.672V472.111H537.547V415.275Z" fill="white"/>
<path d="M287.846 415.274H196.049V472.66H287.846V415.274Z" fill="#43AF50"/>
<path d="M206.248 444.105L241.809 421.59L277.646 443.83L242.361 466.07L206.248 444.105Z" fill="#FFF915"/>
<path d="M257.246 443.83C257.246 444.928 257.246 446.027 256.971 446.85C256.695 447.949 256.419 449.047 255.868 450.145C253.387 455.362 248.149 458.931 242.085 458.931C233.539 458.931 226.647 452.067 226.647 443.555C226.647 442.183 226.923 440.535 227.199 439.162C227.474 438.064 228.026 436.966 228.577 435.867C231.334 431.2 236.296 428.179 241.809 428.179C250.355 428.454 257.246 435.318 257.246 443.83Z" fill="#39ACC6"/>
<path d="M256.971 446.85C256.695 447.949 256.419 449.047 255.868 450.145C252.56 446.301 247.598 443.006 241.809 441.084C236.571 439.162 228.301 439.437 227.199 439.437C227.474 438.339 228.026 437.24 228.577 436.142C228.577 436.142 233.815 435.593 242.636 437.789C251.182 440.261 255.868 445.752 256.971 446.85Z" fill="white"/>
<path d="M229.68 436.966C229.129 436.966 228.853 437.515 228.853 438.064C228.853 438.613 229.129 439.162 229.68 439.162C230.231 439.162 230.507 438.888 230.507 438.064C230.507 437.515 230.231 436.966 229.68 436.966ZM229.68 438.888C229.129 438.888 229.128 438.613 229.128 438.064C229.128 437.515 229.404 437.24 229.68 437.24C230.231 437.24 230.231 437.515 230.231 438.064C230.231 438.613 229.956 438.888 229.68 438.888Z" fill="#43AF50"/>
<path d="M232.161 438.613C232.161 438.339 232.161 438.339 231.885 438.339C232.161 438.339 232.161 438.064 232.161 437.789C232.161 437.515 232.161 437.515 231.885 437.515C231.885 437.515 231.609 437.24 231.334 437.24C231.058 437.24 231.058 437.24 230.782 437.24V439.162H231.058V438.339H231.334C231.609 438.064 231.609 438.339 232.161 438.613C231.885 438.888 231.885 439.162 232.161 439.162H232.436C232.161 438.888 232.161 438.888 232.161 438.613ZM231.334 438.064L231.058 437.24C231.058 437.24 231.058 437.24 231.334 437.24C231.609 437.24 231.885 437.24 231.885 437.515C231.885 437.789 231.609 438.064 231.334 438.064Z" fill="#43AF50"/>
<path d="M233.815 437.24C233.539 436.966 233.263 436.966 232.988 436.966C232.712 436.966 232.712 436.966 232.436 436.966V438.888C232.436 438.888 232.712 438.888 232.988 438.888C233.263 438.888 233.815 438.888 233.815 438.613C234.09 438.339 234.09 438.064 234.09 437.79C234.09 437.79 234.09 437.515 233.815 437.24ZM232.988 438.888L232.712 437.24H232.988C233.539 437.24 233.815 437.515 233.815 438.064C233.815 438.613 233.539 438.888 232.988 438.888Z" fill="#43AF50"/>
<path d="M234.642 437.24L234.366 439.162H235.469V438.888H234.642V438.064H235.469V437.789H234.642V437.24Z" fill="#43AF50"/>
<path d="M237.674 437.515L237.123 438.339C237.123 438.613 236.847 438.888 236.847 438.888C236.847 438.613 236.847 438.339 236.847 438.064L236.571 436.966H236.296L235.744 438.888H236.02L236.296 438.064C236.296 437.79 236.296 437.515 236.571 437.24C236.571 437.515 236.571 437.79 236.571 438.064L236.847 439.162H237.123L237.674 438.339C237.674 438.339 237.674 438.064 237.674 437.515C237.674 438.064 237.674 438.339 237.674 438.613V439.437H237.95L238.225 437.515H237.674Z" fill="#43AF50"/>
<path d="M241.257 439.162C240.982 439.437 240.706 439.437 240.706 439.711C240.706 439.437 240.43 439.162 240.43 439.162C240.706 439.162 240.982 438.888 240.982 438.613C240.982 438.339 240.982 438.064 240.706 438.064C240.43 438.064 240.155 438.064 240.155 438.339C240.155 438.613 240.155 438.613 240.155 438.888C239.879 438.888 239.604 439.162 239.604 439.437C239.604 439.711 239.603 439.986 240.155 440.261C240.43 440.261 240.706 440.261 240.706 440.261V440.535H240.982C240.982 440.261 240.706 440.261 240.706 439.986C240.982 439.711 240.982 439.437 241.257 439.162ZM240.155 438.339C240.155 438.064 240.43 438.064 240.43 438.064C240.706 438.064 240.706 438.339 240.706 438.339C240.706 438.613 240.43 438.613 240.155 438.613C240.155 438.613 240.155 438.613 240.155 438.339ZM240.155 439.986C239.879 439.986 239.879 439.711 239.879 439.437C239.879 439.162 240.155 439.162 240.155 439.162C240.155 439.437 240.43 439.711 240.43 439.711C240.43 439.986 240.155 439.986 240.155 439.986Z" fill="#43AF50"/>
<path d="M244.015 439.162C244.015 439.162 243.739 438.888 243.463 438.888C243.188 438.888 243.188 438.888 242.912 438.888L242.361 440.81H242.636L242.912 439.986C242.912 439.986 242.912 439.986 243.188 439.986C243.463 439.986 243.739 439.986 243.739 439.986L244.015 439.711C244.015 439.711 244.015 439.437 244.015 439.162ZM243.739 439.711C243.739 439.986 243.463 439.986 243.188 439.986H242.912L243.188 439.162C243.188 439.162 243.188 439.162 243.463 439.162C243.739 439.162 244.015 439.437 243.739 439.711Z" fill="#43AF50"/>
<path d="M245.668 439.986C245.668 439.711 245.393 439.711 245.117 439.711C244.841 439.711 244.841 439.711 244.566 439.711L243.739 441.633H244.014L244.29 440.81H244.566C244.841 440.81 244.841 441.084 244.841 441.359C244.841 441.633 244.841 441.908 244.841 441.908H245.117C245.117 441.908 245.117 441.633 245.117 441.359C245.117 441.084 245.117 441.084 244.841 440.81C245.117 440.81 245.393 440.81 245.393 440.535C245.668 440.261 245.668 439.986 245.668 439.986ZM245.393 440.261C245.393 440.535 245.117 440.535 244.841 440.535H244.566L244.841 439.711C244.841 439.711 244.841 439.711 245.117 439.711C245.393 439.711 245.393 439.986 245.393 440.261Z" fill="#43AF50"/>
<path d="M247.047 440.261C246.495 439.986 245.944 440.261 245.668 440.81C245.393 441.359 245.668 441.908 246.22 442.183C246.771 442.457 247.322 442.183 247.598 441.633C247.598 441.084 247.598 440.535 247.047 440.261ZM247.047 441.359C246.771 441.908 246.495 441.908 246.22 441.908C245.944 441.633 245.668 441.359 245.944 440.81C246.22 440.535 246.495 440.261 246.771 440.261C247.322 440.535 247.322 441.084 247.047 441.359Z" fill="#43AF50"/>
<path d="M248.976 441.359C248.425 441.084 247.874 441.084 247.598 441.634C247.322 441.908 247.322 442.183 247.598 442.457C247.598 442.732 247.874 443.006 248.149 443.006C248.425 443.006 248.701 443.281 248.701 443.281L249.252 442.457L248.701 442.183V442.457L248.425 443.006H248.149C247.598 442.732 247.598 442.457 247.874 441.908C248.149 441.359 248.425 441.359 248.976 441.359C248.976 441.634 249.252 441.634 249.252 441.908L249.528 441.634C249.528 441.634 249.252 441.359 248.976 441.359Z" fill="#43AF50"/>
<path d="M250.63 443.006V442.732C250.63 442.457 250.355 442.457 250.355 442.183C250.079 442.183 250.079 441.908 249.803 441.908L248.701 443.556H248.976L249.528 442.732H249.803C250.079 442.732 250.079 443.006 249.803 443.281C249.803 443.556 249.528 443.556 249.528 443.83L249.803 444.105C249.803 444.105 249.803 443.83 250.079 443.556C250.079 443.281 250.079 443.281 250.079 443.006C250.355 443.281 250.63 443.281 250.63 443.006ZM249.803 443.006L250.079 442.183C250.079 442.183 250.079 442.183 250.355 442.183C250.63 442.457 250.63 442.457 250.63 442.732C250.355 443.006 250.079 443.006 249.803 443.006Z" fill="#43AF50"/>
<path d="M251.457 442.732L250.355 444.379L251.182 444.928V444.654L250.63 444.105L251.182 443.555L251.733 444.105V443.83L251.182 443.281L251.457 442.732Z" fill="#43AF50"/>
<path d="M253.112 444.105C252.836 443.83 252.56 443.83 252.285 444.105C252.009 444.379 252.009 444.654 252.285 444.928C252.56 445.203 252.56 445.477 252.285 445.477C252.285 445.752 252.009 445.752 251.733 445.477L251.458 445.203H251.182C251.182 445.203 251.458 445.477 251.458 445.752C251.733 446.027 252.285 446.027 252.285 445.752C252.56 445.477 252.56 445.203 252.285 444.928C252.285 444.654 252.009 444.379 252.285 444.379C252.56 444.105 252.836 444.105 253.112 444.105C253.112 444.379 253.112 444.654 253.112 444.654H253.387C253.387 444.379 253.387 444.379 253.112 444.105Z" fill="#43AF50"/>
<path d="M254.214 445.203C253.938 444.928 253.663 444.928 253.387 445.203C253.111 445.477 253.111 445.752 253.387 446.026C253.387 446.301 253.663 446.576 253.387 446.576C253.111 446.85 253.111 446.85 252.836 446.576C252.836 446.576 252.56 446.301 252.56 446.026H252.284C252.284 446.026 252.56 446.301 252.56 446.576C252.836 446.85 253.387 446.85 253.387 446.576C253.663 446.301 253.663 446.026 253.387 445.752C253.387 445.477 253.111 445.203 253.387 445.203C253.663 445.203 253.938 445.203 254.214 445.203C254.214 445.477 254.214 445.752 254.214 445.752H254.49C254.49 445.477 254.49 445.203 254.214 445.203Z" fill="#43AF50"/>
<path d="M255.592 446.301C255.317 446.027 254.765 446.027 254.214 446.301C253.663 446.851 253.663 447.4 254.214 447.674C254.49 447.949 255.041 447.949 255.592 447.674C255.868 447.4 255.868 446.851 255.592 446.301ZM255.317 447.674C255.041 447.949 254.49 448.223 254.214 447.949C253.938 447.674 253.938 447.125 254.214 446.851C254.49 446.576 255.041 446.301 255.317 446.576C255.592 446.851 255.592 447.125 255.317 447.674Z" fill="#43AF50"/>
<path d="M251.457 449.322C251.182 449.596 251.457 449.596 251.457 449.322C251.182 449.596 251.182 449.322 251.182 449.322C250.906 449.322 251.182 449.322 251.457 449.322Z" fill="white"/>
<path d="M250.079 449.596C249.803 449.87 249.803 449.596 249.803 449.596C249.528 449.321 249.803 449.321 250.079 449.596C250.079 449.321 249.803 449.321 250.079 449.596Z" fill="white"/>
<path d="M249.804 450.42C249.528 450.695 249.528 450.42 249.528 450.42C249.528 450.42 249.528 450.42 249.804 450.42Z" fill="white"/>
<path d="M249.528 450.969C249.528 451.243 249.528 451.243 249.528 450.969C249.252 451.243 249.252 450.969 249.252 450.969C249.252 450.969 249.252 450.969 249.528 450.969Z" fill="white"/>
<path d="M248.976 451.243C248.976 451.518 248.976 451.518 248.976 451.243C248.701 451.518 248.701 451.243 248.701 451.243C248.701 451.243 248.701 451.243 248.976 451.243Z" fill="white"/>
<path d="M248.149 451.518C247.874 451.793 247.874 451.518 247.874 451.518C247.874 451.518 247.874 451.518 248.149 451.518Z" fill="white"/>
<path d="M248.701 452.616C248.425 452.891 248.425 452.616 248.425 452.616C248.425 452.616 248.425 452.342 248.701 452.616Z" fill="white"/>
<path d="M248.701 453.44C248.701 453.715 248.701 453.715 248.701 453.44C248.425 453.715 248.425 453.44 248.425 453.44C248.425 453.44 248.425 453.44 248.701 453.44Z" fill="white"/>
<path d="M245.669 451.518C245.392 451.518 245.392 451.794 245.669 451.518C245.392 451.518 245.392 451.518 245.669 451.518Z" fill="white"/>
<path d="M244.842 451.518C244.566 451.518 244.566 451.794 244.842 451.518C244.566 451.518 244.566 451.518 244.842 451.518Z" fill="white"/>
<path d="M245.118 452.616C244.841 452.892 245.118 452.892 245.118 452.616C244.841 452.892 244.841 452.892 245.118 452.616C244.841 452.616 244.841 452.616 245.118 452.616Z" fill="white"/>
<path d="M241.258 454.264C240.982 454.538 240.982 454.264 240.982 454.264C240.982 454.264 240.982 453.989 241.258 454.264Z" fill="white"/>
<path d="M241.258 449.871C240.982 450.145 240.982 449.871 240.982 449.871C240.706 449.596 240.982 449.596 241.258 449.871C241.258 449.596 240.982 449.596 241.258 449.871Z" fill="white"/>
<path d="M242.36 448.498C242.085 448.772 242.085 448.498 242.085 448.498C242.085 448.223 242.085 448.223 242.36 448.498C242.36 448.223 242.36 448.223 242.36 448.498Z" fill="white"/>
<path d="M240.982 447.125C240.706 447.4 240.706 447.125 240.706 447.125C240.431 446.851 240.706 446.851 240.982 447.125C240.982 446.851 240.982 446.851 240.982 447.125Z" fill="white"/>
<path d="M239.604 447.949C239.604 448.223 239.604 448.223 239.604 447.949C239.328 448.223 239.328 447.949 239.328 447.949C239.328 447.949 239.328 447.674 239.604 447.949Z" fill="white"/>
<path d="M244.566 443.556C244.566 443.83 244.566 443.83 244.566 443.556C244.29 443.83 244.29 443.556 244.29 443.556C244.29 443.556 244.29 443.281 244.566 443.556Z" fill="white"/>
<path d="M245.944 438.064C245.944 438.339 245.944 438.339 245.944 438.064C245.668 438.339 245.668 438.064 245.668 438.064C245.668 438.064 245.668 438.064 245.944 438.064Z" fill="white"/>
<path d="M236.296 444.654C236.02 444.929 236.02 444.654 236.02 444.654C236.02 444.654 236.02 444.379 236.296 444.654Z" fill="white"/>
<path d="M234.917 451.518C234.642 451.792 234.642 451.518 234.642 451.518C234.366 451.518 234.642 451.243 234.917 451.518Z" fill="white"/>
<path d="M232.161 450.42C232.161 450.695 232.161 450.695 232.161 450.42C231.885 450.695 231.885 450.42 231.885 450.42C231.885 450.42 231.885 450.42 232.161 450.42Z" fill="white"/>
<path d="M232.436 449.322C232.161 449.596 232.161 449.322 232.161 449.322C231.885 449.322 232.161 449.322 232.436 449.322Z" fill="white"/>
<path d="M231.61 448.223C231.61 448.499 231.61 448.499 231.61 448.223C231.333 448.499 231.333 448.499 231.61 448.223C231.333 448.223 231.333 448.223 231.61 448.223Z" fill="white"/>
<path d="M229.955 448.498C229.68 448.772 229.68 448.498 229.68 448.498C229.68 448.498 229.68 448.223 229.955 448.498Z" fill="white"/>
<path d="M228.578 449.322C228.301 449.322 228.301 449.322 228.578 449.322C228.301 449.046 228.301 449.046 228.578 449.322C228.578 449.046 228.578 449.046 228.578 449.322Z" fill="white"/>
<path d="M228.853 441.359C228.577 441.634 228.853 441.634 228.853 441.359C228.577 441.634 228.577 441.359 228.577 441.359C228.301 441.359 228.301 441.359 228.853 441.359Z" fill="white"/>
<path d="M987.907 415.275H896.11V472.66H987.907V415.275Z" fill="white"/>
<path d="M987.907 438.613H896.11V448.498H987.907V438.613Z" fill="#2E4593"/>
<path d="M928.914 415.275H918.99V472.66H928.914V415.275Z" fill="#2E4593"/>
<path d="M847.895 415H756.098V421.315H847.895V415Z" fill="#17B3DD"/>
<path d="M847.894 421.315H756.097V427.63H847.894V421.315Z" fill="white"/>
<path d="M847.894 427.905H756.097V434.22H847.894V427.905Z" fill="#17B3DD"/>
<path d="M847.894 434.22H756.097V440.535H847.894V434.22Z" fill="white"/>
<path d="M847.894 440.535H756.097V446.851H847.894V440.535Z" fill="#17B3DD"/>
<path d="M847.894 447.125H756.097V453.44H847.894V447.125Z" fill="white"/>
<path d="M847.894 453.44H756.097V459.755H847.894V453.44Z" fill="#17B3DD"/>
<path d="M847.894 459.755H756.097V466.071H847.894V459.755Z" fill="white"/>
<path d="M847.894 466.345H756.097V472.66H847.894V466.345Z" fill="#17B3DD"/>
<path d="M787.524 415H756.098V447.125H787.524V415Z" fill="#17B3DD"/>
<path d="M787.523 427.905H756.097V434.22H787.523V427.905Z" fill="white"/>
<path d="M774.843 415H768.502V447.125H774.843V415Z" fill="white"/>
<path d="M1127.64 415.274H1036.12V472.66H1127.64V415.274Z" fill="white"/>
<path d="M1103.11 443.83C1103.11 455.636 1093.46 464.972 1081.88 464.972C1070.03 464.972 1060.66 455.636 1060.66 443.83C1060.66 432.023 1070.3 422.688 1081.88 422.688C1093.46 422.688 1103.11 432.298 1103.11 443.83Z" fill="#DB2E2E"/>
<path d="M1267.66 415.274H1176.13V472.66H1267.66V415.274Z" fill="white"/>
<path d="M1197.55 418.984L1188.03 428.526L1190.18 430.655L1199.7 421.114L1197.55 418.984Z" fill="#28292B"/>
<path d="M1201.04 422.185L1191.51 431.728L1193.66 433.857L1203.19 424.314L1201.04 422.185Z" fill="#28292B"/>
<path d="M1203.57 425.054L1194.05 434.597L1196.2 436.726L1205.72 427.183L1203.57 425.054Z" fill="#28292B"/>
<path d="M1246.89 451.798L1243.2 455.5L1245.35 457.628L1249.04 453.926L1246.89 451.798Z" fill="#28292B"/>
<path d="M1240.93 457.46L1237.24 461.163L1239.39 463.291L1243.08 459.588L1240.93 457.46Z" fill="#28292B"/>
<path d="M1249.93 454.743L1246.24 458.446L1248.39 460.574L1252.08 456.871L1249.93 454.743Z" fill="#28292B"/>
<path d="M1244.01 460.65L1240.32 464.35L1242.47 466.479L1246.16 462.779L1244.01 460.65Z" fill="#28292B"/>
<path d="M1252.93 457.886L1249.23 461.576L1251.37 463.711L1255.07 460.021L1252.93 457.886Z" fill="#28292B"/>
<path d="M1247 463.585L1243.31 467.284L1245.46 469.414L1249.15 465.714L1247 463.585Z" fill="#28292B"/>
<path d="M1251.56 424.434L1249.42 426.577L1253.14 430.253L1255.27 428.11L1251.56 424.434Z" fill="#28292B"/>
<path d="M1245.69 418.477L1243.55 420.618L1247.26 424.297L1249.4 422.156L1245.69 418.477Z" fill="#28292B"/>
<path d="M1240.36 423.786L1242.57 421.59L1246.43 425.434L1248.36 427.356L1252.22 431.2L1250.01 433.396L1246.43 429.552L1244.22 427.356L1240.36 423.786Z" fill="#28292B"/>
<path d="M1245.39 430.381L1243.24 432.515L1246.95 436.206L1249.09 434.072L1245.39 430.381Z" fill="#28292B"/>
<path d="M1239.55 424.456L1237.42 426.599L1241.13 430.275L1243.27 428.132L1239.55 424.456Z" fill="#28292B"/>
<path d="M1194.33 453.715L1196.53 451.518L1200.39 455.087L1202.32 457.284L1206.18 461.128L1203.98 463.05L1200.39 459.481L1198.19 457.284L1194.33 453.715Z" fill="#28292B"/>
<path d="M1199.22 460.321L1197.09 462.465L1200.8 466.141L1202.94 463.997L1199.22 460.321Z" fill="#28292B"/>
<path d="M1193.38 454.581L1191.25 456.724L1194.96 460.401L1197.1 458.258L1193.38 454.581Z" fill="#28292B"/>
<path d="M1188.26 459.755L1190.47 457.559L1194.05 461.403L1196.26 463.325L1200.12 467.169L1197.91 469.365L1194.05 465.521L1192.12 463.325L1188.26 459.755Z" fill="#28292B"/>
<path d="M1238.43 443.281C1238.43 452.342 1231.27 459.48 1222.17 459.48C1213.07 459.48 1205.91 452.342 1205.91 443.281C1205.91 434.22 1213.07 427.081 1222.17 427.081C1231.27 427.081 1238.43 434.494 1238.43 443.281Z" fill="#2E4593"/>
<path d="M1238.43 443.281C1238.43 444.104 1238.43 444.928 1238.16 445.477C1237.61 442.182 1235.95 436.416 1229.34 436.416C1224.38 436.416 1222.72 438.613 1221.62 441.084C1220.24 444.654 1219.96 449.321 1213.35 449.321C1208.66 449.321 1206.46 446.576 1205.63 443.555V443.281C1205.63 440.535 1206.18 438.064 1207.56 435.593C1210.32 430.376 1215.83 427.081 1221.89 427.081C1230.99 427.081 1238.43 434.494 1238.43 443.281Z" fill="#DB2E2E"/>
<path d="M1407.67 415.274H1316.15V472.66H1407.67V415.274Z" fill="#F7EB1C"/>
<path d="M1407.67 443.006H1316.15V472.66H1407.67V443.006Z" fill="#DB2E2E"/>
<path d="M1407.67 433.945H1316.15V453.165H1407.67V433.945Z" fill="#218F36"/>
<path d="M1547.68 415.274H1456.16V472.66H1547.68V415.274Z" fill="#E83434"/>
<path d="M1547.68 443.006H1456.16V472.66H1547.68V443.006Z" fill="#6BB8ED"/>
<path d="M1547.68 433.945H1456.16V453.165H1547.68V433.945Z" fill="white"/>
<path d="M1967.99 415.274H1876.2V472.66H1967.99V415.274Z" fill="white"/>
<path d="M1968.27 415.274H1876.47V443.83H1968.27V415.274Z" fill="#E22B2B"/>
<path d="M1687.69 415.274H1596.17V472.66H1687.69V415.274Z" fill="#E83434"/>
<path d="M1687.69 443.006H1596.17V472.66H1687.69V443.006Z" fill="#43AF50"/>
<path d="M1687.69 433.945H1596.17V453.165H1687.69V433.945Z" fill="#28292B"/>
<path d="M1648.82 440.81L1652.68 446.576L1646.34 444.105L1652.96 442.457L1648.55 447.674L1648.82 440.81Z" fill="white"/>
<path d="M1647.17 447.674C1646.07 449.871 1644.14 450.694 1641.66 450.694C1637.8 450.694 1634.76 447.674 1634.76 443.83C1634.76 439.986 1637.8 436.966 1641.66 436.966C1644.69 436.966 1646.89 438.339 1647.72 440.81C1646.62 439.162 1645.24 438.339 1643.03 438.339C1640 438.339 1637.25 440.81 1637.25 444.105C1637.25 447.125 1639.73 449.871 1643.03 449.871C1644.96 449.322 1646.07 449.047 1647.17 447.674Z" fill="white"/>
<path d="M1827.98 415.274H1736.18V472.66H1827.98V415.274Z" fill="#FFF915"/>
<path d="M1827.98 415.274H1736.18V443.83H1827.98V415.274Z" fill="#25BBEF"/>
</svg>
