<svg width="1920" height="70" viewBox="0 0 1920 70" fill="none" xmlns="http://www.w3.org/2000/svg">
<path d="M923.323 0.744629H831.802V68.8159H923.323V0.744629Z" fill="#28292B"/>
<path d="M923.323 33.3147H831.802V68.4903H923.323V33.3147Z" fill="#FFF915"/>
<path d="M923.323 22.8923H831.802V45.6913H923.323V22.8923Z" fill="#DD3131"/>
<path d="M783.586 0.744629H691.79V68.8159H783.586V0.744629Z" fill="#F42525"/>
<path d="M710.534 19.9611L713.015 28.1036L706.951 22.8924L701.162 28.1036L703.643 19.9611L697.302 15.0756H704.745L706.951 6.60742L709.156 15.0756H716.599L710.534 19.9611Z" fill="white"/>
<path d="M727.075 28.429L727.35 26.8005L727.902 28.429L727.35 30.0575L727.075 28.429Z" fill="white"/>
<path d="M727.902 28.429H729.28L728.177 29.4061H726.799L727.902 28.429Z" fill="white"/>
<path d="M728.177 29.4061L728.729 31.0346L727.35 30.0575L727.075 28.429L728.177 29.4061Z" fill="white"/>
<path d="M727.075 28.429H725.421L726.799 29.4061H728.177L727.075 28.429Z" fill="white"/>
<path d="M726.799 29.4061L726.248 31.0346L727.35 30.0575L727.902 28.429L726.799 29.4061Z" fill="white"/>
<path d="M720.183 36.8973L720.735 35.5945L721.011 37.223L720.183 38.5258V36.8973Z" fill="white"/>
<path d="M721.01 37.2231L722.388 37.8745L721.01 38.2002L719.632 37.8745L721.01 37.2231Z" fill="white"/>
<path d="M721.011 38.2003V40.1545L720.183 38.526V36.8975L721.011 38.2003Z" fill="white"/>
<path d="M720.183 36.8975L718.529 36.5718L719.632 37.8746L721.01 38.2003L720.183 36.8975Z" fill="white"/>
<path d="M719.632 37.8745L718.805 39.1773L720.183 38.5259L721.01 37.2231L719.632 37.8745Z" fill="white"/>
<path d="M728.729 17.6812L729.831 16.7041L729.556 18.3326L728.453 19.3097L728.729 17.6812Z" fill="white"/>
<path d="M729.556 18.3328L730.658 19.3099H729.28L728.177 18.3328H729.556Z" fill="white"/>
<path d="M729.28 19.3096L729.004 21.2638L728.453 19.6353L728.729 18.0068L729.28 19.3096Z" fill="white"/>
<path d="M728.728 17.6812L727.625 16.7041L728.177 18.3326L729.279 19.3097L728.728 17.6812Z" fill="white"/>
<path d="M728.177 18.3328L726.799 19.6356H728.453L729.555 18.3328H728.177Z" fill="white"/>
<path d="M724.318 7.91024L725.145 6.28174L725.421 8.23594L724.594 9.53874L724.318 7.91024Z" fill="white"/>
<path d="M725.42 8.23584L726.799 8.56154L725.42 9.21294L724.042 8.56154L725.42 8.23584Z" fill="white"/>
<path d="M725.421 9.21296V11.1672L724.594 9.53866L724.318 7.91016L725.421 9.21296Z" fill="white"/>
<path d="M724.593 7.91019L722.939 7.25879L724.042 8.88729L725.42 9.21299L724.593 7.91019Z" fill="white"/>
<path d="M724.042 8.88724L722.939 10.19L724.593 9.53864L725.42 8.23584L724.042 8.88724Z" fill="white"/>
<path d="M1063.61 0.744629H971.814V68.8159H1063.61V0.744629Z" fill="#DD3131"/>
<path d="M1063.61 29.4065H971.814V39.5032H1063.61V29.4065Z" fill="white"/>
<path d="M1003.52 0.744629H994.97V68.8159H1003.52V0.744629Z" fill="white"/>
<path d="M1903.68 0.744629V68.8159H1811.89V0.744629H1903.68Z" fill="#2E4593"/>
<path d="M1903.68 61.6505V68.8159H1894.04L1865.92 47.9711L1863.16 45.6912L1859.85 43.4113L1858.75 42.4342L1855.17 39.8286L1854.06 38.8515L1852.96 38.2001L1850.76 36.5716L1850.2 36.2459L1849.1 35.2688L1839.18 28.1034L1834.49 24.5207L1811.89 7.91002V0.744629H1812.16H1821.54L1850.2 21.9151L1852.96 24.195L1853.79 24.5207L1858.2 28.1034L1858.75 28.4291L1860.4 29.7319L1863.16 31.6861L1863.44 32.0118L1865.92 33.6403L1868.12 35.2688L1874.46 39.8286L1878.87 43.4113L1903.68 61.6505Z" fill="#FCF5FF"/>
<path d="M1903.68 68.4902V68.8159H1897.34L1865.92 45.3655L1863.16 43.4113V43.0856L1860.4 41.1314L1858.75 39.8286L1855.72 37.8744L1852.96 35.5945L1852.41 35.2688L1850.76 33.966L1850.2 33.6403L1842.49 28.1034L1838.08 24.5207L1811.89 5.30443V0.744629H1812.16L1844.42 24.5207L1848.83 28.1034L1850.2 28.7548L1852.96 31.0347L1854.06 31.6861L1855.72 32.9889L1858.75 35.2688L1863.16 38.5258L1863.44 38.8515L1865.09 39.8286L1865.92 40.48L1869.5 43.4113L1903.68 68.4902Z" fill="#F42525"/>
<path d="M1903.68 2.04743V9.21282L1882.73 24.5207L1878.05 28.1034L1868.12 35.2688L1865.92 37.223L1863.44 38.8515L1863.16 39.1772L1862.06 39.8286L1860.4 41.1314L1858.75 42.4342L1857.37 43.4113L1852.96 46.6683L1850.2 48.6225L1823.19 68.8159H1811.89V62.9533L1838.35 43.4113L1842.76 39.8286L1849.1 35.2688L1850.2 34.6174L1850.76 33.966L1852.96 32.6632L1854.06 31.6861L1858.75 28.4291L1859.03 28.1034L1863.16 24.8464L1863.44 24.5207L1865.92 22.8922L1895.97 0.744629H1902.86L1903.68 2.04743Z" fill="#FCF5FF"/>
<path d="M1903.41 2.37313L1873.36 24.5207L1868.95 28.1034L1865.92 30.0576L1863.44 32.0118L1863.16 32.3375L1858.75 35.2688L1855.72 37.8744L1854.06 38.8515L1852.96 39.8286H1852.69L1850.2 41.7828L1848.27 43.4113L1813.82 68.8159H1811.89V65.5589L1841.93 43.4113L1846.35 39.8286L1850.2 37.223L1850.76 36.5716L1852.41 35.2688L1852.96 34.9431L1855.72 32.9889L1860.4 29.7319L1862.61 28.1034L1863.16 27.452L1865.92 25.4978L1867.02 24.5207L1899.27 0.744629H1902.58H1903.68V2.37313H1903.41Z" fill="#F42525"/>
<path d="M1903.68 24.5208H1811.89V43.0856H1903.68V24.5208Z" fill="white"/>
<path d="M1903.68 28.1033H1811.89V40.1542H1903.68V28.1033Z" fill="#F42525"/>
<path d="M1863.16 0.744873H1852.96V68.8161H1863.16V0.744873Z" fill="#CD002A"/>
<path d="M1863.16 43.4113H1865.92V68.8159H1850.2V43.4113H1852.96V24.5207H1850.2V0.744629H1865.92V24.5207H1863.16V43.4113Z" fill="white"/>
<path d="M1863.16 0.744629H1852.96V68.8159H1863.16V0.744629Z" fill="#F42525"/>
<path d="M1623.38 0.744629H1531.86V68.8159H1623.38V0.744629Z" fill="#2E4593"/>
<path d="M1623.38 33.6404H1531.86V68.816H1623.38V33.6404Z" fill="#2E4593"/>
<path d="M1623.38 22.8921H1531.86V45.6911H1623.38V22.8921Z" fill="white"/>
<path d="M1579.83 34.9433L1580.66 37.5489L1578.73 35.9204L1577.07 37.5489L1577.9 34.9433L1575.97 33.6405H1578.18L1578.73 31.0349L1579.55 33.6405H1581.76L1579.83 34.9433Z" fill="#2E4593"/>
<path d="M1568.25 28.4291L1568.8 31.0347L1567.15 29.4062L1565.49 31.0347L1566.05 28.4291L1564.39 26.8007H1566.6L1567.15 24.5208L1567.7 26.8007H1569.91L1568.25 28.4291Z" fill="#2E4593"/>
<path d="M1568.25 41.7827L1568.8 44.0626L1567.15 42.7598L1565.49 44.0626L1566.05 41.7827L1564.39 40.1542H1566.6L1567.15 37.8743L1567.7 40.1542H1569.9L1568.25 41.7827Z" fill="#2E4593"/>
<path d="M1590.86 28.4291L1591.68 31.0347L1589.75 29.4062L1588.1 31.0347L1588.93 28.4291L1587 26.8007H1589.2L1589.75 24.5208L1590.58 26.8007H1592.79L1590.86 28.4291Z" fill="#2E4593"/>
<path d="M1590.86 41.7829L1591.68 44.0628L1589.75 42.76L1588.1 44.0628L1588.93 41.7829L1587 40.1544H1589.2L1589.75 37.8745L1590.58 40.1544H1592.79L1590.86 41.7829Z" fill="#2E4593"/>
<path d="M360.832 0.744873H269.311V68.8161H360.832V0.744873Z" fill="#FF9A15"/>
<path d="M360.832 33.6406H269.311V68.8162H360.832V33.6406Z" fill="#37AA41"/>
<path d="M360.832 22.8923H269.311V45.6913H360.832V22.8923Z" fill="white"/>
<path d="M318.103 35.2691L323.065 38.2004L317.828 35.9205C317.828 35.9205 317.828 35.9205 317.828 36.2462L322.238 40.1546L317.552 36.8976C317.552 36.8976 317.552 36.8976 317.552 37.2233L321.411 42.1088L317.276 37.8747L320.309 43.4116L317.001 38.2004C317.001 38.2004 317.001 38.2004 316.725 38.2004L318.655 44.3887L316.449 38.5261C316.449 38.5261 316.449 38.5261 316.174 38.5261L317.001 45.0401L315.622 38.8518C315.622 38.8518 315.622 38.8518 315.347 38.8518L315.071 45.3658L314.795 38.8518L313.417 45.3658L314.244 38.8518C314.244 38.8518 314.244 38.8518 313.968 38.8518L311.487 44.7144L313.417 38.5261L310.109 43.7373L312.866 38.2004C312.866 38.2004 312.866 38.2004 312.59 38.2004L308.455 42.7602L312.314 37.8747L307.628 41.4574L312.039 37.549C312.039 37.549 312.039 37.549 312.039 37.2233L306.801 39.5032L311.763 36.5719L306.25 37.549L311.487 35.9205V35.5948L305.974 35.2691L311.487 34.9434C311.487 34.9434 311.487 34.9434 311.487 34.6177L306.25 33.3149L311.763 34.292C311.763 34.292 311.763 34.292 311.763 33.9663L306.801 31.3607L312.039 33.6406L307.628 29.7322L312.314 32.9892C312.314 32.9892 312.314 32.9892 312.314 32.6635L308.455 27.778L312.59 32.3378L309.558 26.8009L312.866 32.0121C312.866 32.0121 312.866 32.0121 313.141 32.0121L311.212 25.8238L313.417 31.6864C313.417 31.6864 313.417 31.6864 313.693 31.6864L312.866 25.1724L314.244 31.3607H314.52L314.795 24.8467L315.071 31.3607C315.071 31.3607 315.071 31.3607 315.347 31.3607L316.725 25.1724L315.898 31.6864H316.174L318.379 25.8238L316.449 32.0121L319.757 26.8009L317.001 32.3378C317.001 32.3378 317.001 32.3378 317.276 32.3378L321.411 27.778L317.552 32.6635L322.238 29.0808L317.828 32.9892C317.828 32.9892 317.828 32.9892 317.828 33.3149L323.065 31.035L318.103 33.9663L323.617 32.9892L318.379 34.6177C318.379 34.6177 318.379 34.6177 318.379 34.9434L323.892 35.2691L318.379 35.5948L323.892 37.2233L318.103 35.2691Z" fill="#2D3A8E"/>
<path d="M315.071 45.0401C310.109 45.0401 305.974 40.1546 305.974 34.292C305.974 28.4294 310.109 23.5439 315.071 23.5439C320.033 23.5439 324.168 28.4294 324.168 34.292C323.892 40.1546 320.033 45.0401 315.071 45.0401ZM315.071 24.521C310.385 24.521 306.525 29.0808 306.525 34.6177C306.525 40.1546 310.385 44.7144 315.071 44.7144C319.758 44.7144 323.617 40.1546 323.617 34.6177C323.617 29.0808 319.482 24.521 315.071 24.521Z" fill="#2D3A8E"/>
<path d="M1763.67 0.744629H1671.88V68.8159H1763.67V0.744629Z" fill="#218F36"/>
<path d="M1716.81 34.2917L1714.33 36.2459L1673.53 68.4902H1671.88V0.744629L1714.6 32.9889L1716.81 34.2917Z" fill="#28292B"/>
<path d="M1763.4 0.744629V68.4902H1760.92L1755.4 62.9533L1720.39 36.5716L1717.64 34.6174L1718.74 34.2917L1720.67 32.9889L1763.4 0.744629Z" fill="#28292B"/>
<path d="M1763.4 64.9077V68.4904H1758.16L1717.64 38.526L1714.33 36.2461L1712.4 34.6176L1671.88 4.65327V0.744873H1677.11L1717.64 30.7092L1720.67 32.9891L1722.87 34.6176L1763.4 64.9077Z" fill="#FFF800"/>
<path d="M1763.67 0.744873H1763.4V4.65327L1722.87 34.6176L1720.39 36.5718L1717.64 38.526L1677.11 68.4904H1671.88V64.582L1712.4 34.6176L1714.6 32.9891L1717.64 30.7092L1758.16 0.744873H1763.4H1763.67Z" fill="#FFF800"/>
<path d="M1203.62 0.744873H1111.83V68.8161H1203.62V0.744873Z" fill="#43AF50"/>
<path d="M1203.35 0.744629H1159.24V68.8159H1203.35V0.744629Z" fill="#DD2F2F"/>
<path d="M1173.02 0.744629H1142.15V68.1645H1173.02V0.744629Z" fill="#FFF915"/>
<path d="M1343.36 0.744629H1251.84V68.8159H1343.36V0.744629Z" fill="#DD2F2F"/>
<path d="M1343.36 34.9434H1251.84V68.4904H1343.36V34.9434Z" fill="#2E4593"/>
<path d="M1343.36 22.8923H1251.84V45.6913H1343.36V22.8923Z" fill="white"/>
<path d="M1483.65 0.744873H1391.85V68.8161H1483.65V0.744873Z" fill="#DD2F2F"/>
<path d="M1483.65 28.4287H1391.85V40.1539H1483.65V28.4287Z" fill="white"/>
<path d="M1424.65 0.744385H1414.73V68.8156H1424.65V0.744385Z" fill="white"/>
<path d="M1422.73 0.744385H1416.66V68.8156H1422.73V0.744385Z" fill="#2E4593"/>
<path d="M1483.65 30.3831H1391.85V38.1999H1483.65V30.3831Z" fill="#2E4593"/>
<path d="M220.82 0.744629H129.299V68.8159H220.82V0.744629Z" fill="#E53030"/>
<path d="M173.405 27.1265L181.951 42.1087L167.892 35.9204L182.227 31.3606L172.854 45.04L173.405 27.1265Z" fill="white"/>
<path d="M169.821 44.7143C167.065 49.9255 163.481 52.2054 157.968 52.2054C149.422 52.2054 142.806 44.0629 142.806 34.2919C142.806 24.5209 149.698 16.3784 157.968 16.3784C164.308 16.3784 168.994 19.9611 171.475 26.4751C169.27 21.9153 165.962 19.9611 161.276 19.9611C154.384 19.9611 148.871 26.4751 148.871 34.6176C148.871 42.7601 154.384 49.2741 161.276 49.2741C165.135 49.2741 167.616 48.297 169.821 44.7143Z" fill="white"/>
<path d="M81.0836 0.744629H-10.7134V68.8159H81.0836V0.744629Z" fill="#65C3FC"/>
<path d="M40.5606 36.2461L44.1442 48.6227L35.3229 40.8059L26.5016 48.6227L30.0852 36.2461H30.3609L21.2639 29.0807H32.0149L35.0472 16.7041L38.3552 29.0807H49.3819L40.2849 36.2461H40.5606Z" fill="white"/>
<path d="M503.877 21.6665H409.323V26.8777H503.877V21.6665Z" fill="#DB2E2E"/>
<path d="M503.877 10.9187H409.323V16.1299H503.877V10.9187Z" fill="#DB2E2E"/>
<path d="M503.877 0.496338H409.323V5.70753H503.877V0.496338Z" fill="#DB2E2E"/>
<path d="M503.877 32.0891H409.323V37.3003H503.877V32.0891Z" fill="#DB2E2E"/>
<path d="M503.877 42.8372H409.323V48.0484H503.877V42.8372Z" fill="#DB2E2E"/>
<path d="M503.877 53.5854H409.323V58.7966H503.877V53.5854Z" fill="#DB2E2E"/>
<path d="M503.877 64.0076H409.323V69.2188H503.877V64.0076Z" fill="#DB2E2E"/>
<path d="M503.877 16.1299H409.323V21.3411H503.877V16.1299Z" fill="white"/>
<path d="M503.877 5.70728H409.323V10.9185H503.877V5.70728Z" fill="white"/>
<path d="M503.877 26.8777H409.323V32.0889H503.877V26.8777Z" fill="white"/>
<path d="M503.877 37.6257H409.323V42.8369H503.877V37.6257Z" fill="white"/>
<path d="M503.877 48.0483H409.323V53.2595H503.877V48.0483Z" fill="white"/>
<path d="M503.877 58.7961H409.323V64.0073H503.877V58.7961Z" fill="white"/>
<path d="M444.609 0.496338H409.323V32.7406H444.609V0.496338Z" fill="#2E4593"/>
<path d="M438.82 7.01011L439.095 7.98721L438.268 7.33581L437.441 7.98721L437.717 7.01011L436.89 6.03301H437.993L438.268 5.05591L438.544 6.03301H439.647L438.82 7.01011Z" fill="white"/>
<path d="M438.82 13.5243L439.095 14.5014L438.268 13.85L437.441 14.5014L437.717 13.5243L436.89 12.5472H437.993L438.268 11.2444L438.544 12.5472H439.647L438.82 13.5243Z" fill="white"/>
<path d="M438.82 20.038L439.095 21.0151L438.268 20.3637L437.441 21.0151L437.717 20.038V19.7123L436.89 19.0609H437.993L438.268 17.7581L438.544 19.0609H439.647L438.82 19.7123V20.038Z" fill="white"/>
<path d="M438.82 26.2264L439.095 27.5292L438.268 26.8778L437.441 27.5292L437.717 26.2264L436.89 25.575H437.993L438.268 24.2722L438.544 25.575H439.647L438.82 26.2264Z" fill="white"/>
<path d="M433.031 7.01011L433.306 7.98721L432.479 7.33581L431.652 7.98721L431.928 7.01011L431.101 6.03301H432.204L432.479 5.05591L432.755 6.03301H433.858L433.031 7.01011Z" fill="white"/>
<path d="M433.031 13.5243L433.306 14.5014L432.479 13.85L431.652 14.5014L431.928 13.5243L431.101 12.5472H432.204L432.479 11.2444L432.755 12.5472H433.858L433.031 13.5243Z" fill="white"/>
<path d="M433.031 20.038L433.306 21.0151L432.479 20.3637L431.652 21.0151L431.928 20.038V19.7123L431.101 19.0609H432.204L432.479 17.7581L432.755 19.0609H433.858L433.031 19.7123V20.038Z" fill="white"/>
<path d="M433.031 26.2264L433.306 27.5292L432.479 26.8778L431.652 27.5292L431.928 26.2264L431.101 25.575H432.204L432.479 24.2722L432.755 25.575H433.858L433.031 26.2264Z" fill="white"/>
<path d="M427.242 7.01011L427.517 7.98721L426.69 7.33581L425.587 7.98721L426.139 7.01011L425.036 6.03301H426.414L426.69 5.05591L426.966 6.03301H428.068L427.242 7.01011Z" fill="white"/>
<path d="M427.242 13.5243L427.517 14.5014L426.69 13.85L425.587 14.5014L426.139 13.5243L425.036 12.5472H426.414L426.69 11.2444L426.966 12.5472H428.068L427.242 13.5243Z" fill="white"/>
<path d="M427.242 20.038L427.517 21.0151L426.69 20.3637L425.587 21.0151L426.139 20.038V19.7123L425.036 19.0609H426.414L426.69 17.7581L426.966 19.0609H428.068L427.242 19.7123V20.038Z" fill="white"/>
<path d="M427.242 26.2264L427.517 27.5292L426.69 26.8778L425.587 27.5292L426.139 26.2264L425.036 25.575H426.414L426.69 24.2722L426.966 25.575H428.068L427.242 26.2264Z" fill="white"/>
<path d="M421.453 7.00986L421.728 7.98696L420.901 7.33556L420.074 7.98696L420.35 7.00986L419.523 6.03276H420.626L420.901 5.05566L421.177 6.03276H422.28L421.453 7.00986Z" fill="white"/>
<path d="M421.452 13.524L421.728 14.5011L420.901 13.8497L420.074 14.5011L420.35 13.524L419.523 12.5469H420.625L420.901 11.2441L421.177 12.5469H422.279L421.452 13.524Z" fill="white"/>
<path d="M421.452 20.0377L421.728 21.0148L420.901 20.3634L420.074 21.0148L420.35 20.0377V19.712L419.523 19.0606H420.625L420.901 17.7578L421.177 19.0606H422.279L421.452 19.712V20.0377Z" fill="white"/>
<path d="M421.452 26.2262L421.728 27.529L420.901 26.8776L420.074 27.529L420.35 26.2262L419.523 25.5748H420.625L420.901 24.272L421.177 25.5748H422.279L421.452 26.2262Z" fill="white"/>
<path d="M415.664 7.00986L415.939 7.98696L415.112 7.33556L414.285 7.98696L414.561 7.00986L413.734 6.03276H414.837L415.112 5.05566L415.388 6.03276H416.491L415.664 7.00986Z" fill="white"/>
<path d="M415.663 13.524L415.939 14.5011L415.112 13.8497L414.285 14.5011L414.561 13.524L413.734 12.5469H414.836L415.112 11.2441L415.388 12.5469H416.49L415.663 13.524Z" fill="white"/>
<path d="M415.663 20.0377L415.939 21.0148L415.112 20.3634L414.285 21.0148L414.561 20.0377V19.712L413.734 19.0606H414.836L415.112 17.7578L415.388 19.0606H416.49L415.663 19.712V20.0377Z" fill="white"/>
<path d="M415.663 26.2262L415.939 27.529L415.112 26.8776L414.285 27.529L414.561 26.2262L413.734 25.5748H414.836L415.112 24.272L415.388 25.5748H416.49L415.663 26.2262Z" fill="white"/>
<path d="M441.577 10.267L442.128 11.2441L441.025 10.5927L440.198 11.2441L440.474 10.267H440.75L439.647 9.28986H440.75L441.025 7.98706L441.577 9.28986H442.679L441.577 10.267Z" fill="white"/>
<path d="M441.577 16.7809L442.128 17.758L441.025 17.1066L440.198 17.758L440.474 16.7809H440.75L439.647 15.8038H440.75L441.025 14.501L441.577 15.8038H442.679L441.577 16.7809Z" fill="white"/>
<path d="M441.577 22.9693L442.128 24.2721L441.025 23.6207L440.198 24.2721L440.474 22.9693H440.75L439.647 22.3179H440.75L441.025 21.0151L441.577 22.3179H442.679L441.577 22.9693Z" fill="white"/>
<path d="M441.577 29.4833L442.128 30.7861L441.025 30.1347L440.198 30.7861L440.474 29.4833H440.75L439.647 28.8319H440.75L441.025 27.5291L441.577 28.8319H442.679L441.577 29.4833Z" fill="white"/>
<path d="M441.576 3.75327L442.128 5.05607L441.025 4.07897L440.198 5.05607L440.474 3.75327H440.749L439.647 2.77617H440.749L441.025 1.79907L441.576 2.77617V3.10187V2.77617H442.679L441.576 3.75327Z" fill="white"/>
<path d="M436.063 10.267L436.339 11.2441L435.512 10.5927L434.409 11.2441L434.961 10.267L433.858 9.28986H434.961L435.512 7.98706L435.788 9.28986H436.89L436.063 10.267Z" fill="white"/>
<path d="M436.063 16.7809L436.339 17.758L435.512 17.1066L434.409 17.758L434.961 16.7809L433.858 15.8038H434.961L435.512 14.501L435.788 15.8038H436.89L436.063 16.7809Z" fill="white"/>
<path d="M436.063 22.9693L436.339 24.2721L435.512 23.6207L434.409 24.2721L434.961 22.9693L433.858 22.3179H434.961L435.512 21.0151L435.788 22.3179H436.89L436.063 22.9693Z" fill="white"/>
<path d="M436.063 29.4833L436.339 30.7861L435.512 30.1347L434.409 30.7861L434.961 29.4833L433.858 28.8319H434.961L435.512 27.5291L435.788 28.8319H436.89L436.063 29.4833Z" fill="white"/>
<path d="M436.063 3.75327L436.339 5.05607L435.512 4.07897L434.409 5.05607L434.96 3.75327L433.858 2.77617H434.96L435.512 1.79907L435.787 2.77617V3.10187V2.77617H436.89L436.063 3.75327Z" fill="white"/>
<path d="M429.998 10.267L430.274 11.2441L429.447 10.5927L428.62 11.2441L428.896 10.267L428.069 9.28986H429.171L429.447 7.98706L429.723 9.28986H430.825L429.998 10.267Z" fill="white"/>
<path d="M429.998 16.7809L430.274 17.758L429.447 17.1066L428.62 17.758L428.896 16.7809L428.069 15.8038H429.171L429.447 14.501L429.723 15.8038H430.825L429.998 16.7809Z" fill="white"/>
<path d="M429.998 22.9693L430.274 24.2721L429.447 23.6207L428.62 24.2721L428.896 22.9693L428.069 22.3179H429.171L429.447 21.0151L429.723 22.3179H430.825L429.998 22.9693Z" fill="white"/>
<path d="M429.998 29.4833L430.274 30.7861L429.447 30.1347L428.62 30.7861L428.896 29.4833L428.069 28.8319H429.171L429.447 27.5291L429.723 28.8319H430.825L429.998 29.4833Z" fill="white"/>
<path d="M429.998 3.75327L430.274 5.05607L429.447 4.07897L428.62 5.05607L428.896 3.75327L428.069 2.77617H429.171L429.447 1.79907L429.723 2.77617V3.10187V2.77617H430.825L429.998 3.75327Z" fill="white"/>
<path d="M424.209 10.267L424.485 11.2441L423.658 10.5927L422.831 11.2441L423.107 10.267L422.28 9.28986H423.382L423.658 7.98706L423.934 9.28986H425.036L424.209 10.267Z" fill="white"/>
<path d="M424.209 16.7809L424.485 17.758L423.658 17.1066L422.831 17.758L423.107 16.7809L422.28 15.8038H423.382L423.658 14.501L423.934 15.8038H425.036L424.209 16.7809Z" fill="white"/>
<path d="M424.209 22.9693L424.485 24.2721L423.658 23.6207L422.831 24.2721L423.107 22.9693L422.28 22.3179H423.382L423.658 21.0151L423.934 22.3179H425.036L424.209 22.9693Z" fill="white"/>
<path d="M424.209 29.4833L424.485 30.7861L423.658 30.1347L422.831 30.7861L423.107 29.4833L422.28 28.8319H423.382L423.658 27.5291L423.934 28.8319H425.036L424.209 29.4833Z" fill="white"/>
<path d="M424.209 3.75327L424.485 5.05607L423.658 4.07897L422.831 5.05607L423.107 3.75327L422.28 2.77617H423.382L423.658 1.79907L423.934 2.77617V3.10187V2.77617H425.036L424.209 3.75327Z" fill="white"/>
<path d="M418.421 10.2672L418.972 11.2443L417.869 10.5929L417.042 11.2443L417.318 10.2672H417.594L416.491 9.2901H417.594L417.869 7.9873L418.421 9.2901H419.523L418.421 10.2672Z" fill="white"/>
<path d="M418.421 16.7809L418.972 17.758L417.869 17.1066L417.042 17.758L417.318 16.7809H417.594L416.491 15.8038H417.594L417.869 14.501L418.421 15.8038H419.523L418.421 16.7809Z" fill="white"/>
<path d="M418.421 22.9693L418.972 24.2721L417.869 23.6207L417.042 24.2721L417.318 22.9693H417.594L416.491 22.3179H417.594L417.869 21.0151L418.421 22.3179H419.523L418.421 22.9693Z" fill="white"/>
<path d="M418.421 29.4833L418.972 30.7861L417.869 30.1347L417.042 30.7861L417.318 29.4833H417.594L416.491 28.8319H417.594L417.869 27.5291L418.421 28.8319H419.523L418.421 29.4833Z" fill="white"/>
<path d="M418.421 3.75303L418.972 5.05583L417.869 4.07873L417.042 5.05583L417.318 3.75303H417.594L416.491 2.77593H417.594L417.869 1.79883L418.421 2.77593V3.10163V2.77593H419.523L418.421 3.75303Z" fill="white"/>
<path d="M412.632 10.267L413.183 11.2441L412.08 10.5927L411.253 11.2441L411.805 10.267L410.702 9.28986H411.805L412.08 7.98706L412.632 9.28986H413.734L412.632 10.267Z" fill="white"/>
<path d="M412.632 16.7809L413.183 17.758L412.08 17.1066L411.253 17.758L411.805 16.7809L410.702 15.8038H411.805L412.08 14.501L412.632 15.8038H413.734L412.632 16.7809Z" fill="white"/>
<path d="M412.632 22.9693L413.183 24.2721L412.08 23.6207L411.253 24.2721L411.805 22.9693L410.702 22.3179H411.805L412.08 21.0151L412.632 22.3179H413.734L412.632 22.9693Z" fill="white"/>
<path d="M412.632 29.4833L413.183 30.7861L412.08 30.1347L411.253 30.7861L411.805 29.4833L410.702 28.8319H411.805L412.08 27.5291L412.632 28.8319H413.734L412.632 29.4833Z" fill="white"/>
<path d="M412.631 3.75327L413.183 5.05607L412.08 4.07897L411.253 5.05607L411.804 3.75327L410.702 2.77617H411.804L412.08 1.79907L412.631 2.77617V3.10187V2.77617H413.734L412.631 3.75327Z" fill="white"/>
<path d="M643.299 0.744629H551.777V68.8159H643.299V0.744629Z" fill="#FDFFFF"/>
<path d="M643.299 33.6406H551.777V68.8162H643.299V33.6406Z" fill="#DB2E2E"/>
<path d="M643.299 23.2183H551.777V46.0172H643.299V23.2183Z" fill="#3C5EBF"/>
</svg>
