<svg width="1799" height="669" viewBox="0 0 1799 669" fill="none" xmlns="http://www.w3.org/2000/svg">
<g filter="url(#filter0_d_81_146)">
<rect x="1290" y="35" width="125" height="125" fill="white"/>
</g>
<g clip-path="url(#clip0_81_146)">
<path d="M1384.86 124.209C1386.03 124.209 1386.66 125.077 1386.66 126.15V128.186H1385.88V126.276C1385.88 125.574 1385.53 124.958 1384.81 124.958C1384.1 124.958 1383.75 125.549 1383.75 126.261V128.186H1382.97V126.26C1382.97 125.55 1382.61 124.958 1381.89 124.958C1381.17 124.958 1380.84 125.573 1380.84 126.276V128.186H1380.06V126.158C1380.06 125.077 1380.68 124.208 1381.84 124.208C1382.61 124.208 1383.17 124.603 1383.37 125.203C1383.58 124.603 1384.13 124.209 1384.86 124.209ZM1377.32 127.523C1378.03 127.523 1378.43 126.899 1378.43 126.182V124.319H1379.21V126.276C1379.21 127.396 1378.53 128.28 1377.32 128.28C1376.12 128.28 1375.44 127.388 1375.44 126.268V124.319H1376.22V126.19C1376.22 126.899 1376.61 127.523 1377.32 127.523ZM1373.23 128.272C1372.52 128.272 1371.96 127.989 1371.66 127.413L1372.26 127.082C1372.46 127.467 1372.78 127.61 1373.2 127.61C1373.64 127.61 1373.98 127.428 1373.98 127.089C1373.98 126.276 1371.77 126.892 1371.77 125.416C1371.77 124.737 1372.37 124.24 1373.21 124.24C1373.93 124.24 1374.42 124.571 1374.66 125.021L1374.06 125.361C1373.9 125.021 1373.58 124.903 1373.23 124.903C1372.86 124.903 1372.55 125.092 1372.55 125.399C1372.55 126.19 1374.76 125.613 1374.76 127.073C1374.76 127.806 1374.06 128.272 1373.23 128.272ZM1367.87 129.961H1367.09V126.244C1367.09 125.092 1367.98 124.223 1369.15 124.223C1369.42 124.219 1369.68 124.268 1369.93 124.368C1370.18 124.468 1370.41 124.616 1370.6 124.804C1370.79 124.992 1370.94 125.216 1371.04 125.464C1371.15 125.711 1371.2 125.976 1371.2 126.244C1371.2 127.413 1370.35 128.28 1369.18 128.28C1368.66 128.28 1368.19 128.051 1367.87 127.705V129.962L1367.87 129.961ZM1369.15 127.547C1369.87 127.547 1370.42 126.956 1370.42 126.252C1370.42 125.542 1369.87 124.967 1369.15 124.967C1368.42 124.967 1367.87 125.542 1367.87 126.252C1367.87 126.954 1368.42 127.547 1369.15 127.547ZM1365.27 124.319H1366.05V128.186H1365.27V124.319ZM1375.81 120.79C1369.84 120.79 1365.29 116.199 1365.29 110.611C1365.29 105.064 1369.84 100.471 1375.81 100.471C1381.78 100.471 1386.33 105.064 1386.33 110.611C1386.33 116.199 1381.78 120.79 1375.81 120.79ZM1375.81 114.323C1377.99 114.323 1379.44 112.639 1379.44 110.65C1379.44 108.622 1377.99 106.938 1375.81 106.938C1373.63 106.938 1372.17 108.622 1372.17 110.649C1372.17 112.639 1373.63 114.323 1375.81 114.323ZM1352.28 129.591C1347.54 129.591 1344.09 127.487 1342.33 123.736L1348.03 120.675C1348.64 121.975 1349.79 123.316 1352.17 123.316C1354.65 123.316 1356.3 121.746 1356.49 118.991C1355.57 119.795 1354.12 120.407 1351.94 120.407C1346.62 120.407 1342.33 116.313 1342.33 110.573C1342.33 105.025 1346.89 100.51 1352.85 100.51C1358.98 100.51 1363.38 104.758 1363.38 110.611V118.188C1363.38 125.075 1358.59 129.591 1352.28 129.591ZM1352.74 113.94C1354.81 113.94 1356.37 112.524 1356.37 110.42C1356.37 108.354 1354.81 106.976 1352.74 106.976C1350.71 106.976 1349.1 108.354 1349.1 110.42C1349.1 112.524 1350.71 113.94 1352.74 113.94ZM1330.65 120.79C1324.68 120.79 1320.12 116.199 1320.12 110.611C1320.12 105.064 1324.68 100.471 1330.65 100.471C1336.62 100.471 1341.17 105.064 1341.17 110.611C1341.17 116.199 1336.62 120.79 1330.65 120.79ZM1330.65 114.323C1332.83 114.323 1334.28 112.639 1334.28 110.65C1334.28 108.622 1332.83 106.938 1330.65 106.938C1328.47 106.938 1327.01 108.622 1327.01 110.649C1327.01 112.639 1328.47 114.323 1330.65 114.323ZM1310.55 92.2822H1317.43V120.216H1310.55V92.2822ZM1394.14 102.818C1394.14 103.445 1393.89 104.046 1393.45 104.489C1393 104.933 1392.4 105.182 1391.78 105.182C1391.15 105.182 1390.55 104.933 1390.11 104.489C1389.66 104.046 1389.41 103.445 1389.41 102.818C1389.41 102.191 1389.66 101.59 1390.11 101.147C1390.55 100.704 1391.15 100.455 1391.78 100.455C1392.4 100.455 1393 100.704 1393.45 101.147C1393.89 101.59 1394.14 102.191 1394.14 102.818Z" fill="#113441" fill-opacity="0.2"/>
<path fill-rule="evenodd" clip-rule="evenodd" d="M1375.3 76.4224C1382.09 83.2134 1386.13 92.2714 1386.66 101.861C1384.65 99.5127 1381.93 97.8925 1378.91 97.2519C1377.53 90.8882 1374.24 85.098 1369.48 80.6586C1364.71 76.2191 1358.71 73.343 1352.26 72.4161C1345.82 71.4893 1339.24 72.5562 1333.42 75.4735C1327.6 78.3909 1322.81 83.0191 1319.7 88.7369H1311.83C1314.33 82.8631 1318.23 77.692 1323.19 73.6776C1328.15 69.6632 1334.02 66.9281 1340.29 65.7123C1346.56 64.4965 1353.02 64.8373 1359.13 66.7046C1365.23 68.5719 1370.78 71.9088 1375.3 76.4224Z" fill="#FFD43E" fill-opacity="0.2"/>
<path fill-rule="evenodd" clip-rule="evenodd" d="M1370.28 81.4367C1374.62 85.7707 1377.61 91.2612 1378.91 97.2518C1377.91 97.0391 1376.88 96.9256 1375.81 96.9256C1374.37 96.9256 1372.98 97.1313 1371.68 97.5154C1370.22 92.1394 1367 87.4086 1362.54 84.0837C1358.07 80.7588 1352.61 79.0332 1347.05 79.1843C1341.48 79.3354 1336.12 81.3546 1331.84 84.917C1327.56 88.4794 1324.61 93.3779 1323.45 98.8248C1322.56 99.3349 1321.73 99.9408 1320.98 100.632V88.7368H1319.7C1322.07 84.3797 1325.43 80.6361 1329.5 77.8032C1333.57 74.9704 1338.25 73.1264 1343.16 72.4177C1348.07 71.7091 1353.08 72.1553 1357.79 73.7209C1362.5 75.2865 1366.77 77.9284 1370.28 81.4367Z" fill="#EE8E1D" fill-opacity="0.2"/>
<path d="M1365.27 101.504C1364.73 97.6804 1362.95 94.1389 1360.21 91.418C1357.47 88.6971 1353.91 86.9456 1350.09 86.4298C1346.26 85.9141 1342.37 86.6622 1339.01 88.5606C1335.64 90.4589 1332.99 93.4036 1331.46 96.9468C1335.66 97.1737 1339.34 99.1603 1341.75 102.16C1344.31 98.9807 1348.32 96.9645 1352.85 96.9645C1357.71 96.9645 1361.89 99.0942 1364.4 102.564C1364.67 102.196 1364.96 101.843 1365.27 101.504Z" fill="#971C1C" fill-opacity="0.2"/>
<path fill-rule="evenodd" clip-rule="evenodd" d="M1371.68 97.5153C1369.22 98.2338 1367 99.6134 1365.27 101.504C1364.73 97.6809 1362.95 94.1399 1360.21 91.4194C1357.47 88.6989 1353.91 86.9477 1350.09 86.4319C1346.26 85.9162 1342.37 86.6641 1339.01 88.5621C1335.64 90.46 1332.99 93.4041 1331.46 96.9468C1331.19 96.9325 1330.92 96.9254 1330.65 96.9256C1328 96.9256 1325.55 97.6181 1323.45 98.8248C1324.61 93.3787 1327.57 88.4811 1331.85 84.9195C1336.13 81.3579 1341.48 79.3392 1347.05 79.1881C1352.61 79.037 1358.07 80.7622 1362.53 84.0863C1367 87.4103 1370.22 92.1402 1371.68 97.5153H1371.68Z" fill="#D62727" fill-opacity="0.2"/>
</g>
<g filter="url(#filter1_d_81_146)">
<rect x="1602" y="264" width="143" height="143" fill="white"/>
</g>
<g clip-path="url(#clip1_81_146)">
<path d="M1709.18 364.674C1710.45 364.674 1711.14 365.622 1711.14 366.794V369.018H1710.29V366.932C1710.29 366.165 1709.91 365.493 1709.12 365.493C1708.35 365.493 1707.96 366.138 1707.96 366.915V369.018H1707.11V366.914C1707.11 366.14 1706.72 365.493 1705.93 365.493C1705.14 365.493 1704.79 366.164 1704.79 366.932V369.018H1703.94V366.803C1703.94 365.622 1704.61 364.673 1705.88 364.673C1706.72 364.673 1707.33 365.104 1707.55 365.76C1707.78 365.104 1708.37 364.674 1709.18 364.674ZM1700.93 368.294C1701.72 368.294 1702.15 367.613 1702.15 366.829V364.795H1703V366.932C1703 368.156 1702.26 369.122 1700.93 369.122C1699.62 369.122 1698.88 368.147 1698.88 366.923V364.795H1699.73V366.838C1699.73 367.613 1700.16 368.294 1700.93 368.294ZM1696.47 369.113C1695.69 369.113 1695.09 368.803 1694.76 368.174L1695.41 367.813C1695.63 368.233 1695.97 368.39 1696.44 368.39C1696.92 368.39 1697.29 368.191 1697.29 367.82C1697.29 366.932 1694.87 367.605 1694.87 365.992C1694.87 365.251 1695.53 364.708 1696.45 364.708C1697.23 364.708 1697.77 365.069 1698.03 365.561L1697.38 365.933C1697.2 365.561 1696.85 365.432 1696.47 365.432C1696.07 365.432 1695.72 365.639 1695.72 365.974C1695.72 366.838 1698.15 366.208 1698.15 367.802C1698.15 368.604 1697.37 369.113 1696.47 369.113ZM1690.62 370.957H1689.76V366.897C1689.76 365.639 1690.74 364.69 1692.01 364.69C1692.3 364.685 1692.59 364.739 1692.87 364.848C1693.14 364.957 1693.39 365.119 1693.59 365.324C1693.8 365.53 1693.97 365.775 1694.08 366.045C1694.19 366.315 1694.25 366.605 1694.25 366.897C1694.25 368.174 1693.33 369.122 1692.04 369.122C1691.48 369.122 1690.96 368.871 1690.61 368.493V370.959L1690.62 370.957ZM1692.01 368.32C1692.8 368.32 1693.4 367.675 1693.4 366.906C1693.4 366.131 1692.8 365.502 1692.01 365.502C1691.22 365.502 1690.62 366.131 1690.62 366.906C1690.62 367.673 1691.22 368.32 1692.01 368.32ZM1687.78 364.795H1688.63V369.018H1687.78V364.795ZM1699.29 360.94C1692.77 360.94 1687.79 355.925 1687.79 349.821C1687.79 343.762 1692.77 338.745 1699.29 338.745C1705.81 338.745 1710.78 343.762 1710.78 349.821C1710.78 355.925 1705.81 360.94 1699.29 360.94ZM1699.29 353.876C1701.67 353.876 1703.26 352.036 1703.26 349.864C1703.26 347.649 1701.67 345.809 1699.29 345.809C1696.9 345.809 1695.32 347.649 1695.32 349.863C1695.32 352.036 1696.9 353.876 1699.29 353.876ZM1673.59 370.553C1668.4 370.553 1664.64 368.255 1662.72 364.158L1668.95 360.815C1669.62 362.235 1670.87 363.699 1673.46 363.699C1676.18 363.699 1677.98 361.984 1678.19 358.975C1677.18 359.853 1675.59 360.522 1673.21 360.522C1667.4 360.522 1662.72 356.05 1662.72 349.78C1662.72 343.719 1667.69 338.788 1674.21 338.788C1680.9 338.788 1685.71 343.427 1685.71 349.821V358.097C1685.71 365.621 1680.48 370.553 1673.59 370.553ZM1674.09 353.458C1676.35 353.458 1678.06 351.911 1678.06 349.612C1678.06 347.356 1676.35 345.85 1674.09 345.85C1671.87 345.85 1670.12 347.356 1670.12 349.612C1670.12 351.911 1671.87 353.458 1674.09 353.458ZM1649.96 360.94C1643.44 360.94 1638.46 355.925 1638.46 349.821C1638.46 343.762 1643.44 338.745 1649.96 338.745C1656.48 338.745 1661.45 343.762 1661.45 349.821C1661.45 355.925 1656.48 360.94 1649.96 360.94ZM1649.96 353.876C1652.34 353.876 1653.93 352.036 1653.93 349.864C1653.93 347.649 1652.34 345.809 1649.96 345.809C1647.57 345.809 1645.99 347.649 1645.99 349.863C1645.99 352.036 1647.57 353.876 1649.96 353.876ZM1628 329.801H1635.52V360.312H1628V329.801ZM1719.31 341.309C1719.31 341.994 1719.04 342.65 1718.55 343.135C1718.07 343.619 1717.41 343.891 1716.73 343.891C1716.04 343.891 1715.39 343.619 1714.9 343.135C1714.42 342.65 1714.15 341.994 1714.15 341.309C1714.15 340.624 1714.42 339.968 1714.9 339.483C1715.39 338.999 1716.04 338.727 1716.73 338.727C1717.41 338.727 1718.07 338.999 1718.55 339.483C1719.04 339.968 1719.31 340.624 1719.31 341.309Z" fill="#113441" fill-opacity="0.2"/>
<path fill-rule="evenodd" clip-rule="evenodd" d="M1698.73 312.477C1706.15 319.895 1710.57 329.789 1711.14 340.263C1708.95 337.698 1705.97 335.929 1702.67 335.229C1701.17 328.278 1697.57 321.953 1692.37 317.104C1687.17 312.255 1680.61 309.113 1673.57 308.101C1666.53 307.088 1659.35 308.254 1652.99 311.44C1646.63 314.627 1641.4 319.682 1638 325.928H1629.4C1632.13 319.512 1636.39 313.864 1641.81 309.479C1647.23 305.094 1653.65 302.106 1660.49 300.778C1667.33 299.45 1674.4 299.822 1681.07 301.862C1687.73 303.902 1693.8 307.546 1698.73 312.477Z" fill="#FFD43E" fill-opacity="0.2"/>
<path fill-rule="evenodd" clip-rule="evenodd" d="M1693.25 317.954C1697.99 322.688 1701.26 328.685 1702.67 335.229C1701.59 334.997 1700.45 334.873 1699.29 334.873C1697.71 334.873 1696.2 335.097 1694.77 335.517C1693.19 329.645 1689.67 324.477 1684.79 320.845C1679.91 317.213 1673.95 315.329 1667.87 315.494C1661.79 315.659 1655.94 317.864 1651.26 321.755C1646.59 325.647 1643.36 330.997 1642.09 336.947C1641.12 337.504 1640.22 338.166 1639.4 338.921V325.928H1638C1640.59 321.169 1644.26 317.079 1648.7 313.985C1653.15 310.891 1658.26 308.877 1663.63 308.102C1668.99 307.328 1674.46 307.816 1679.6 309.526C1684.75 311.236 1689.42 314.122 1693.25 317.954Z" fill="#EE8E1D" fill-opacity="0.2"/>
<path d="M1687.78 339.873C1687.18 335.697 1685.24 331.829 1682.25 328.857C1679.25 325.884 1675.37 323.971 1671.19 323.408C1667.01 322.844 1662.76 323.662 1659.09 325.735C1655.41 327.809 1652.52 331.025 1650.84 334.896C1655.44 335.143 1659.45 337.314 1662.08 340.59C1664.88 337.117 1669.26 334.915 1674.21 334.915C1679.52 334.915 1684.08 337.241 1686.82 341.031C1687.12 340.63 1687.44 340.244 1687.78 339.873Z" fill="#971C1C" fill-opacity="0.2"/>
<path fill-rule="evenodd" clip-rule="evenodd" d="M1694.77 335.517C1692.09 336.301 1689.67 337.808 1687.78 339.874C1687.18 335.698 1685.24 331.83 1682.25 328.858C1679.25 325.887 1675.37 323.974 1671.19 323.41C1667.01 322.847 1662.76 323.664 1659.09 325.737C1655.41 327.81 1652.52 331.026 1650.84 334.896C1650.55 334.88 1650.25 334.872 1649.96 334.873C1647.07 334.873 1644.38 335.629 1642.09 336.947C1643.36 330.998 1646.59 325.649 1651.27 321.758C1655.94 317.868 1661.79 315.663 1667.87 315.498C1673.95 315.333 1679.91 317.217 1684.79 320.848C1689.67 324.479 1693.19 329.645 1694.77 335.517H1694.77Z" fill="#D62727" fill-opacity="0.2"/>
</g>
<g filter="url(#filter2_d_81_146)">
<rect x="1489" y="98" width="100" height="100" fill="white"/>
</g>
<g clip-path="url(#clip2_81_146)">
<path d="M1562.13 166.628C1562.97 166.628 1563.42 167.249 1563.42 168.017V169.476H1562.86V168.108C1562.86 167.605 1562.61 167.164 1562.09 167.164C1561.59 167.164 1561.33 167.587 1561.33 168.097V169.476H1560.77V168.096C1560.77 167.588 1560.52 167.164 1560.01 167.164C1559.49 167.164 1559.25 167.604 1559.25 168.108V169.476H1558.69V168.023C1558.69 167.249 1559.14 166.627 1559.97 166.627C1560.52 166.627 1560.92 166.909 1561.06 167.339C1561.21 166.909 1561.6 166.628 1562.13 166.628ZM1556.73 169.001C1557.24 169.001 1557.52 168.554 1557.52 168.04V166.706H1558.08V168.108C1558.08 168.91 1557.6 169.543 1556.73 169.543C1555.87 169.543 1555.38 168.904 1555.38 168.102V166.706H1555.94V168.046C1555.94 168.554 1556.22 169.001 1556.73 169.001ZM1553.8 169.537C1553.29 169.537 1552.89 169.334 1552.68 168.922L1553.11 168.685C1553.25 168.961 1553.47 169.063 1553.78 169.063C1554.1 169.063 1554.34 168.933 1554.34 168.69C1554.34 168.108 1552.75 168.549 1552.75 167.492C1552.75 167.006 1553.18 166.65 1553.79 166.65C1554.3 166.65 1554.65 166.887 1554.83 167.209L1554.4 167.453C1554.28 167.209 1554.05 167.124 1553.8 167.124C1553.54 167.124 1553.31 167.26 1553.31 167.48C1553.31 168.046 1554.9 167.633 1554.9 168.678C1554.9 169.204 1554.39 169.537 1553.8 169.537ZM1549.96 170.747H1549.4V168.085C1549.4 167.26 1550.04 166.638 1550.88 166.638C1551.07 166.635 1551.26 166.67 1551.44 166.742C1551.62 166.813 1551.78 166.919 1551.91 167.054C1552.05 167.188 1552.16 167.349 1552.23 167.526C1552.31 167.703 1552.35 167.893 1552.35 168.085C1552.35 168.922 1551.74 169.543 1550.9 169.543C1550.53 169.543 1550.19 169.379 1549.96 169.131V170.748L1549.96 170.747ZM1550.88 169.018C1551.39 169.018 1551.79 168.595 1551.79 168.091C1551.79 167.582 1551.39 167.17 1550.88 167.17C1550.36 167.17 1549.96 167.582 1549.96 168.091C1549.96 168.594 1550.36 169.018 1550.88 169.018ZM1548.1 166.706H1548.66V169.476H1548.1V166.706ZM1555.65 164.179C1551.37 164.179 1548.11 160.891 1548.11 156.889C1548.11 152.917 1551.37 149.628 1555.65 149.628C1559.92 149.628 1563.18 152.917 1563.18 156.889C1563.18 160.891 1559.92 164.179 1555.65 164.179ZM1555.65 159.548C1557.21 159.548 1558.25 158.342 1558.25 156.917C1558.25 155.465 1557.21 154.259 1555.65 154.259C1554.08 154.259 1553.04 155.465 1553.04 156.917C1553.04 158.342 1554.08 159.548 1555.65 159.548ZM1538.8 170.482C1535.4 170.482 1532.93 168.975 1531.67 166.289L1535.76 164.097C1536.19 165.028 1537.02 165.988 1538.72 165.988C1540.5 165.988 1541.67 164.864 1541.81 162.891C1541.15 163.466 1540.11 163.905 1538.55 163.905C1534.74 163.905 1531.67 160.973 1531.67 156.862C1531.67 152.889 1534.93 149.656 1539.21 149.656C1543.59 149.656 1546.74 152.698 1546.74 156.889V162.315C1546.74 167.248 1543.32 170.482 1538.8 170.482ZM1539.13 159.274C1540.61 159.274 1541.73 158.26 1541.73 156.752C1541.73 155.273 1540.61 154.286 1539.13 154.286C1537.67 154.286 1536.52 155.273 1536.52 156.752C1536.52 158.26 1537.67 159.274 1539.13 159.274ZM1523.3 164.179C1519.03 164.179 1515.77 160.891 1515.77 156.889C1515.77 152.917 1519.03 149.628 1523.3 149.628C1527.58 149.628 1530.84 152.917 1530.84 156.889C1530.84 160.891 1527.58 164.179 1523.3 164.179ZM1523.3 159.548C1524.87 159.548 1525.91 158.342 1525.91 156.917C1525.91 155.465 1524.87 154.259 1523.3 154.259C1521.74 154.259 1520.7 155.465 1520.7 156.917C1520.7 158.342 1521.74 159.548 1523.3 159.548ZM1508.91 143.763H1513.84V163.768H1508.91V143.763ZM1568.77 151.309C1568.77 151.758 1568.6 152.188 1568.28 152.506C1567.96 152.823 1567.53 153.001 1567.08 153.001C1566.63 153.001 1566.2 152.823 1565.89 152.506C1565.57 152.188 1565.39 151.758 1565.39 151.309C1565.39 150.86 1565.57 150.429 1565.89 150.112C1566.2 149.794 1566.63 149.616 1567.08 149.616C1567.53 149.616 1567.96 149.794 1568.28 150.112C1568.6 150.429 1568.77 150.86 1568.77 151.309Z" fill="#113441" fill-opacity="0.2"/>
<path fill-rule="evenodd" clip-rule="evenodd" d="M1555.28 132.405C1560.14 137.269 1563.04 143.756 1563.42 150.623C1561.98 148.941 1560.03 147.781 1557.87 147.322C1556.88 142.765 1554.52 138.618 1551.11 135.439C1547.7 132.26 1543.4 130.2 1538.78 129.536C1534.17 128.873 1529.46 129.637 1525.29 131.726C1521.12 133.815 1517.69 137.13 1515.46 141.224H1509.83C1511.62 137.018 1514.41 133.315 1517.96 130.44C1521.52 127.565 1525.72 125.606 1530.21 124.735C1534.7 123.865 1539.33 124.109 1543.7 125.446C1548.07 126.783 1552.05 129.173 1555.28 132.405Z" fill="#FFD43E" fill-opacity="0.2"/>
<path fill-rule="evenodd" clip-rule="evenodd" d="M1551.69 135.996C1554.79 139.1 1556.94 143.032 1557.87 147.322C1557.15 147.17 1556.41 147.089 1555.65 147.089C1554.61 147.089 1553.62 147.236 1552.69 147.511C1551.65 143.661 1549.34 140.273 1546.14 137.892C1542.94 135.511 1539.04 134.275 1535.05 134.383C1531.06 134.492 1527.23 135.938 1524.16 138.489C1521.1 141.04 1518.98 144.548 1518.15 148.449C1517.51 148.814 1516.92 149.248 1516.38 149.743V141.224H1515.46C1517.16 138.104 1519.57 135.423 1522.48 133.394C1525.4 131.366 1528.75 130.045 1532.27 129.538C1535.78 129.03 1539.37 129.35 1542.74 130.471C1546.11 131.592 1549.18 133.484 1551.69 135.996Z" fill="#EE8E1D" fill-opacity="0.2"/>
<path d="M1548.1 150.367C1547.71 147.629 1546.44 145.093 1544.48 143.145C1542.51 141.196 1539.97 139.942 1537.23 139.572C1534.49 139.203 1531.7 139.739 1529.29 141.098C1526.88 142.458 1524.98 144.566 1523.88 147.104C1526.9 147.266 1529.53 148.689 1531.25 150.837C1533.09 148.56 1535.96 147.117 1539.21 147.117C1542.69 147.117 1545.68 148.642 1547.47 151.127C1547.67 150.863 1547.88 150.61 1548.1 150.367Z" fill="#971C1C" fill-opacity="0.2"/>
<path fill-rule="evenodd" clip-rule="evenodd" d="M1552.69 147.511C1550.93 148.025 1549.34 149.013 1548.1 150.367C1547.71 147.629 1546.44 145.094 1544.47 143.145C1542.51 141.197 1539.97 139.943 1537.23 139.574C1534.49 139.204 1531.7 139.74 1529.29 141.099C1526.88 142.458 1524.98 144.567 1523.88 147.104C1523.69 147.093 1523.5 147.088 1523.3 147.089C1521.41 147.089 1519.65 147.584 1518.15 148.449C1518.98 144.548 1521.1 141.041 1524.16 138.49C1527.23 135.94 1531.06 134.494 1535.05 134.386C1539.03 134.278 1542.94 135.513 1546.14 137.894C1549.34 140.274 1551.65 143.662 1552.69 147.511H1552.69Z" fill="#D62727" fill-opacity="0.2"/>
</g>
<g filter="url(#filter3_d_81_146)">
<rect x="1358" y="229" width="100" height="100" fill="white"/>
</g>
<g clip-path="url(#clip3_81_146)">
<path d="M1431.22 298.402C1432.06 298.402 1432.51 299.023 1432.51 299.792V301.25H1431.95V299.883C1431.95 299.38 1431.7 298.939 1431.18 298.939C1430.68 298.939 1430.42 299.362 1430.42 299.872V301.25H1429.87V299.871C1429.87 299.363 1429.61 298.939 1429.1 298.939C1428.58 298.939 1428.34 299.379 1428.34 299.883V301.25H1427.79V299.798C1427.79 299.023 1428.23 298.401 1429.06 298.401C1429.61 298.401 1430.01 298.684 1430.15 299.114C1430.31 298.684 1430.7 298.402 1431.22 298.402ZM1425.82 300.775C1426.33 300.775 1426.61 300.329 1426.61 299.815V298.481H1427.17V299.883C1427.17 300.685 1426.69 301.318 1425.82 301.318C1424.96 301.318 1424.47 300.679 1424.47 299.877V298.481H1425.03V299.821C1425.03 300.329 1425.31 300.775 1425.82 300.775ZM1422.89 301.312C1422.38 301.312 1421.98 301.109 1421.77 300.697L1422.2 300.46C1422.34 300.736 1422.57 300.838 1422.87 300.838C1423.19 300.838 1423.43 300.708 1423.43 300.465C1423.43 299.883 1421.84 300.323 1421.84 299.266C1421.84 298.781 1422.27 298.424 1422.88 298.424C1423.39 298.424 1423.74 298.661 1423.92 298.984L1423.49 299.227C1423.37 298.984 1423.14 298.899 1422.89 298.899C1422.63 298.899 1422.4 299.034 1422.4 299.255C1422.4 299.821 1423.99 299.408 1423.99 300.453C1423.99 300.979 1423.48 301.312 1422.89 301.312ZM1419.05 302.521H1418.49V299.86C1418.49 299.034 1419.13 298.412 1419.97 298.412C1420.16 298.409 1420.35 298.445 1420.53 298.516C1420.71 298.588 1420.87 298.694 1421 298.828C1421.14 298.963 1421.25 299.124 1421.32 299.301C1421.4 299.478 1421.44 299.668 1421.44 299.86C1421.44 300.697 1420.83 301.318 1419.99 301.318C1419.62 301.318 1419.28 301.154 1419.05 300.906V302.522L1419.05 302.521ZM1419.97 300.792C1420.48 300.792 1420.88 300.369 1420.88 299.866C1420.88 299.357 1420.48 298.945 1419.97 298.945C1419.45 298.945 1419.05 299.357 1419.05 299.866C1419.05 300.368 1419.45 300.792 1419.97 300.792ZM1417.19 298.481H1417.75V301.25H1417.19V298.481ZM1424.74 295.954C1420.46 295.954 1417.2 292.666 1417.2 288.664C1417.2 284.691 1420.46 281.402 1424.74 281.402C1429.01 281.402 1432.27 284.691 1432.27 288.664C1432.27 292.666 1429.01 295.954 1424.74 295.954ZM1424.74 291.323C1426.3 291.323 1427.34 290.116 1427.34 288.692C1427.34 287.24 1426.3 286.034 1424.74 286.034C1423.18 286.034 1422.13 287.24 1422.13 288.691C1422.13 290.116 1423.18 291.323 1424.74 291.323ZM1407.89 302.257C1404.49 302.257 1402.02 300.75 1400.76 298.064L1404.85 295.872C1405.28 296.803 1406.11 297.762 1407.81 297.762C1409.59 297.762 1410.77 296.638 1410.9 294.666C1410.24 295.241 1409.2 295.68 1407.64 295.68C1403.83 295.68 1400.76 292.748 1400.76 288.637C1400.76 284.663 1404.02 281.43 1408.3 281.43C1412.68 281.43 1415.84 284.472 1415.84 288.664V294.09C1415.84 299.023 1412.41 302.257 1407.89 302.257ZM1408.22 291.048C1409.7 291.048 1410.82 290.034 1410.82 288.527C1410.82 287.048 1409.7 286.061 1408.22 286.061C1406.76 286.061 1405.61 287.048 1405.61 288.527C1405.61 290.034 1406.76 291.048 1408.22 291.048ZM1392.4 295.954C1388.12 295.954 1384.86 292.666 1384.86 288.664C1384.86 284.691 1388.12 281.402 1392.4 281.402C1396.67 281.402 1399.93 284.691 1399.93 288.664C1399.93 292.666 1396.67 295.954 1392.4 295.954ZM1392.4 291.323C1393.96 291.323 1395 290.116 1395 288.692C1395 287.24 1393.96 286.034 1392.4 286.034C1390.83 286.034 1389.79 287.24 1389.79 288.691C1389.79 290.116 1390.83 291.323 1392.4 291.323ZM1378 275.538H1382.93V295.542H1378V275.538ZM1437.87 283.083C1437.87 283.532 1437.69 283.963 1437.37 284.28C1437.05 284.598 1436.62 284.776 1436.17 284.776C1435.72 284.776 1435.29 284.598 1434.98 284.28C1434.66 283.963 1434.48 283.532 1434.48 283.083C1434.48 282.634 1434.66 282.204 1434.98 281.886C1435.29 281.569 1435.72 281.391 1436.17 281.391C1436.62 281.391 1437.05 281.569 1437.37 281.886C1437.69 282.204 1437.87 282.634 1437.87 283.083Z" fill="#113441" fill-opacity="0.2"/>
<path fill-rule="evenodd" clip-rule="evenodd" d="M1424.37 264.18C1429.23 269.043 1432.13 275.53 1432.51 282.398C1431.07 280.716 1429.12 279.556 1426.96 279.097C1425.97 274.54 1423.61 270.393 1420.2 267.214C1416.79 264.035 1412.49 261.975 1407.88 261.311C1403.26 260.647 1398.55 261.411 1394.38 263.501C1390.21 265.59 1386.79 268.904 1384.55 272.999H1378.92C1380.71 268.793 1383.5 265.089 1387.06 262.214C1390.61 259.34 1394.81 257.381 1399.3 256.51C1403.79 255.639 1408.42 255.883 1412.79 257.221C1417.16 258.558 1421.14 260.948 1424.37 264.18Z" fill="#FFD43E" fill-opacity="0.2"/>
<path fill-rule="evenodd" clip-rule="evenodd" d="M1420.78 267.771C1423.88 270.875 1426.03 274.807 1426.96 279.097C1426.24 278.945 1425.5 278.863 1424.74 278.863C1423.71 278.863 1422.71 279.011 1421.78 279.286C1420.74 275.436 1418.43 272.048 1415.23 269.667C1412.03 267.286 1408.13 266.05 1404.14 266.158C1400.15 266.266 1396.32 267.712 1393.25 270.263C1390.19 272.815 1388.07 276.323 1387.24 280.223C1386.6 280.589 1386.01 281.023 1385.47 281.517V272.999H1384.55C1386.25 269.879 1388.66 267.198 1391.57 265.169C1394.49 263.14 1397.84 261.82 1401.36 261.312C1404.87 260.805 1408.46 261.124 1411.83 262.245C1415.2 263.367 1418.27 265.259 1420.78 267.771Z" fill="#EE8E1D" fill-opacity="0.2"/>
<path d="M1417.19 282.142C1416.8 279.404 1415.53 276.868 1413.57 274.919C1411.6 272.971 1409.06 271.716 1406.32 271.347C1403.58 270.978 1400.79 271.513 1398.38 272.873C1395.97 274.232 1394.07 276.341 1392.97 278.879C1395.99 279.041 1398.62 280.464 1400.34 282.612C1402.18 280.335 1405.05 278.891 1408.3 278.891C1411.78 278.891 1414.77 280.416 1416.57 282.901C1416.76 282.638 1416.97 282.385 1417.19 282.142Z" fill="#971C1C" fill-opacity="0.2"/>
<path fill-rule="evenodd" clip-rule="evenodd" d="M1421.78 279.286C1420.02 279.8 1418.43 280.788 1417.19 282.142C1416.8 279.404 1415.53 276.868 1413.57 274.92C1411.6 272.972 1409.06 271.718 1406.32 271.348C1403.58 270.979 1400.79 271.515 1398.38 272.874C1395.97 274.233 1394.07 276.341 1392.97 278.878C1392.78 278.868 1392.59 278.863 1392.4 278.863C1390.5 278.863 1388.74 279.359 1387.24 280.223C1388.07 276.323 1390.19 272.816 1393.25 270.265C1396.32 267.714 1400.15 266.269 1404.14 266.161C1408.13 266.052 1412.03 267.288 1415.23 269.668C1418.43 272.049 1420.74 275.436 1421.78 279.286H1421.78Z" fill="#D62727" fill-opacity="0.2"/>
</g>
<g filter="url(#filter4_d_81_146)">
<rect x="1313" y="366" width="150" height="150" fill="white"/>
</g>
<g clip-path="url(#clip4_81_146)">
<path d="M1423.18 470.674C1424.45 470.674 1425.14 471.622 1425.14 472.794V475.018H1424.29V472.932C1424.29 472.165 1423.91 471.493 1423.12 471.493C1422.35 471.493 1421.96 472.138 1421.96 472.915V475.018H1421.11V472.914C1421.11 472.14 1420.72 471.493 1419.93 471.493C1419.14 471.493 1418.79 472.164 1418.79 472.932V475.018H1417.94V472.803C1417.94 471.622 1418.61 470.673 1419.88 470.673C1420.72 470.673 1421.33 471.104 1421.55 471.76C1421.78 471.104 1422.37 470.674 1423.18 470.674ZM1414.93 474.294C1415.72 474.294 1416.15 473.613 1416.15 472.829V470.795H1417V472.932C1417 474.156 1416.26 475.122 1414.93 475.122C1413.62 475.122 1412.88 474.147 1412.88 472.923V470.795H1413.73V472.838C1413.73 473.613 1414.16 474.294 1414.93 474.294ZM1410.47 475.113C1409.69 475.113 1409.09 474.803 1408.76 474.174L1409.41 473.813C1409.63 474.233 1409.97 474.39 1410.44 474.39C1410.92 474.39 1411.29 474.191 1411.29 473.82C1411.29 472.932 1408.87 473.605 1408.87 471.992C1408.87 471.251 1409.53 470.708 1410.45 470.708C1411.23 470.708 1411.77 471.069 1412.03 471.561L1411.38 471.933C1411.2 471.561 1410.85 471.432 1410.47 471.432C1410.07 471.432 1409.72 471.639 1409.72 471.974C1409.72 472.838 1412.15 472.208 1412.15 473.802C1412.15 474.604 1411.37 475.113 1410.47 475.113ZM1404.62 476.957H1403.76V472.897C1403.76 471.639 1404.74 470.69 1406.01 470.69C1406.3 470.685 1406.59 470.739 1406.87 470.848C1407.14 470.957 1407.39 471.119 1407.59 471.324C1407.8 471.53 1407.97 471.775 1408.08 472.045C1408.19 472.315 1408.25 472.605 1408.25 472.897C1408.25 474.174 1407.33 475.122 1406.04 475.122C1405.48 475.122 1404.96 474.871 1404.61 474.493V476.959L1404.62 476.957ZM1406.01 474.32C1406.8 474.32 1407.4 473.675 1407.4 472.906C1407.4 472.131 1406.8 471.502 1406.01 471.502C1405.22 471.502 1404.62 472.131 1404.62 472.906C1404.62 473.673 1405.22 474.32 1406.01 474.32ZM1401.78 470.795H1402.63V475.018H1401.78V470.795ZM1413.29 466.94C1406.77 466.94 1401.79 461.925 1401.79 455.821C1401.79 449.762 1406.77 444.745 1413.29 444.745C1419.81 444.745 1424.78 449.762 1424.78 455.821C1424.78 461.925 1419.81 466.94 1413.29 466.94ZM1413.29 459.876C1415.67 459.876 1417.26 458.036 1417.26 455.864C1417.26 453.649 1415.67 451.809 1413.29 451.809C1410.9 451.809 1409.32 453.649 1409.32 455.863C1409.32 458.036 1410.9 459.876 1413.29 459.876ZM1387.59 476.553C1382.4 476.553 1378.64 474.255 1376.72 470.158L1382.95 466.815C1383.62 468.235 1384.87 469.699 1387.46 469.699C1390.18 469.699 1391.98 467.984 1392.19 464.975C1391.18 465.853 1389.59 466.522 1387.21 466.522C1381.4 466.522 1376.72 462.05 1376.72 455.78C1376.72 449.719 1381.69 444.788 1388.21 444.788C1394.9 444.788 1399.71 449.427 1399.71 455.821V464.097C1399.71 471.621 1394.48 476.553 1387.59 476.553ZM1388.09 459.458C1390.35 459.458 1392.06 457.911 1392.06 455.612C1392.06 453.356 1390.35 451.85 1388.09 451.85C1385.87 451.85 1384.12 453.356 1384.12 455.612C1384.12 457.911 1385.87 459.458 1388.09 459.458ZM1363.96 466.94C1357.44 466.94 1352.46 461.925 1352.46 455.821C1352.46 449.762 1357.44 444.745 1363.96 444.745C1370.48 444.745 1375.45 449.762 1375.45 455.821C1375.45 461.925 1370.48 466.94 1363.96 466.94ZM1363.96 459.876C1366.34 459.876 1367.93 458.036 1367.93 455.864C1367.93 453.649 1366.34 451.809 1363.96 451.809C1361.57 451.809 1359.99 453.649 1359.99 455.863C1359.99 458.036 1361.57 459.876 1363.96 459.876ZM1342 435.801H1349.52V466.312H1342V435.801ZM1433.31 447.309C1433.31 447.994 1433.04 448.65 1432.55 449.135C1432.07 449.619 1431.41 449.891 1430.73 449.891C1430.04 449.891 1429.39 449.619 1428.9 449.135C1428.42 448.65 1428.15 447.994 1428.15 447.309C1428.15 446.624 1428.42 445.968 1428.9 445.483C1429.39 444.999 1430.04 444.727 1430.73 444.727C1431.41 444.727 1432.07 444.999 1432.55 445.483C1433.04 445.968 1433.31 446.624 1433.31 447.309Z" fill="#113441" fill-opacity="0.2"/>
<path fill-rule="evenodd" clip-rule="evenodd" d="M1412.73 418.477C1420.15 425.895 1424.57 435.789 1425.14 446.263C1422.95 443.698 1419.97 441.929 1416.67 441.229C1415.17 434.278 1411.57 427.953 1406.37 423.104C1401.17 418.255 1394.61 415.113 1387.57 414.101C1380.53 413.088 1373.35 414.254 1366.99 417.44C1360.63 420.627 1355.4 425.682 1352 431.928H1343.4C1346.13 425.512 1350.39 419.864 1355.81 415.479C1361.23 411.094 1367.65 408.106 1374.49 406.778C1381.33 405.45 1388.4 405.822 1395.07 407.862C1401.73 409.902 1407.8 413.546 1412.73 418.477Z" fill="#FFD43E" fill-opacity="0.2"/>
<path fill-rule="evenodd" clip-rule="evenodd" d="M1407.25 423.954C1411.99 428.688 1415.26 434.685 1416.67 441.229C1415.59 440.997 1414.45 440.873 1413.29 440.873C1411.71 440.873 1410.2 441.097 1408.77 441.517C1407.19 435.645 1403.67 430.477 1398.79 426.845C1393.91 423.213 1387.95 421.329 1381.87 421.494C1375.79 421.659 1369.94 423.864 1365.26 427.755C1360.59 431.647 1357.36 436.997 1356.09 442.947C1355.12 443.504 1354.22 444.166 1353.4 444.921V431.928H1352C1354.59 427.169 1358.26 423.079 1362.7 419.985C1367.15 416.891 1372.26 414.877 1377.63 414.102C1382.99 413.328 1388.46 413.816 1393.6 415.526C1398.75 417.236 1403.42 420.122 1407.25 423.954Z" fill="#EE8E1D" fill-opacity="0.2"/>
<path d="M1401.78 445.873C1401.18 441.697 1399.24 437.829 1396.25 434.857C1393.25 431.884 1389.37 429.971 1385.19 429.408C1381.01 428.844 1376.76 429.662 1373.09 431.735C1369.41 433.809 1366.52 437.025 1364.84 440.896C1369.44 441.143 1373.45 443.314 1376.08 446.59C1378.88 443.117 1383.26 440.915 1388.21 440.915C1393.52 440.915 1398.08 443.241 1400.82 447.031C1401.12 446.63 1401.44 446.244 1401.78 445.873Z" fill="#971C1C" fill-opacity="0.2"/>
<path fill-rule="evenodd" clip-rule="evenodd" d="M1408.77 441.517C1406.09 442.301 1403.67 443.808 1401.78 445.874C1401.18 441.698 1399.24 437.83 1396.25 434.858C1393.25 431.887 1389.37 429.974 1385.19 429.41C1381.01 428.847 1376.76 429.664 1373.09 431.737C1369.41 433.81 1366.52 437.026 1364.84 440.896C1364.55 440.88 1364.25 440.872 1363.96 440.873C1361.07 440.873 1358.38 441.629 1356.09 442.947C1357.36 436.998 1360.59 431.649 1365.27 427.758C1369.94 423.868 1375.79 421.663 1381.87 421.498C1387.95 421.333 1393.91 423.217 1398.79 426.848C1403.67 430.479 1407.19 435.645 1408.77 441.517H1408.77Z" fill="#D62727" fill-opacity="0.2"/>
</g>
<g filter="url(#filter5_d_81_146)">
<rect x="360" y="428" width="145" height="145" fill="white"/>
</g>
<g clip-path="url(#clip5_81_146)">
<path d="M468.176 529.674C469.452 529.674 470.142 530.622 470.142 531.794V534.018H469.288V531.932C469.288 531.165 468.909 530.493 468.116 530.493C467.349 530.493 466.961 531.138 466.961 531.915V534.018H466.108V531.914C466.108 531.14 465.721 530.493 464.935 530.493C464.142 530.493 463.788 531.164 463.788 531.932V534.018H462.936V531.803C462.936 530.622 463.608 529.673 464.875 529.673C465.72 529.673 466.332 530.104 466.547 530.76C466.779 530.104 467.375 529.674 468.176 529.674ZM459.934 533.294C460.717 533.294 461.149 532.613 461.149 531.829V529.795H462.002V531.932C462.002 533.156 461.261 534.122 459.934 534.122C458.624 534.122 457.881 533.147 457.881 531.923V529.795H458.735V531.838C458.735 532.613 459.158 533.294 459.934 533.294ZM455.475 534.113C454.69 534.113 454.087 533.803 453.758 533.174L454.414 532.813C454.629 533.233 454.974 533.39 455.44 533.39C455.923 533.39 456.293 533.191 456.293 532.82C456.293 531.932 453.872 532.605 453.872 530.992C453.872 530.251 454.526 529.708 455.449 529.708C456.233 529.708 456.767 530.069 457.034 530.561L456.38 530.933C456.199 530.561 455.855 530.432 455.466 530.432C455.07 530.432 454.725 530.639 454.725 530.974C454.725 531.838 457.147 531.208 457.147 532.802C457.147 533.604 456.372 534.113 455.475 534.113ZM449.616 535.957H448.761V531.897C448.761 530.639 449.736 529.69 451.011 529.69C451.304 529.685 451.594 529.739 451.866 529.848C452.138 529.957 452.385 530.119 452.594 530.324C452.802 530.53 452.968 530.775 453.081 531.045C453.194 531.315 453.252 531.605 453.252 531.897C453.252 533.174 452.33 534.122 451.045 534.122C450.477 534.122 449.96 533.871 449.614 533.493V535.959L449.616 535.957ZM451.011 533.32C451.796 533.32 452.399 532.675 452.399 531.906C452.399 531.131 451.796 530.502 451.011 530.502C450.218 530.502 449.616 531.131 449.616 531.906C449.616 532.673 450.218 533.32 451.011 533.32ZM446.777 529.795H447.629V534.018H446.777V529.795ZM458.288 525.94C451.767 525.94 446.794 520.925 446.794 514.821C446.794 508.762 451.767 503.745 458.288 503.745C464.807 503.745 469.782 508.762 469.782 514.821C469.782 520.925 464.808 525.94 458.288 525.94ZM458.288 518.876C460.67 518.876 462.259 517.036 462.259 514.864C462.259 512.649 460.671 510.809 458.288 510.809C455.905 510.809 454.317 512.649 454.317 514.863C454.317 517.036 455.905 518.876 458.288 518.876ZM432.587 535.553C427.404 535.553 423.641 533.255 421.719 529.158L427.948 525.815C428.616 527.235 429.871 528.699 432.462 528.699C435.178 528.699 436.976 526.984 437.185 523.975C436.181 524.853 434.593 525.522 432.212 525.522C426.401 525.522 421.719 521.05 421.719 514.78C421.719 508.719 426.694 503.788 433.215 503.788C439.901 503.788 444.709 508.427 444.709 514.821V523.097C444.709 530.621 439.483 535.553 432.587 535.553ZM433.088 518.458C435.346 518.458 437.059 516.911 437.059 514.612C437.059 512.356 435.346 510.85 433.088 510.85C430.873 510.85 429.118 512.356 429.118 514.612C429.118 516.911 430.874 518.458 433.088 518.458ZM408.957 525.94C402.437 525.94 397.463 520.925 397.463 514.821C397.463 508.762 402.437 503.745 408.957 503.745C415.476 503.745 420.451 508.762 420.451 514.821C420.451 520.925 415.477 525.94 408.957 525.94ZM408.957 518.876C411.339 518.876 412.928 517.036 412.928 514.864C412.928 512.649 411.34 510.809 408.957 510.809C406.574 510.809 404.986 512.649 404.986 514.863C404.986 517.036 406.574 518.876 408.957 518.876ZM387 494.801H394.523V525.312H387V494.801ZM478.311 506.309C478.311 506.994 478.039 507.65 477.555 508.135C477.071 508.619 476.414 508.891 475.729 508.891C475.045 508.891 474.388 508.619 473.904 508.135C473.42 507.65 473.148 506.994 473.148 506.309C473.148 505.624 473.42 504.968 473.904 504.483C474.388 503.999 475.045 503.727 475.729 503.727C476.414 503.727 477.071 503.999 477.555 504.483C478.039 504.968 478.311 505.624 478.311 506.309Z" fill="#113441" fill-opacity="0.2"/>
<path fill-rule="evenodd" clip-rule="evenodd" d="M457.729 477.477C465.147 484.895 469.567 494.789 470.142 505.263C467.95 502.698 464.973 500.929 461.673 500.229C460.168 493.278 456.574 486.953 451.371 482.104C446.169 477.255 439.607 474.113 432.568 473.101C425.528 472.088 418.347 473.254 411.989 476.44C405.631 479.627 400.4 484.682 396.998 490.928H388.402C391.13 484.512 395.391 478.864 400.812 474.479C406.232 470.094 412.646 467.106 419.491 465.778C426.335 464.45 433.401 464.822 440.068 466.862C446.735 468.902 452.799 472.546 457.729 477.477Z" fill="#FFD43E" fill-opacity="0.2"/>
<path fill-rule="evenodd" clip-rule="evenodd" d="M452.252 482.954C456.986 487.688 460.257 493.685 461.673 500.229C460.586 499.997 459.453 499.873 458.288 499.873C456.713 499.873 455.198 500.097 453.774 500.517C452.186 494.645 448.67 489.477 443.79 485.845C438.91 482.213 432.951 480.329 426.87 480.494C420.789 480.659 414.941 482.864 410.265 486.755C405.589 490.647 402.358 495.997 401.092 501.947C400.124 502.504 399.22 503.166 398.396 503.921V490.928H396.997C399.589 486.169 403.256 482.079 407.705 478.985C412.154 475.891 417.264 473.877 422.627 473.102C427.991 472.328 433.462 472.816 438.604 474.526C443.747 476.236 448.42 479.122 452.252 482.954Z" fill="#EE8E1D" fill-opacity="0.2"/>
<path d="M446.777 504.873C446.183 500.697 444.242 496.829 441.248 493.857C438.255 490.884 434.372 488.971 430.192 488.408C426.011 487.844 421.761 488.662 418.087 490.735C414.414 492.809 411.518 496.025 409.84 499.896C414.435 500.143 418.45 502.314 421.081 505.59C423.885 502.117 428.262 499.915 433.214 499.915C438.52 499.915 443.079 502.241 445.823 506.031C446.121 505.63 446.44 505.244 446.777 504.873Z" fill="#971C1C" fill-opacity="0.2"/>
<path fill-rule="evenodd" clip-rule="evenodd" d="M453.773 500.517C451.086 501.301 448.665 502.808 446.776 504.874C446.182 500.698 444.24 496.83 441.247 493.858C438.253 490.887 434.372 488.974 430.191 488.41C426.011 487.847 421.761 488.664 418.088 490.737C414.415 492.81 411.519 496.026 409.84 499.896C409.546 499.88 409.252 499.872 408.957 499.873C406.07 499.873 403.384 500.629 401.092 501.947C402.359 495.998 405.591 490.649 410.266 486.758C414.942 482.868 420.79 480.663 426.87 480.498C432.95 480.333 438.909 482.217 443.789 485.848C448.668 489.479 452.185 494.645 453.774 500.517H453.773Z" fill="#D62727" fill-opacity="0.2"/>
</g>
<g filter="url(#filter6_d_81_146)">
<rect x="54" y="366" width="130" height="130" fill="white"/>
</g>
<g clip-path="url(#clip6_81_146)">
<path d="M147.846 454.461C148.881 454.461 149.441 455.229 149.441 456.18V457.984H148.748V456.292C148.748 455.67 148.441 455.124 147.797 455.124C147.175 455.124 146.861 455.648 146.861 456.278V457.984H146.169V456.277C146.169 455.649 145.854 455.124 145.217 455.124C144.574 455.124 144.287 455.669 144.287 456.292V457.984H143.596V456.187C143.596 455.229 144.14 454.459 145.169 454.459C145.853 454.459 146.35 454.809 146.525 455.341C146.713 454.809 147.196 454.461 147.846 454.461ZM141.16 457.397C141.796 457.397 142.145 456.844 142.145 456.208V454.558H142.838V456.292C142.838 457.285 142.237 458.068 141.16 458.068C140.097 458.068 139.495 457.277 139.495 456.285V454.558H140.187V456.216C140.187 456.844 140.531 457.397 141.16 457.397ZM137.543 458.061C136.907 458.061 136.418 457.809 136.151 457.299L136.683 457.006C136.858 457.347 137.137 457.474 137.515 457.474C137.907 457.474 138.207 457.313 138.207 457.012C138.207 456.292 136.243 456.837 136.243 455.53C136.243 454.929 136.774 454.488 137.522 454.488C138.158 454.488 138.592 454.781 138.808 455.18L138.277 455.481C138.131 455.18 137.851 455.075 137.536 455.075C137.215 455.075 136.935 455.243 136.935 455.515C136.935 456.216 138.899 455.705 138.899 456.998C138.899 457.648 138.271 458.061 137.543 458.061ZM132.791 459.557H132.097V456.264C132.097 455.243 132.888 454.473 133.922 454.473C134.16 454.469 134.396 454.513 134.616 454.602C134.836 454.69 135.037 454.821 135.206 454.988C135.375 455.154 135.51 455.353 135.601 455.572C135.693 455.791 135.74 456.026 135.74 456.264C135.74 457.299 134.993 458.068 133.95 458.068C133.489 458.068 133.07 457.865 132.789 457.558V459.558L132.791 459.557ZM133.922 457.418C134.559 457.418 135.048 456.894 135.048 456.271C135.048 455.642 134.559 455.132 133.922 455.132C133.28 455.132 132.791 455.642 132.791 456.271C132.791 456.893 133.28 457.418 133.922 457.418ZM130.488 454.558H131.179V457.984H130.488V454.558ZM139.825 451.431C134.536 451.431 130.502 447.363 130.502 442.412C130.502 437.497 134.536 433.428 139.825 433.428C145.113 433.428 149.149 437.497 149.149 442.412C149.149 447.363 145.114 451.431 139.825 451.431ZM139.825 445.701C141.757 445.701 143.046 444.209 143.046 442.447C143.046 440.65 141.758 439.158 139.825 439.158C137.892 439.158 136.604 440.65 136.604 442.446C136.604 444.209 137.892 445.701 139.825 445.701ZM118.978 459.229C114.774 459.229 111.721 457.365 110.162 454.042L115.215 451.33C115.757 452.481 116.775 453.669 118.876 453.669C121.08 453.669 122.538 452.278 122.708 449.838C121.893 450.55 120.605 451.092 118.673 451.092C113.96 451.092 110.162 447.465 110.162 442.379C110.162 437.463 114.198 433.463 119.487 433.463C124.911 433.463 128.81 437.226 128.81 442.412V449.125C128.81 455.228 124.572 459.229 118.978 459.229ZM119.384 445.362C121.216 445.362 122.605 444.108 122.605 442.243C122.605 440.412 121.216 439.191 119.384 439.191C117.587 439.191 116.164 440.412 116.164 442.243C116.164 444.108 117.588 445.362 119.384 445.362ZM99.8105 451.431C94.5215 451.431 90.4869 447.363 90.4869 442.412C90.4869 437.497 94.5215 433.428 99.8105 433.428C105.098 433.428 109.134 437.497 109.134 442.412C109.134 447.363 105.099 451.431 99.8105 451.431ZM99.8105 445.701C101.742 445.701 103.031 444.209 103.031 442.447C103.031 440.65 101.743 439.158 99.8105 439.158C97.8775 439.158 96.5895 440.65 96.5895 442.446C96.5895 444.209 97.8775 445.701 99.8105 445.701ZM82 426.173H88.1026V450.922H82V426.173ZM156.067 435.508C156.067 436.063 155.846 436.596 155.454 436.989C155.061 437.381 154.528 437.602 153.973 437.602C153.417 437.602 152.885 437.381 152.492 436.989C152.099 436.596 151.878 436.063 151.878 435.508C151.878 434.952 152.099 434.42 152.492 434.027C152.885 433.634 153.417 433.413 153.973 433.413C154.528 433.413 155.061 433.634 155.454 434.027C155.846 434.42 156.067 434.952 156.067 435.508Z" fill="#113441" fill-opacity="0.2"/>
<path fill-rule="evenodd" clip-rule="evenodd" d="M139.372 412.121C145.389 418.138 148.974 426.163 149.441 434.66C147.663 432.579 145.248 431.144 142.571 430.576C141.351 424.938 138.435 419.807 134.215 415.874C129.995 411.94 124.673 409.392 118.962 408.571C113.252 407.75 107.428 408.695 102.27 411.28C97.1127 413.865 92.8695 417.965 90.11 423.032H83.1372C85.3502 417.827 88.8068 413.245 93.2036 409.689C97.6004 406.132 102.803 403.708 108.355 402.631C113.907 401.554 119.638 401.856 125.046 403.51C130.454 405.165 135.373 408.121 139.372 412.121Z" fill="#FFD43E" fill-opacity="0.2"/>
<path fill-rule="evenodd" clip-rule="evenodd" d="M134.929 416.563C138.769 420.403 141.422 425.268 142.571 430.576C141.689 430.387 140.77 430.287 139.825 430.287C138.548 430.287 137.318 430.469 136.163 430.809C134.876 426.046 132.023 421.855 128.065 418.909C124.107 415.963 119.272 414.434 114.34 414.568C109.408 414.702 104.664 416.491 100.871 419.647C97.0785 422.803 94.4577 427.144 93.4303 431.97C92.6451 432.422 91.9119 432.958 91.244 433.571V423.031H90.1089C92.2116 419.171 95.1855 415.854 98.7945 413.344C102.403 410.834 106.548 409.2 110.899 408.572C115.25 407.944 119.687 408.34 123.859 409.727C128.03 411.114 131.82 413.455 134.929 416.563Z" fill="#EE8E1D" fill-opacity="0.2"/>
<path d="M130.488 434.343C130.006 430.956 128.432 427.818 126.003 425.407C123.575 422.996 120.426 421.444 117.035 420.987C113.644 420.53 110.196 421.193 107.216 422.875C104.237 424.557 101.887 427.166 100.526 430.306C104.254 430.507 107.511 432.267 109.645 434.925C111.919 432.108 115.47 430.321 119.487 430.321C123.79 430.321 127.489 432.208 129.714 435.283C129.956 434.957 130.214 434.644 130.488 434.343Z" fill="#971C1C" fill-opacity="0.2"/>
<path fill-rule="evenodd" clip-rule="evenodd" d="M136.162 430.809C133.983 431.446 132.019 432.668 130.487 434.343C130.005 430.956 128.43 427.819 126.002 425.408C123.574 422.998 120.425 421.446 117.034 420.989C113.643 420.532 110.196 421.195 107.217 422.877C104.237 424.558 101.888 427.167 100.527 430.306C100.288 430.293 100.049 430.287 99.8103 430.287C97.4679 430.287 95.2899 430.901 93.4302 431.97C94.4584 427.144 97.0795 422.805 100.872 419.649C104.665 416.494 109.408 414.705 114.34 414.571C119.272 414.437 124.106 415.966 128.064 418.911C132.022 421.856 134.875 426.047 136.163 430.809H136.162Z" fill="#D62727" fill-opacity="0.2"/>
</g>
<g filter="url(#filter7_d_81_146)">
<rect x="266" y="255" width="100" height="100" fill="white"/>
</g>
<g clip-path="url(#clip7_81_146)">
<path d="M338.45 323.991C339.258 323.991 339.696 324.591 339.696 325.334V326.744H339.154V325.422C339.154 324.936 338.914 324.51 338.411 324.51C337.925 324.51 337.68 324.919 337.68 325.411V326.744H337.139V325.41C337.139 324.92 336.894 324.51 336.395 324.51C335.893 324.51 335.669 324.935 335.669 325.422V326.744H335.129V325.34C335.129 324.591 335.554 323.99 336.358 323.99C336.893 323.99 337.281 324.263 337.417 324.679C337.564 324.263 337.942 323.991 338.45 323.991ZM333.226 326.285C333.722 326.285 333.996 325.853 333.996 325.356V324.067H334.536V325.422C334.536 326.198 334.067 326.81 333.226 326.81C332.395 326.81 331.925 326.192 331.925 325.416V324.067H332.466V325.362C332.466 325.853 332.734 326.285 333.226 326.285ZM330.4 326.804C329.902 326.804 329.52 326.607 329.311 326.209L329.727 325.98C329.864 326.247 330.082 326.346 330.378 326.346C330.684 326.346 330.918 326.22 330.918 325.985C330.918 325.422 329.383 325.848 329.383 324.826C329.383 324.357 329.798 324.012 330.383 324.012C330.88 324.012 331.219 324.241 331.388 324.553L330.973 324.789C330.859 324.553 330.64 324.471 330.394 324.471C330.143 324.471 329.924 324.602 329.924 324.815C329.924 325.362 331.459 324.963 331.459 325.973C331.459 326.481 330.968 326.804 330.4 326.804ZM326.686 327.973H326.144V325.4C326.144 324.602 326.762 324.001 327.57 324.001C327.756 323.998 327.94 324.032 328.112 324.101C328.285 324.17 328.441 324.273 328.573 324.403C328.706 324.533 328.811 324.688 328.882 324.859C328.954 325.031 328.991 325.214 328.991 325.4C328.991 326.209 328.407 326.81 327.592 326.81C327.232 326.81 326.904 326.651 326.685 326.411V327.974L326.686 327.973ZM327.57 326.301C328.068 326.301 328.45 325.892 328.45 325.406C328.45 324.914 328.068 324.515 327.57 324.515C327.068 324.515 326.686 324.914 326.686 325.406C326.686 325.892 327.068 326.301 327.57 326.301ZM324.887 324.067H325.427V326.744H324.887V324.067ZM332.182 321.624C328.05 321.624 324.897 318.445 324.897 314.577C324.897 310.736 328.05 307.557 332.182 307.557C336.314 307.557 339.468 310.736 339.468 314.577C339.468 318.445 336.315 321.624 332.182 321.624ZM332.182 317.147C333.692 317.147 334.699 315.981 334.699 314.604C334.699 313.2 333.693 312.034 332.182 312.034C330.672 312.034 329.666 313.2 329.666 314.603C329.666 315.981 330.672 317.147 332.182 317.147ZM315.893 327.717C312.608 327.717 310.223 326.261 309.005 323.664L312.953 321.545C313.377 322.445 314.172 323.372 315.814 323.372C317.535 323.372 318.675 322.286 318.808 320.379C318.171 320.935 317.165 321.359 315.655 321.359C311.973 321.359 309.005 318.525 309.005 314.551C309.005 310.709 312.158 307.584 316.291 307.584C320.529 307.584 323.576 310.524 323.576 314.577V319.822C323.576 324.591 320.264 327.717 315.893 327.717ZM316.211 316.882C317.642 316.882 318.727 315.902 318.727 314.444C318.727 313.014 317.642 312.06 316.211 312.06C314.807 312.06 313.695 313.014 313.695 314.444C313.695 315.902 314.808 316.882 316.211 316.882ZM300.916 321.624C296.784 321.624 293.631 318.445 293.631 314.577C293.631 310.736 296.784 307.557 300.916 307.557C305.048 307.557 308.202 310.736 308.202 314.577C308.202 318.445 305.049 321.624 300.916 321.624ZM300.916 317.147C302.426 317.147 303.433 315.981 303.433 314.604C303.433 313.2 302.427 312.034 300.916 312.034C299.406 312.034 298.4 313.2 298.4 314.603C298.4 315.981 299.406 317.147 300.916 317.147ZM287 301.888H291.768V321.226H287V301.888ZM344.873 309.182C344.873 309.616 344.701 310.032 344.394 310.339C344.087 310.646 343.671 310.818 343.237 310.818C342.803 310.818 342.387 310.646 342.08 310.339C341.773 310.032 341.601 309.616 341.601 309.182C341.601 308.748 341.773 308.332 342.08 308.025C342.387 307.718 342.803 307.545 343.237 307.545C343.671 307.545 344.087 307.718 344.394 308.025C344.701 308.332 344.873 308.748 344.873 309.182Z" fill="#113441" fill-opacity="0.2"/>
<path fill-rule="evenodd" clip-rule="evenodd" d="M331.828 290.908C336.53 295.609 339.331 301.88 339.696 308.519C338.307 306.893 336.42 305.772 334.328 305.328C333.375 300.923 331.096 296.914 327.799 293.84C324.502 290.767 320.343 288.776 315.881 288.134C311.419 287.493 306.868 288.231 302.838 290.251C298.809 292.271 295.493 295.475 293.337 299.433H287.889C289.618 295.367 292.319 291.787 295.754 289.008C299.19 286.228 303.255 284.335 307.593 283.493C311.931 282.651 316.409 282.887 320.635 284.18C324.86 285.473 328.704 287.783 331.828 290.908Z" fill="#FFD43E" fill-opacity="0.2"/>
<path fill-rule="evenodd" clip-rule="evenodd" d="M328.357 294.379C331.357 297.38 333.43 301.181 334.328 305.328C333.639 305.181 332.92 305.102 332.182 305.102C331.184 305.102 330.224 305.245 329.321 305.511C328.315 301.789 326.086 298.514 322.993 296.212C319.901 293.91 316.123 292.715 312.269 292.82C308.415 292.925 304.709 294.322 301.745 296.789C298.782 299.255 296.734 302.646 295.931 306.417C295.318 306.77 294.745 307.19 294.223 307.668V299.433H293.336C294.979 296.417 297.303 293.825 300.123 291.864C302.942 289.903 306.181 288.626 309.581 288.135C312.98 287.645 316.447 287.954 319.707 289.038C322.966 290.122 325.928 291.951 328.357 294.379Z" fill="#EE8E1D" fill-opacity="0.2"/>
<path d="M324.887 308.272C324.511 305.625 323.28 303.173 321.383 301.289C319.485 299.406 317.025 298.193 314.375 297.836C311.726 297.479 309.032 297.997 306.703 299.311C304.375 300.625 302.54 302.664 301.476 305.117C304.389 305.274 306.933 306.649 308.601 308.726C310.378 306.525 313.152 305.129 316.291 305.129C319.654 305.129 322.543 306.604 324.282 309.006C324.471 308.751 324.673 308.507 324.887 308.272Z" fill="#971C1C" fill-opacity="0.2"/>
<path fill-rule="evenodd" clip-rule="evenodd" d="M329.32 305.511C327.617 306.008 326.083 306.963 324.886 308.272C324.509 305.625 323.279 303.174 321.382 301.29C319.484 299.407 317.024 298.195 314.375 297.837C311.725 297.48 309.032 297.998 306.703 299.312C304.375 300.626 302.54 302.664 301.476 305.117C301.29 305.107 301.103 305.102 300.916 305.102C299.086 305.102 297.384 305.582 295.931 306.417C296.735 302.647 298.783 299.256 301.746 296.79C304.709 294.325 308.416 292.927 312.269 292.822C316.123 292.718 319.9 293.912 322.993 296.214C326.085 298.515 328.314 301.789 329.321 305.511H329.32Z" fill="#D62727" fill-opacity="0.2"/>
</g>
<g filter="url(#filter8_d_81_146)">
<rect x="281" y="12" width="145" height="145" fill="white"/>
</g>
<g clip-path="url(#clip8_81_146)">
<path d="M389.176 113.674C390.452 113.674 391.142 114.622 391.142 115.794V118.018H390.288V115.932C390.288 115.165 389.909 114.493 389.116 114.493C388.349 114.493 387.961 115.138 387.961 115.915V118.018H387.108V115.914C387.108 115.14 386.721 114.493 385.935 114.493C385.142 114.493 384.788 115.164 384.788 115.932V118.018H383.936V115.803C383.936 114.622 384.608 113.673 385.875 113.673C386.72 113.673 387.332 114.104 387.547 114.76C387.779 114.104 388.375 113.674 389.176 113.674ZM380.934 117.294C381.717 117.294 382.149 116.613 382.149 115.829V113.795H383.002V115.932C383.002 117.156 382.261 118.122 380.934 118.122C379.624 118.122 378.881 117.147 378.881 115.923V113.795H379.735V115.838C379.735 116.613 380.158 117.294 380.934 117.294ZM376.475 118.113C375.69 118.113 375.087 117.803 374.758 117.174L375.414 116.813C375.629 117.233 375.974 117.39 376.44 117.39C376.923 117.39 377.293 117.191 377.293 116.82C377.293 115.932 374.872 116.605 374.872 114.992C374.872 114.251 375.526 113.708 376.449 113.708C377.233 113.708 377.767 114.069 378.034 114.561L377.38 114.933C377.199 114.561 376.855 114.432 376.466 114.432C376.07 114.432 375.725 114.639 375.725 114.974C375.725 115.838 378.147 115.208 378.147 116.802C378.147 117.604 377.372 118.113 376.475 118.113ZM370.616 119.957H369.761V115.897C369.761 114.639 370.736 113.69 372.011 113.69C372.304 113.685 372.594 113.739 372.866 113.848C373.138 113.957 373.385 114.119 373.594 114.324C373.802 114.53 373.968 114.775 374.081 115.045C374.194 115.315 374.252 115.605 374.252 115.897C374.252 117.174 373.33 118.122 372.045 118.122C371.477 118.122 370.96 117.871 370.614 117.493V119.959L370.616 119.957ZM372.011 117.32C372.796 117.32 373.399 116.675 373.399 115.906C373.399 115.131 372.796 114.502 372.011 114.502C371.218 114.502 370.616 115.131 370.616 115.906C370.616 116.673 371.218 117.32 372.011 117.32ZM367.777 113.795H368.629V118.018H367.777V113.795ZM379.288 109.94C372.767 109.94 367.794 104.925 367.794 98.8212C367.794 92.7617 372.767 87.7452 379.288 87.7452C385.807 87.7452 390.782 92.7617 390.782 98.8212C390.782 104.925 385.808 109.94 379.288 109.94ZM379.288 102.876C381.67 102.876 383.259 101.036 383.259 98.8638C383.259 96.6486 381.671 94.8091 379.288 94.8091C376.905 94.8091 375.317 96.6486 375.317 98.8626C375.317 101.036 376.905 102.876 379.288 102.876ZM353.587 119.553C348.404 119.553 344.641 117.255 342.719 113.158L348.948 109.815C349.616 111.235 350.871 112.699 353.462 112.699C356.178 112.699 357.976 110.984 358.185 107.975C357.181 108.853 355.593 109.522 353.212 109.522C347.401 109.522 342.719 105.05 342.719 98.7799C342.719 92.7191 347.694 87.7878 354.215 87.7878C360.901 87.7878 365.709 92.4274 365.709 98.8212V107.097C365.709 114.621 360.483 119.553 353.587 119.553ZM354.088 102.458C356.346 102.458 358.059 100.911 358.059 98.6121C358.059 96.3556 356.346 94.8504 354.088 94.8504C351.873 94.8504 350.118 96.3556 350.118 98.6121C350.118 100.911 351.874 102.458 354.088 102.458ZM329.957 109.94C323.437 109.94 318.463 104.925 318.463 98.8212C318.463 92.7617 323.437 87.7452 329.957 87.7452C336.476 87.7452 341.451 92.7617 341.451 98.8212C341.451 104.925 336.477 109.94 329.957 109.94ZM329.957 102.876C332.339 102.876 333.928 101.036 333.928 98.8638C333.928 96.6486 332.34 94.8091 329.957 94.8091C327.574 94.8091 325.986 96.6486 325.986 98.8626C325.986 101.036 327.574 102.876 329.957 102.876ZM308 78.8005H315.523V109.312H308V78.8005ZM399.311 90.309C399.311 90.9937 399.039 91.6504 398.555 92.1346C398.071 92.6188 397.414 92.8908 396.729 92.8908C396.045 92.8908 395.388 92.6188 394.904 92.1346C394.42 91.6504 394.148 90.9937 394.148 90.309C394.148 89.6243 394.42 88.9676 394.904 88.4834C395.388 87.9992 396.045 87.7272 396.729 87.7272C397.414 87.7272 398.071 87.9992 398.555 88.4834C399.039 88.9676 399.311 89.6243 399.311 90.309Z" fill="#113441" fill-opacity="0.2"/>
<path fill-rule="evenodd" clip-rule="evenodd" d="M378.729 61.4766C386.147 68.8945 390.567 78.7887 391.142 89.2635C388.95 86.6984 385.973 84.9286 382.673 84.2289C381.168 77.2778 377.574 70.9531 372.371 66.1039C367.169 61.2547 360.607 58.113 353.568 57.1006C346.528 56.0882 339.347 57.2536 332.989 60.4402C326.631 63.6269 321.4 68.6823 317.998 74.9279H309.402C312.13 68.5119 316.391 62.8635 321.812 58.4785C327.232 54.0935 333.646 51.106 340.491 49.778C347.335 48.45 354.401 48.8222 361.068 50.8619C367.735 52.9016 373.799 56.5465 378.729 61.4766Z" fill="#FFD43E" fill-opacity="0.2"/>
<path fill-rule="evenodd" clip-rule="evenodd" d="M373.252 66.954C377.986 71.688 381.257 77.6853 382.673 84.2289C381.586 83.9966 380.453 83.8726 379.288 83.8726C377.713 83.8726 376.198 84.0973 374.774 84.5168C373.186 78.6446 369.67 73.4771 364.79 69.8453C359.91 66.2135 353.951 64.3286 347.87 64.4936C341.789 64.6587 335.941 66.8643 331.265 70.7555C326.589 74.6467 323.358 79.9975 322.092 85.9471C321.124 86.5042 320.22 87.1662 319.396 87.9209V74.9279H317.997C320.589 70.1687 324.256 66.0794 328.705 62.9851C333.154 59.8908 338.264 57.8766 343.627 57.1025C348.991 56.3284 354.462 56.8158 359.604 58.5259C364.747 60.2361 369.42 63.1218 373.252 66.954Z" fill="#EE8E1D" fill-opacity="0.2"/>
<path d="M367.777 88.8734C367.183 84.697 365.242 80.8286 362.248 77.8565C359.255 74.8845 355.372 72.9713 351.192 72.4079C347.011 71.8445 342.761 72.6617 339.087 74.7353C335.414 76.8088 332.518 80.0253 330.84 83.8956C335.435 84.1435 339.45 86.3135 342.081 89.5898C344.885 86.1173 349.262 83.915 354.214 83.915C359.52 83.915 364.079 86.2412 366.823 90.0313C367.121 89.6299 367.44 89.2439 367.777 88.8734Z" fill="#971C1C" fill-opacity="0.2"/>
<path fill-rule="evenodd" clip-rule="evenodd" d="M374.773 84.5167C372.086 85.3015 369.665 86.8085 367.776 88.8735C367.182 84.6976 365.24 80.8298 362.247 77.8582C359.253 74.8865 355.372 72.9737 351.191 72.4103C347.011 71.8469 342.761 72.6639 339.088 74.7371C335.415 76.8102 332.519 80.0261 330.84 83.8958C330.546 83.8801 330.252 83.8724 329.957 83.8726C327.07 83.8726 324.384 84.629 322.092 85.9471C323.359 79.9983 326.591 74.6486 331.266 70.7582C335.942 66.8679 341.79 64.6629 347.87 64.4978C353.95 64.3327 359.909 66.2171 364.789 69.8481C369.668 73.479 373.185 78.6455 374.774 84.5167H374.773Z" fill="#D62727" fill-opacity="0.2"/>
</g>
<g filter="url(#filter9_d_81_146)">
<rect x="61" y="92" width="130" height="130" fill="white"/>
</g>
<g clip-path="url(#clip9_81_146)">
<path d="M155.456 181.744C156.516 181.744 157.09 182.531 157.09 183.505V185.353H156.38V183.62C156.38 182.983 156.066 182.424 155.406 182.424C154.769 182.424 154.447 182.96 154.447 183.606V185.353H153.738V183.605C153.738 182.961 153.416 182.424 152.763 182.424C152.104 182.424 151.81 182.982 151.81 183.62V185.353H151.102V183.513C151.102 182.531 151.66 181.743 152.713 181.743C153.415 181.743 153.923 182.101 154.103 182.646C154.296 182.101 154.79 181.744 155.456 181.744ZM148.607 184.752C149.258 184.752 149.616 184.185 149.616 183.534V181.843H150.325V183.62C150.325 184.637 149.71 185.439 148.607 185.439C147.518 185.439 146.901 184.629 146.901 183.612V181.843H147.61V183.542C147.61 184.185 147.962 184.752 148.607 184.752ZM144.902 185.432C144.25 185.432 143.749 185.174 143.475 184.652L144.02 184.351C144.199 184.701 144.486 184.831 144.873 184.831C145.274 184.831 145.582 184.666 145.582 184.358C145.582 183.62 143.569 184.179 143.569 182.839C143.569 182.223 144.113 181.772 144.88 181.772C145.531 181.772 145.976 182.072 146.198 182.481L145.654 182.79C145.504 182.481 145.217 182.373 144.894 182.373C144.565 182.373 144.278 182.545 144.278 182.824C144.278 183.542 146.291 183.018 146.291 184.343C146.291 185.009 145.647 185.432 144.902 185.432ZM140.033 186.965H139.322V183.591C139.322 182.545 140.132 181.757 141.192 181.757C141.435 181.753 141.677 181.798 141.903 181.888C142.129 181.979 142.334 182.113 142.507 182.284C142.681 182.455 142.818 182.658 142.912 182.882C143.006 183.107 143.055 183.348 143.055 183.591C143.055 184.652 142.289 185.439 141.22 185.439C140.748 185.439 140.319 185.231 140.032 184.917V186.966L140.033 186.965ZM141.192 184.773C141.844 184.773 142.345 184.237 142.345 183.598C142.345 182.954 141.844 182.431 141.192 182.431C140.534 182.431 140.033 182.954 140.033 183.598C140.033 184.236 140.534 184.773 141.192 184.773ZM137.674 181.843H138.382V185.353H137.674V181.843ZM147.239 178.64C141.821 178.64 137.688 174.473 137.688 169.401C137.688 164.365 141.821 160.197 147.239 160.197C152.656 160.197 156.791 164.365 156.791 169.401C156.791 174.473 152.658 178.64 147.239 178.64ZM147.239 172.77C149.218 172.77 150.539 171.242 150.539 169.436C150.539 167.595 149.219 166.067 147.239 166.067C145.259 166.067 143.94 167.595 143.94 169.435C143.94 171.242 145.259 172.77 147.239 172.77ZM125.882 186.629C121.575 186.629 118.448 184.719 116.851 181.315L122.027 178.536C122.583 179.716 123.625 180.933 125.778 180.933C128.035 180.933 129.53 179.508 129.703 177.008C128.869 177.737 127.549 178.293 125.57 178.293C120.742 178.293 116.851 174.577 116.851 169.367C116.851 164.33 120.985 160.232 126.404 160.232C131.96 160.232 135.955 164.088 135.955 169.401V176.278C135.955 182.53 131.613 186.629 125.882 186.629ZM126.299 172.423C128.175 172.423 129.598 171.138 129.598 169.227C129.598 167.352 128.175 166.101 126.299 166.101C124.458 166.101 123 167.352 123 169.227C123 171.138 124.459 172.423 126.299 172.423ZM106.246 178.64C100.828 178.64 96.6945 174.473 96.6945 169.401C96.6945 164.365 100.828 160.197 106.246 160.197C111.663 160.197 115.798 164.365 115.798 169.401C115.798 174.473 111.664 178.64 106.246 178.64ZM106.246 172.77C108.225 172.77 109.546 171.242 109.546 169.436C109.546 167.595 108.226 166.067 106.246 166.067C104.266 166.067 102.946 167.595 102.946 169.435C102.946 171.242 104.266 172.77 106.246 172.77ZM88 152.764H94.2519V178.119H88V152.764ZM163.878 162.327C163.878 162.896 163.652 163.442 163.25 163.844C162.848 164.247 162.302 164.473 161.733 164.473C161.164 164.473 160.618 164.247 160.216 163.844C159.813 163.442 159.587 162.896 159.587 162.327C159.587 161.758 159.813 161.213 160.216 160.81C160.618 160.408 161.164 160.182 161.733 160.182C162.302 160.182 162.848 160.408 163.25 160.81C163.652 161.213 163.878 161.758 163.878 162.327Z" fill="#113441" fill-opacity="0.2"/>
<path fill-rule="evenodd" clip-rule="evenodd" d="M146.775 138.368C152.939 144.532 156.612 152.754 157.09 161.459C155.269 159.327 152.795 157.856 150.052 157.275C148.802 151.499 145.815 146.243 141.492 142.213C137.169 138.184 131.716 135.573 125.866 134.732C120.017 133.89 114.049 134.859 108.766 137.507C103.482 140.155 99.1353 144.356 96.3083 149.546H89.165C91.4322 144.214 94.9733 139.521 99.4776 135.877C103.982 132.233 109.312 129.75 114.999 128.647C120.687 127.543 126.558 127.852 132.099 129.547C137.639 131.242 142.678 134.271 146.775 138.368Z" fill="#FFD43E" fill-opacity="0.2"/>
<path fill-rule="evenodd" clip-rule="evenodd" d="M142.223 142.919C146.157 146.853 148.875 151.837 150.052 157.275C149.149 157.082 148.207 156.979 147.239 156.979C145.93 156.979 144.671 157.165 143.488 157.514C142.169 152.634 139.246 148.34 135.191 145.322C131.136 142.304 126.184 140.738 121.131 140.875C116.078 141.012 111.218 142.845 107.333 146.078C103.447 149.312 100.762 153.758 99.7098 158.702C98.9053 159.165 98.1542 159.715 97.47 160.343V149.546H96.3071C98.4612 145.591 101.508 142.193 105.205 139.621C108.902 137.05 113.148 135.376 117.606 134.733C122.063 134.09 126.609 134.495 130.882 135.916C135.156 137.337 139.039 139.735 142.223 142.919Z" fill="#EE8E1D" fill-opacity="0.2"/>
<path d="M137.673 161.134C137.18 157.664 135.567 154.449 133.079 151.98C130.592 149.51 127.366 147.92 123.892 147.452C120.418 146.984 116.886 147.663 113.833 149.386C110.78 151.109 108.374 153.782 106.979 156.998C110.798 157.204 114.135 159.007 116.321 161.73C118.651 158.844 122.288 157.014 126.403 157.014C130.812 157.014 134.601 158.947 136.881 162.097C137.128 161.763 137.393 161.442 137.673 161.134Z" fill="#971C1C" fill-opacity="0.2"/>
<path fill-rule="evenodd" clip-rule="evenodd" d="M143.487 157.514C141.254 158.166 139.243 159.418 137.673 161.134C137.179 157.664 135.566 154.45 133.078 151.981C130.591 149.511 127.365 147.922 123.891 147.454C120.418 146.985 116.886 147.664 113.834 149.387C110.781 151.11 108.374 153.782 106.98 156.998C106.735 156.985 106.491 156.978 106.246 156.979C103.846 156.979 101.615 157.607 99.71 158.702C100.763 153.759 103.449 149.314 107.334 146.081C111.219 142.848 116.079 141.016 121.131 140.878C126.184 140.741 131.136 142.307 135.19 145.324C139.245 148.342 142.168 152.635 143.488 157.514H143.487Z" fill="#D62727" fill-opacity="0.2"/>
</g>
<defs>
<filter id="filter0_d_81_146" x="1236" y="23" width="233" height="233" filterUnits="userSpaceOnUse" color-interpolation-filters="sRGB">
<feFlood flood-opacity="0" result="BackgroundImageFix"/>
<feColorMatrix in="SourceAlpha" type="matrix" values="0 0 0 0 0 0 0 0 0 0 0 0 0 0 0 0 0 0 127 0" result="hardAlpha"/>
<feOffset dy="42"/>
<feGaussianBlur stdDeviation="27"/>
<feColorMatrix type="matrix" values="0 0 0 0 0.145098 0 0 0 0 0.188235 0 0 0 0 0.32549 0 0 0 0.07 0"/>
<feBlend mode="normal" in2="BackgroundImageFix" result="effect1_dropShadow_81_146"/>
<feBlend mode="normal" in="SourceGraphic" in2="effect1_dropShadow_81_146" result="shape"/>
</filter>
<filter id="filter1_d_81_146" x="1548" y="252" width="251" height="251" filterUnits="userSpaceOnUse" color-interpolation-filters="sRGB">
<feFlood flood-opacity="0" result="BackgroundImageFix"/>
<feColorMatrix in="SourceAlpha" type="matrix" values="0 0 0 0 0 0 0 0 0 0 0 0 0 0 0 0 0 0 127 0" result="hardAlpha"/>
<feOffset dy="42"/>
<feGaussianBlur stdDeviation="27"/>
<feColorMatrix type="matrix" values="0 0 0 0 0.145098 0 0 0 0 0.188235 0 0 0 0 0.32549 0 0 0 0.07 0"/>
<feBlend mode="normal" in2="BackgroundImageFix" result="effect1_dropShadow_81_146"/>
<feBlend mode="normal" in="SourceGraphic" in2="effect1_dropShadow_81_146" result="shape"/>
</filter>
<filter id="filter2_d_81_146" x="1435" y="86" width="208" height="208" filterUnits="userSpaceOnUse" color-interpolation-filters="sRGB">
<feFlood flood-opacity="0" result="BackgroundImageFix"/>
<feColorMatrix in="SourceAlpha" type="matrix" values="0 0 0 0 0 0 0 0 0 0 0 0 0 0 0 0 0 0 127 0" result="hardAlpha"/>
<feOffset dy="42"/>
<feGaussianBlur stdDeviation="27"/>
<feColorMatrix type="matrix" values="0 0 0 0 0.145098 0 0 0 0 0.188235 0 0 0 0 0.32549 0 0 0 0.07 0"/>
<feBlend mode="normal" in2="BackgroundImageFix" result="effect1_dropShadow_81_146"/>
<feBlend mode="normal" in="SourceGraphic" in2="effect1_dropShadow_81_146" result="shape"/>
</filter>
<filter id="filter3_d_81_146" x="1304" y="217" width="208" height="208" filterUnits="userSpaceOnUse" color-interpolation-filters="sRGB">
<feFlood flood-opacity="0" result="BackgroundImageFix"/>
<feColorMatrix in="SourceAlpha" type="matrix" values="0 0 0 0 0 0 0 0 0 0 0 0 0 0 0 0 0 0 127 0" result="hardAlpha"/>
<feOffset dy="42"/>
<feGaussianBlur stdDeviation="27"/>
<feColorMatrix type="matrix" values="0 0 0 0 0.145098 0 0 0 0 0.188235 0 0 0 0 0.32549 0 0 0 0.07 0"/>
<feBlend mode="normal" in2="BackgroundImageFix" result="effect1_dropShadow_81_146"/>
<feBlend mode="normal" in="SourceGraphic" in2="effect1_dropShadow_81_146" result="shape"/>
</filter>
<filter id="filter4_d_81_146" x="1259" y="354" width="258" height="258" filterUnits="userSpaceOnUse" color-interpolation-filters="sRGB">
<feFlood flood-opacity="0" result="BackgroundImageFix"/>
<feColorMatrix in="SourceAlpha" type="matrix" values="0 0 0 0 0 0 0 0 0 0 0 0 0 0 0 0 0 0 127 0" result="hardAlpha"/>
<feOffset dy="42"/>
<feGaussianBlur stdDeviation="27"/>
<feColorMatrix type="matrix" values="0 0 0 0 0.145098 0 0 0 0 0.188235 0 0 0 0 0.32549 0 0 0 0.07 0"/>
<feBlend mode="normal" in2="BackgroundImageFix" result="effect1_dropShadow_81_146"/>
<feBlend mode="normal" in="SourceGraphic" in2="effect1_dropShadow_81_146" result="shape"/>
</filter>
<filter id="filter5_d_81_146" x="306" y="416" width="253" height="253" filterUnits="userSpaceOnUse" color-interpolation-filters="sRGB">
<feFlood flood-opacity="0" result="BackgroundImageFix"/>
<feColorMatrix in="SourceAlpha" type="matrix" values="0 0 0 0 0 0 0 0 0 0 0 0 0 0 0 0 0 0 127 0" result="hardAlpha"/>
<feOffset dy="42"/>
<feGaussianBlur stdDeviation="27"/>
<feColorMatrix type="matrix" values="0 0 0 0 0.145098 0 0 0 0 0.188235 0 0 0 0 0.32549 0 0 0 0.07 0"/>
<feBlend mode="normal" in2="BackgroundImageFix" result="effect1_dropShadow_81_146"/>
<feBlend mode="normal" in="SourceGraphic" in2="effect1_dropShadow_81_146" result="shape"/>
</filter>
<filter id="filter6_d_81_146" x="0" y="354" width="238" height="238" filterUnits="userSpaceOnUse" color-interpolation-filters="sRGB">
<feFlood flood-opacity="0" result="BackgroundImageFix"/>
<feColorMatrix in="SourceAlpha" type="matrix" values="0 0 0 0 0 0 0 0 0 0 0 0 0 0 0 0 0 0 127 0" result="hardAlpha"/>
<feOffset dy="42"/>
<feGaussianBlur stdDeviation="27"/>
<feColorMatrix type="matrix" values="0 0 0 0 0.145098 0 0 0 0 0.188235 0 0 0 0 0.32549 0 0 0 0.07 0"/>
<feBlend mode="normal" in2="BackgroundImageFix" result="effect1_dropShadow_81_146"/>
<feBlend mode="normal" in="SourceGraphic" in2="effect1_dropShadow_81_146" result="shape"/>
</filter>
<filter id="filter7_d_81_146" x="212" y="243" width="208" height="208" filterUnits="userSpaceOnUse" color-interpolation-filters="sRGB">
<feFlood flood-opacity="0" result="BackgroundImageFix"/>
<feColorMatrix in="SourceAlpha" type="matrix" values="0 0 0 0 0 0 0 0 0 0 0 0 0 0 0 0 0 0 127 0" result="hardAlpha"/>
<feOffset dy="42"/>
<feGaussianBlur stdDeviation="27"/>
<feColorMatrix type="matrix" values="0 0 0 0 0.145098 0 0 0 0 0.188235 0 0 0 0 0.32549 0 0 0 0.07 0"/>
<feBlend mode="normal" in2="BackgroundImageFix" result="effect1_dropShadow_81_146"/>
<feBlend mode="normal" in="SourceGraphic" in2="effect1_dropShadow_81_146" result="shape"/>
</filter>
<filter id="filter8_d_81_146" x="227" y="0" width="253" height="253" filterUnits="userSpaceOnUse" color-interpolation-filters="sRGB">
<feFlood flood-opacity="0" result="BackgroundImageFix"/>
<feColorMatrix in="SourceAlpha" type="matrix" values="0 0 0 0 0 0 0 0 0 0 0 0 0 0 0 0 0 0 127 0" result="hardAlpha"/>
<feOffset dy="42"/>
<feGaussianBlur stdDeviation="27"/>
<feColorMatrix type="matrix" values="0 0 0 0 0.145098 0 0 0 0 0.188235 0 0 0 0 0.32549 0 0 0 0.07 0"/>
<feBlend mode="normal" in2="BackgroundImageFix" result="effect1_dropShadow_81_146"/>
<feBlend mode="normal" in="SourceGraphic" in2="effect1_dropShadow_81_146" result="shape"/>
</filter>
<filter id="filter9_d_81_146" x="7" y="80" width="238" height="238" filterUnits="userSpaceOnUse" color-interpolation-filters="sRGB">
<feFlood flood-opacity="0" result="BackgroundImageFix"/>
<feColorMatrix in="SourceAlpha" type="matrix" values="0 0 0 0 0 0 0 0 0 0 0 0 0 0 0 0 0 0 127 0" result="hardAlpha"/>
<feOffset dy="42"/>
<feGaussianBlur stdDeviation="27"/>
<feColorMatrix type="matrix" values="0 0 0 0 0.145098 0 0 0 0 0.188235 0 0 0 0 0.32549 0 0 0 0.07 0"/>
<feBlend mode="normal" in2="BackgroundImageFix" result="effect1_dropShadow_81_146"/>
<feBlend mode="normal" in="SourceGraphic" in2="effect1_dropShadow_81_146" result="shape"/>
</filter>
<clipPath id="clip0_81_146">
<rect width="83.9091" height="65" fill="white" transform="translate(1310.55 65)"/>
</clipPath>
<clipPath id="clip1_81_146">
<rect width="91.6545" height="71" fill="white" transform="translate(1628 300)"/>
</clipPath>
<clipPath id="clip2_81_146">
<rect width="60.0909" height="46.5493" fill="white" transform="translate(1508.91 124.225)"/>
</clipPath>
<clipPath id="clip3_81_146">
<rect width="60.0909" height="46.5493" fill="white" transform="translate(1378 256)"/>
</clipPath>
<clipPath id="clip4_81_146">
<rect width="91.6545" height="71" fill="white" transform="translate(1342 406)"/>
</clipPath>
<clipPath id="clip5_81_146">
<rect width="91.6545" height="71" fill="white" transform="translate(387 465)"/>
</clipPath>
<clipPath id="clip6_81_146">
<rect width="74.3455" height="57.5916" fill="white" transform="translate(82 402)"/>
</clipPath>
<clipPath id="clip7_81_146">
<rect width="58.0909" height="45" fill="white" transform="translate(287 283)"/>
</clipPath>
<clipPath id="clip8_81_146">
<rect width="91.6545" height="71" fill="white" transform="translate(308 49)"/>
</clipPath>
<clipPath id="clip9_81_146">
<rect width="76.1636" height="59" fill="white" transform="translate(88 128)"/>
</clipPath>
</defs>
</svg>
